<svg width="120" height="120" viewBox="0 0 120 120" fill="none" xmlns="http://www.w3.org/2000/svg">
<path d="M120 60C120 93.12 93.12 120 60 120C26.88 120 0 93.12 0 60C0 26.88 26.88 0 60 0H60.04C93.16 0 120.04 26.88 120 60Z" fill="#670C09"/>
<path d="M106.32 60C106.32 85.56 85.56 106.28 60 106.28C34.44 106.28 13.72 85.52 13.72 59.96C13.76 34.4 34.48 13.68 60.04 13.68C85.6 13.68 106.32 34.44 106.32 60Z" fill="#D19E42"/>
<path d="M60.04 106.92C34.12 106.92 13.12 85.92 13.12 60.04C13.12 34.16 34.12 13.12 60 13.12C85.88 13.12 106.92 34.12 106.92 60V60.04C106.92 85.88 85.92 106.88 60.04 106.92ZM60.04 14.32C34.8 14.32 14.36 34.76 14.36 59.96C14.36 85.16 34.8 105.64 60 105.64C85.2 105.64 105.68 85.24 105.68 60C105.68 34.76 85.24 14.36 60.04 14.32Z" fill="white"/>
<path d="M19.92 99.84L24.88 94.76L26.04 95.88L21.08 100.96L19.92 99.84Z" fill="white"/>
<path d="M23.44 93.32L17.92 97.8L16.72 96.36L17.8 93.56C18.12 92.72 18.52 91.92 18.96 91.12C18.24 91.8 17.52 92.48 16.72 93.08L15.12 94.4L14.2 93.24L19.72 88.76L20.8 90.08L19.6 93C19.24 93.88 18.88 94.72 18.44 95.52L18.48 95.56C19.2 94.92 19.96 94.28 20.84 93.52L22.52 92.16L23.44 93.32Z" fill="white"/>
<path d="M16.76 86.28C16.68 86.12 16.6 85.92 16.52 85.8C15.8 84.52 14.64 84.08 13.16 84.92C11.84 85.68 11.64 86.8 12.32 88C12.44 88.2 12.56 88.4 12.72 88.6L16.76 86.28ZM12.52 90.56C12.08 90 11.68 89.4 11.32 88.76C10.64 87.56 10.4 86.68 10.52 85.84C10.64 84.92 11.16 84.08 12.28 83.44C13.2 82.84 14.32 82.72 15.36 83.04C16.28 83.4 17.12 84.24 17.8 85.44C18.12 85.96 18.36 86.52 18.6 87.08L12.52 90.56Z" fill="white"/>
<path d="M7.63999 81.32L14.2 78.52L14.84 80L8.27999 82.8L7.63999 81.32Z" fill="white"/>
<path d="M9.52002 74.2L8.20002 75.04C7.84002 75.28 7.36002 75.56 7.00002 75.76V75.8C7.44002 75.76 8.00002 75.72 8.40002 75.72H9.96002L9.52002 74.2ZM11.2 75.56L13.08 75.52L13.56 77.12L6.12002 77.04L5.52002 75.04L11.72 70.88L12.2 72.56L10.6 73.6L11.2 75.56Z" fill="white"/>
<path d="M11.44 69.36L4.39998 70.28L4.15998 68.4L6.55998 66.6C7.27998 66.08 8.03998 65.56 8.83998 65.12V65.08C7.87998 65.32 6.87998 65.48 5.91998 65.6L3.87998 65.88L3.67998 64.4L10.76 63.48L10.96 65.16L8.43998 67.04C7.67998 67.6 6.91998 68.12 6.11998 68.56V68.6C7.03998 68.44 8.03998 68.28 9.19998 68.12L11.32 67.84L11.44 69.36Z" fill="white"/>
<path d="M3.60002 56.8L10.72 57.08L10.64 58.68L3.52002 58.4L3.60002 56.8Z" fill="white"/>
<path d="M10.8 55.04L3.76001 53.92L4.04001 52.08L6.84001 51.04C7.68001 50.72 8.56001 50.48 9.44001 50.28C8.48001 50.24 7.52001 50.12 6.48001 49.92L4.44001 49.56L4.68001 48.08L11.72 49.2L11.44 50.88L8.48001 51.96C7.60001 52.28 6.72001 52.56 5.80001 52.8V52.84C6.76001 52.92 7.76001 53.08 8.88001 53.28L11 53.64L10.8 55.04Z" fill="white"/>
<path d="M10.68 46.72C11.12 46.28 11.44 45.72 11.64 45.16C11.84 44.44 11.68 44 11.24 43.84C10.8 43.68 10.48 43.96 9.92001 44.68C9.16001 45.68 8.32001 46.24 7.32001 45.92C6.16001 45.56 5.60001 44.32 6.08001 42.72C6.24001 42.12 6.56001 41.56 6.96001 41.08L8.08001 41.8C7.72001 42.16 7.48001 42.6 7.32001 43.12C7.12001 43.8 7.32001 44.2 7.68001 44.32C8.12001 44.44 8.44001 44.16 9.04001 43.36C9.84001 42.28 10.64 41.92 11.64 42.24C12.8 42.6 13.48 43.76 12.88 45.64C12.68 46.32 12.32 46.92 11.84 47.44L10.68 46.72Z" fill="white"/>
<path d="M9.60001 37.6L8.80001 39.36L7.56001 38.76L9.88001 33.8L11.12 34.36L10.32 36.12L15.56 38.52L14.84 40L9.60001 37.6Z" fill="white"/>
<path d="M11.8 30.48L17.92 34.12L17.12 35.48L10.96 31.84L11.8 30.48Z" fill="white"/>
<path d="M15.2 27.84L14.04 29.36L12.96 28.56L16.2 24.16L17.28 24.96L16.12 26.52L20.76 29.96L19.8 31.24L15.2 27.84Z" fill="white"/>
<path d="M18.96 21.12L21.88 24C22.76 24.88 23.52 24.96 24.12 24.4C24.72 23.84 24.6 23.04 23.72 22.16L20.8 19.28L21.92 18.12L24.76 20.92C26.32 22.48 26.28 24 24.96 25.32C23.64 26.64 22.24 26.64 20.64 25.04L17.84 22.24L18.96 21.12Z" fill="white"/>
<path d="M26.2 16.4L24.68 17.56L23.88 16.48L28.2 13.2L29 14.28L27.44 15.44L30.92 20.04L29.64 21L26.2 16.4Z" fill="white"/>
<path d="M35.96 13.36L33.68 14.64L34.52 16.12L37.08 14.68L37.72 15.84L33.8 18.08L30.28 11.88L34.08 9.72L34.72 10.88L32.32 12.24L33.04 13.52L35.32 12.24L35.96 13.36Z" fill="white"/>
<path d="M44.4 11.88C45.44 11.56 45.72 10.36 45.28 9.04C44.88 7.84 43.96 6.96 42.92 7.32C41.88 7.68 41.6 8.88 42 10.16C42.4 11.44 43.36 12.24 44.4 11.88ZM44.72 13.12C42.72 13.76 41.04 12.64 40.4 10.72C39.72 8.68 40.56 6.76 42.56 6.08C44.64 5.4 46.28 6.6 46.88 8.48C47.6 10.72 46.72 12.52 44.72 13.12Z" fill="white"/>
<path d="M48.52 4.6L52.8 3.88L53.04 5.16L50.32 5.6L50.6 7.2L53.12 6.76L53.32 8.04L50.8 8.48L51.28 11.32L49.68 11.6L48.52 4.6Z" fill="white"/>
<path d="M60.08 4.8H58.16L58.2 3.44L63.64 3.52L63.6 4.88L61.64 4.84L61.56 10.6L59.96 10.56L60.08 4.8Z" fill="white"/>
<path d="M69.64 8.4L67.04 8.04L66.8 9.72L69.68 10.12L69.48 11.44L65 10.8L66.04 3.76L70.4 4.4L70.2 5.72L67.44 5.32L67.24 6.8L69.84 7.16L69.64 8.4Z" fill="white"/>
<path d="M76.28 13.04C75.68 13.08 75.04 13.04 74.44 12.84C72.08 12.16 71.28 10.32 71.84 8.36C72.52 6 74.52 5.2 76.6 5.8C77.2 5.96 77.72 6.24 78.2 6.6L77.52 7.72C77.16 7.44 76.76 7.2 76.28 7.08C75.08 6.72 73.88 7.2 73.48 8.72C73.08 10.08 73.64 11.2 75.04 11.56C75.48 11.68 75.96 11.72 76.4 11.72L76.28 13.04Z" fill="white"/>
<path d="M82.24 8L81.08 10.48L83.48 11.6L84.64 9.12L86.12 9.8L83.16 16.28L81.72 15.6L82.96 12.88L80.56 11.76L79.32 14.48L77.84 13.8L80.8 7.32L82.24 8Z" fill="white"/>
<path d="M84.96 17.24L88.92 11.32L90.48 12.36L90.24 15.36C90.16 16.24 90.04 17.16 89.84 18.04C90.32 17.2 90.8 16.4 91.4 15.52L92.56 13.8L93.8 14.6L89.84 20.52L88.44 19.6L88.68 16.48C88.76 15.56 88.88 14.64 89.04 13.72L89 13.68C88.52 14.48 87.96 15.36 87.32 16.32L86.12 18.12L84.96 17.24Z" fill="white"/>
<path d="M94.52 23.04C95.32 23.76 96.48 23.44 97.4 22.44C98.28 21.52 98.6 20.28 97.76 19.52C96.92 18.76 95.76 19.12 94.84 20.12C93.92 21.12 93.72 22.28 94.52 23.04ZM93.6 23.92C92.08 22.48 92.24 20.48 93.64 19C95.08 17.44 97.2 17.2 98.72 18.64C100.32 20.12 100.08 22.16 98.72 23.6C97.12 25.28 95.12 25.32 93.6 23.92Z" fill="white"/>
<path d="M102.88 23.08L103.88 24.32L99.3999 27.92L101.16 30.12L100.12 30.96L97.3599 27.48L102.88 23.08Z" fill="white"/>
<path d="M103.4 34C103.96 34.92 105.16 34.92 106.36 34.24C107.44 33.56 108.08 32.52 107.52 31.56C106.96 30.6 105.72 30.64 104.56 31.32C103.4 32 102.84 33.08 103.4 34ZM102.28 34.6C101.2 32.8 101.92 30.92 103.68 29.88C105.52 28.76 107.6 29.12 108.68 30.92C109.8 32.8 109 34.64 107.32 35.68C105.28 36.88 103.36 36.4 102.28 34.6Z" fill="white"/>
<path d="M107.4 44.48C106.88 43.84 106.44 43.16 106.16 42.4C105.68 41.2 105.64 40.2 105.96 39.36C106.36 38.48 107.08 37.8 108 37.48C110.2 36.6 112.08 37.72 112.96 39.88C113.2 40.52 113.36 41.16 113.36 41.84L112.04 42C112.04 41.44 111.96 40.88 111.72 40.36C111.24 39.12 110.16 38.44 108.72 39C107.36 39.56 106.88 40.72 107.36 41.96C107.44 42.2 107.56 42.44 107.72 42.64L109.12 42.08L108.72 41.04L109.88 40.56L110.84 43.04L107.4 44.48Z" fill="white"/>
<path d="M107.96 48.04L110.8 47.4L114.4 44.28L114.8 46.08L113.28 47.16C112.84 47.48 112.48 47.72 112.08 48V48.04C112.56 48.08 113 48.16 113.52 48.24L115.36 48.56L115.76 50.32L111.2 48.96L108.28 49.64L107.96 48.04Z" fill="white"/>
<path d="M112.2 62C113.04 61.96 114.08 61.92 115.12 61.88V61.84C114.2 61.6 113.2 61.36 112.36 61.08L109.56 60.24V59L112.28 58.2C113.12 57.96 114.12 57.72 115.08 57.52V57.48C114.12 57.48 113.04 57.44 112.12 57.4L109.4 57.32L109.36 55.84L116.48 56.2L116.52 58.36L114.16 59.08C113.36 59.32 112.48 59.56 111.64 59.72V59.76C112.48 59.92 113.4 60.16 114.2 60.4L116.6 61.12L116.64 63.24L109.52 63.72L109.48 62.16L112.2 62Z" fill="white"/>
<path d="M111.6 69.52L113.16 69.32C113.6 69.28 114.16 69.24 114.56 69.2C114.16 69.04 113.64 68.84 113.28 68.64L111.88 67.96L111.6 69.52ZM110.72 67.52L109 66.72L109.28 65.08L115.92 68.44L115.56 70.52L108.16 71.52L108.44 69.8L110.32 69.56L110.72 67.52Z" fill="white"/>
<path d="M108.4 74.96C108.32 75.12 108.24 75.32 108.2 75.48C107.72 76.88 108.16 78.04 109.8 78.6C111.24 79.08 112.2 78.52 112.68 77.2C112.76 76.96 112.84 76.72 112.84 76.48L108.4 74.96ZM114.4 75.28C114.28 76 114.08 76.68 113.84 77.4C113.4 78.68 112.92 79.44 112.2 79.92C111.48 80.4 110.44 80.6 109.24 80.2C108.2 79.92 107.32 79.16 106.88 78.16C106.52 77.24 106.64 76.08 107.08 74.76C107.28 74.16 107.52 73.6 107.76 73.08L114.4 75.28Z" fill="white"/>
<path d="M107.8 83.8L107.52 84.36C107.16 85.08 107.28 85.68 107.84 85.96C108.4 86.24 108.92 86 109.24 85.36C109.36 85.16 109.44 84.92 109.52 84.68L107.8 83.8ZM111.24 83.8C111 84.48 110.72 85.16 110.4 85.76C109.92 86.72 109.44 87.28 108.84 87.56C108.32 87.8 107.72 87.76 107.2 87.48C106.52 87.12 106.12 86.32 106.24 85.56H106.2C105.8 85.92 105.24 85.92 104.6 85.8C103.76 85.64 102.84 85.4 102.56 85.4L103.32 83.92C103.88 83.96 104.48 84.08 105 84.24C105.88 84.48 106.24 84.32 106.56 83.72L106.76 83.28L104.28 82L105 80.6L111.24 83.8Z" fill="white"/>
<path d="M102.12 91.28L103.6 91.8C104 91.96 104.52 92.16 104.92 92.32V92.28C104.64 91.96 104.28 91.56 104 91.24L103.04 90L102.12 91.28ZM102.2 89.08L101 87.6L101.96 86.24L106.44 92.2L105.2 93.88L98.12 91.52L99.12 90.12L100.92 90.76L102.2 89.08Z" fill="white"/>
<path d="M98.24 93.88C97.64 94.08 97.12 94.4 96.68 94.84C96.16 95.36 96.12 95.88 96.44 96.2C96.76 96.52 97.16 96.44 98 96.04C99.12 95.48 100.16 95.36 100.88 96.08C101.76 96.92 101.72 98.32 100.56 99.52C100.16 100 99.64 100.36 99.04 100.56L98.36 99.4C98.84 99.24 99.28 98.96 99.64 98.56C100.12 98.04 100.12 97.6 99.8799 97.32C99.5599 97 99.12 97.16 98.24 97.56C97.04 98.16 96.16 98.12 95.44 97.4C94.6 96.56 94.48 95.2 95.84 93.8C96.32 93.28 96.9199 92.92 97.5599 92.64L98.24 93.88Z" fill="white"/>
<path d="M93.5599 102.4C93.5599 103 93.08 103.44 92.52 103.44C91.96 103.44 91.48 102.96 91.48 102.4C91.48 101.8 91.96 101.36 92.52 101.36C93.08 101.36 93.5599 101.8 93.5599 102.4Z" fill="white"/>
<path d="M28.6 102.4C28.6 103 28.12 103.44 27.56 103.44C27 103.44 26.52 102.96 26.52 102.4C26.52 101.8 27 101.36 27.56 101.36C28.12 101.36 28.6 101.8 28.6 102.4Z" fill="white"/>
<path d="M34.84 88.32L51.64 91.32L49.84 93.4L66.36 94.84L64.72 96.2L81 96.92L59.44 99.04L62.16 96.64L45.04 94.88L47.88 92.76L34.84 88.32Z" fill="white"/>
<path d="M32.92 102.96L34.4 103.84C34.4 103.56 34.44 103.32 34.52 103.04C34.6 102.8 34.68 102.52 34.84 102.32C35.04 101.96 35.4 101.72 35.8 101.64C36.24 101.56 36.68 101.64 37.04 101.88C37.6 102.24 38 102.8 38.24 103.44C38.6 104.28 38.8 105.2 38.84 106.08L38.52 106.12C38.48 105.44 38.28 104.76 37.96 104.12C37.68 103.56 37.28 103.12 36.76 102.8C36.48 102.64 36.12 102.6 35.84 102.76C35.48 102.88 35.2 103.16 35 103.48C34.88 103.64 34.8 103.84 34.76 104.04L35.32 104.4L35.44 105.32L34.64 104.84L31.92 109.48L31.4 108.44L33.8 104.32L33.04 103.88L32.92 102.96Z" fill="white"/>
<path d="M36.76 106.8C36.68 107.12 36.56 107.44 36.44 107.72C36.52 107.92 36.64 108.12 36.8 108.28C36.92 108.44 37.04 108.56 37.24 108.64C37.4 108.72 37.6 108.76 37.76 108.76C37.96 108.76 38.16 108.72 38.32 108.64L39.08 107.08L36.84 106C36.84 106.28 36.84 106.52 36.76 106.8ZM36.96 111.36L37.8 109.6C37.72 109.6 37.64 109.6 37.52 109.56C37.4 109.52 37.24 109.48 37.12 109.4C36.88 109.28 36.68 109.08 36.52 108.84C36.32 108.56 36.2 108.28 36.12 107.96C35.92 108.16 35.68 108.32 35.44 108.4C35.24 108.48 35 108.52 34.76 108.52C34.92 109.44 35.28 110.32 35.76 111.12L35.16 111.36C34.28 108.84 33.96 107.32 34.24 106.8C34.28 106.68 34.4 106.56 34.52 106.52C34.64 106.48 34.76 106.48 34.84 106.52C34.96 106.6 35.04 106.68 35.12 106.8C35.2 106.96 35.2 107.12 35.2 107.28C35.64 107.28 36 107.04 36.2 106.68C36.28 106.52 36.32 106.36 36.36 106.2C36.4 106.04 36.4 105.92 36.36 105.76L34.72 104.96L34.56 104.04L40.56 106.96L40.72 107.88L39.88 107.48L37.52 112.32L36.96 111.36Z" fill="white"/>
<path d="M39.96 106.68L41.56 107.32C41.52 107.04 41.52 106.8 41.52 106.52C41.56 106.24 41.6 106 41.68 105.76C41.84 105.4 42.12 105.08 42.52 104.96C42.92 104.8 43.36 104.84 43.76 105C44.36 105.28 44.88 105.76 45.2 106.32C45.68 107.08 46 107.96 46.2 108.84L45.92 108.92C45.76 108.24 45.48 107.6 45.04 107.04C44.68 106.56 44.2 106.16 43.64 105.92C43.32 105.8 43 105.84 42.72 106C42.4 106.2 42.16 106.48 42.04 106.84C41.96 107.04 41.88 107.24 41.88 107.44L42.52 107.68L42.76 108.56L41.92 108.24L39.96 113.28L39.28 112.32L41 107.88L40.2 107.56L39.96 106.68Z" fill="white"/>
<path d="M43.12 113.92C43.2 114.04 43.28 114.12 43.4 114.16C43.68 114.24 43.96 114.24 44.24 114.12C44.56 114 44.84 113.8 45.04 113.56C44.64 113.48 44.28 113.32 43.96 113.04C43.76 113.04 43.56 113.08 43.36 113.2C43.2 113.28 43.08 113.44 43.04 113.6C43.04 113.68 43.08 113.8 43.12 113.92ZM48.2 109.52L48.52 110.4L47.48 110.08L47 111.72L44.72 111.04C44.56 111 44.36 111 44.2 111.12C44.04 111.2 43.92 111.36 43.88 111.56C43.8 111.76 43.84 112 44 112.2C44.16 112.4 44.36 112.56 44.6 112.64L45.32 112.8V112.52C45.36 112.36 45.48 112.24 45.64 112.2C45.84 112.12 46.04 112.12 46.2 112.2C46.4 112.24 46.56 112.4 46.68 112.6C46.76 112.8 46.8 113.04 46.72 113.24C46.68 113.4 46.56 113.52 46.44 113.6C46.28 113.72 46.12 113.76 45.92 113.76L46.84 115.56L46.28 115.76L45.8 114.4C45.52 114.64 45.2 114.8 44.84 114.88C44.52 114.96 44.2 114.96 43.88 114.84C43.48 114.72 43.12 114.48 42.88 114.12C42.56 113.76 42.48 113.44 42.52 113.2C42.56 113.12 42.56 113.04 42.64 112.96C42.68 112.88 42.72 112.84 42.8 112.76C42.44 112.64 42.12 112.4 41.92 112.08C41.72 111.84 41.64 111.52 41.76 111.2C41.8 111.08 41.88 110.96 42 110.84C42.16 110.68 42.32 110.56 42.48 110.44L43.08 111.4C42.96 111.44 42.84 111.52 42.72 111.6C42.64 111.64 42.6 111.72 42.56 111.8C42.52 111.92 42.56 112.04 42.64 112.16C42.72 112.28 42.88 112.36 43.04 112.4L43.6 112.2C43.44 112 43.36 111.76 43.32 111.52C43.28 111.28 43.28 111.04 43.36 110.8C43.44 110.52 43.68 110.28 43.96 110.2C44.28 110.08 44.68 110.08 45 110.2L46.36 110.6L46.6 109.8L42.16 108.48L41.84 107.6L48.2 109.52Z" fill="white"/>
<path d="M48.72 110.76C48.88 110.96 49.08 111.08 49.32 111.12L49.52 110.08C49.56 109.96 49.56 109.88 49.52 109.76C49.48 109.68 49.44 109.6 49.36 109.6C49 109.52 48.64 109.76 48.56 110.12V110.16C48.52 110.4 48.6 110.6 48.72 110.76ZM50.68 109.96L53.64 110.48L54.04 111.32L53.12 111.16L52.16 116.48L51.32 115.68L51.6 114.12L49.84 113.8L49.72 114.4C49.72 114.52 49.64 114.64 49.56 114.72C49.48 114.8 49.4 114.84 49.28 114.8C48.92 114.68 48.6 114.4 48.4 114.04C48.16 113.72 48.04 113.32 48.04 112.88C48.08 112.8 48.12 112.72 48.2 112.68C48.28 112.64 48.4 112.64 48.52 112.64L49 112.72L49.2 111.56C48.76 111.36 48.4 111.08 48.16 110.68C47.92 110.36 47.84 109.96 47.88 109.56C47.92 109.32 48.08 109.12 48.28 109C48.48 108.88 48.76 108.84 49 108.88C49.44 109 49.8 109.28 49.96 109.68C50.24 110.04 50.36 110.48 50.28 110.92L49.92 112.84L51.68 113.16L52.08 110.88L50.96 110.68L50.68 109.96Z" fill="white"/>
<path d="M52.16 107.48C52.4 107.28 52.72 107.2 53 107.24C53.32 107.28 53.6 107.4 53.88 107.6C54.12 107.8 54.32 108.08 54.4 108.4L54.2 108.56C54.12 108.4 54 108.28 53.88 108.2C53.76 108.12 53.64 108.04 53.48 108.04C53.2 108 52.92 108.08 52.72 108.24C52.48 108.4 52.36 108.64 52.32 108.92C52.32 109.08 52.32 109.28 52.4 109.44C52.48 109.64 52.6 109.84 52.72 110.04L52.44 110.2C52.16 109.92 51.96 109.6 51.84 109.2C51.72 108.88 51.68 108.52 51.72 108.16C51.76 107.92 51.92 107.64 52.16 107.48Z" fill="white"/>
<path d="M54.48 114.52C54.64 114.68 54.84 114.76 55.04 114.76C55.36 114.76 55.72 114.72 56 114.6C56.36 114.48 56.72 114.28 57.04 114.04C56.88 113.8 56.64 113.56 56.4 113.4C56.2 113.24 55.96 113.16 55.68 113.12C55.32 113.08 55 113.16 54.72 113.32C54.48 113.44 54.32 113.68 54.28 113.96C54.24 114.2 54.32 114.4 54.48 114.52ZM58.64 110.84L59.12 111.6L58.2 111.52L57.8 116.92L56.88 116.24L56.96 115C56.72 115.16 56.48 115.32 56.2 115.4C55.96 115.48 55.72 115.52 55.44 115.52C54.92 115.44 54.44 115.2 54.12 114.8C53.76 114.48 53.52 114 53.52 113.48C53.56 113.12 53.72 112.8 54.04 112.6C54.36 112.36 54.76 112.24 55.16 112.28C55.56 112.32 55.92 112.44 56.24 112.68C56.6 112.92 56.88 113.24 57.08 113.6L57.24 111.44L53.32 111.16L52.84 110.4L58.64 110.84Z" fill="white"/>
<path d="M58.04 110.8L59.76 110.84C59.64 110.6 59.52 110.36 59.44 110.08C59.36 109.8 59.32 109.56 59.36 109.28C59.36 108.88 59.56 108.48 59.88 108.24C60.2 107.96 60.64 107.84 61.04 107.84C61.72 107.88 62.36 108.16 62.84 108.6C63.56 109.16 64.16 109.84 64.68 110.6L64.44 110.8C64.04 110.2 63.56 109.72 62.96 109.32C62.44 109 61.88 108.8 61.28 108.76C60.96 108.76 60.64 108.92 60.44 109.16C60.2 109.44 60.08 109.8 60.08 110.2C60.08 110.4 60.08 110.6 60.12 110.8H60.8L61.36 111.56H60.44L60.36 116.96L59.4 116.32L59.48 111.52H58.6L58.04 110.8Z" fill="white"/>
<path d="M65.8 110.56L66.4 111.28L65.48 111.36L65.84 116.76L64.84 116.2L64.68 113.52L62.76 113.64C62.6 113.64 62.44 113.76 62.32 113.92C62.2 114.08 62.16 114.28 62.2 114.48C62.24 114.84 62.36 115.2 62.6 115.52C62.88 115.88 63.2 116.24 63.56 116.48L63.2 116.8C62.68 116.36 62.2 115.84 61.76 115.28C61.48 114.92 61.28 114.48 61.2 114.04C61.16 113.72 61.28 113.36 61.48 113.12C61.64 112.88 61.92 112.72 62.24 112.68L64.56 112.52L64.48 111.4L60.64 111.64L60.04 110.92L65.8 110.56Z" fill="white"/>
<path d="M69.64 113.68C69.76 113.76 69.96 113.8 70.08 113.76C70.36 113.72 70.6 113.6 70.8 113.4C71.04 113.2 71.24 112.96 71.36 112.68C71.24 112.52 71.04 112.4 70.88 112.32C70.72 112.24 70.52 112.24 70.36 112.28C70.08 112.32 69.8 112.48 69.6 112.68C69.44 112.84 69.32 113.08 69.36 113.28C69.4 113.44 69.52 113.6 69.64 113.68ZM74.08 109L74.76 109.6L71.88 110.2L72.2 111.84C72.28 111.68 72.4 111.56 72.56 111.44C72.72 111.32 72.88 111.28 73.04 111.24C73.36 111.16 73.76 111.36 74.2 111.76C74.6 112.12 74.88 112.56 75 113.08C75.04 113.32 75.04 113.56 75 113.8C74.96 114.08 74.88 114.36 74.76 114.64L73.84 114.08C74 113.84 74.16 113.56 74.24 113.28C74.32 113.04 74.32 112.8 74.28 112.56C74.24 112.36 74.12 112.2 74 112.08C73.84 111.96 73.68 111.92 73.48 111.96C73.28 112 73.12 112.12 72.96 112.28C72.76 112.48 72.6 112.68 72.48 112.92L73 115.52L71.92 115.12L71.64 113.8C71.52 113.96 71.4 114.08 71.24 114.2C71.08 114.32 70.88 114.4 70.72 114.4C70.28 114.44 69.84 114.32 69.52 114C69.12 113.72 68.84 113.32 68.72 112.88C68.68 112.6 68.72 112.28 68.92 112.08C69.12 111.84 69.4 111.68 69.72 111.6C70 111.56 70.28 111.6 70.52 111.68C70.8 111.8 71.08 112 71.32 112.2L70.96 110.4L67.96 111L67.28 110.4L74.08 109Z" fill="white"/>
<path d="M76.72 111.24L78.48 110.64L77.72 108.44L75.96 109.04L76.72 111.24ZM78.76 107.32L79.52 107.84L78.64 108.12L80.4 113.24L79.28 112.96L78.8 111.6L77.04 112.2L77.24 112.8C77.28 112.92 77.28 113.04 77.24 113.16C77.2 113.24 77.12 113.32 77.04 113.36C76.64 113.44 76.2 113.36 75.88 113.12C75.48 112.96 75.16 112.64 75 112.28C74.96 112.2 75 112.08 75.04 112C75.08 111.92 75.2 111.84 75.28 111.8L75.8 111.6L75.04 109.4L73.8 109.8L73.04 109.28L78.76 107.32Z" fill="white"/>
<path d="M76.04 105.4C76.16 105.12 76.4 104.92 76.68 104.8C76.96 104.68 77.32 104.64 77.64 104.72C77.96 104.76 78.24 104.92 78.48 105.16L78.4 105.4C78.24 105.32 78.08 105.28 77.92 105.24C77.76 105.24 77.64 105.24 77.48 105.28C77.24 105.36 77 105.6 76.92 105.84C76.8 106.08 76.8 106.4 76.92 106.64C77 106.8 77.12 106.92 77.24 107.04C77.4 107.2 77.6 107.32 77.84 107.4L77.68 107.68C77.32 107.56 76.96 107.36 76.68 107.12C76.4 106.88 76.2 106.6 76.08 106.28C75.92 105.96 75.92 105.64 76.04 105.4Z" fill="white"/>
<path d="M84.24 104.8L85.04 105.24L84.2 105.64L86.52 110.52L85.36 110.4L84.28 108.04L82.72 108.76C83.04 108.84 83.36 109 83.6 109.16C83.84 109.32 84.04 109.56 84.16 109.8C84.28 110.08 84.28 110.36 84.2 110.64C84.08 110.92 83.88 111.16 83.6 111.28C83.12 111.52 82.52 111.44 81.8 111.12C81 110.72 80.32 110.16 79.76 109.44L80.04 109.16C80.44 109.64 80.96 110.04 81.52 110.32C81.92 110.56 82.4 110.6 82.84 110.44C83 110.36 83.12 110.24 83.16 110.08C83.2 109.92 83.2 109.72 83.12 109.56C82.96 109.24 82.68 109 82.36 108.88C81.92 108.68 81.48 108.52 81 108.44L83.88 107.08L83.36 105.96L78.8 108.12L78 107.68L84.24 104.8Z" fill="white"/>
<path d="M85.96 103.68L86.8 104.04L86 104.48L88.68 109.16L87.52 109.12L85.12 104.96L84.36 105.4L83.52 105.04L85.96 103.68Z" fill="white"/>
<path d="M27.16 67.24C27.16 68.8 30.76 69.6 31.72 69.84C35.8 70.84 39.96 71.44 44.16 71.68C48 71.96 52.72 71.32 56.4 70.36C54.24 67.48 52.12 64.56 50.6 61.28C36.88 62.12 27.16 64.88 27.16 67.24ZM69.44 61.2C67.92 64.48 65.84 67.4 63.64 70.28C67.32 71.24 72.04 71.88 75.88 71.6C80.04 71.36 84.2 70.76 88.28 69.76C89.24 69.52 92.84 68.72 92.84 67.16C92.88 64.88 83.16 62.12 69.44 61.2Z" fill="white"/>
<path d="M56.4 70.28C54.24 67.4 52.16 64.44 50.64 61.16C50.52 60.92 50.4 60.68 50.28 60.4C49.52 58.64 48.96 56.84 48.56 55C46.96 47 49.48 38.92 53.92 32.28C56.48 28.4 59.24 24.44 59.96 19.76H60.12C60.84 24.48 63.56 28.4 66.16 32.28C70.56 38.92 73.08 47 71.52 55C71.12 56.84 70.56 58.68 69.8 60.4C69.68 60.64 69.56 60.88 69.44 61.16C67.92 64.44 65.84 67.36 63.64 70.24C62.4 69.92 61.2 69.52 60.04 69.08C58.88 69.56 57.68 69.96 56.44 70.24C56.48 70.28 56.36 70.32 56.4 70.28Z" fill="white"/>
<path d="M56.4 70.32C52.72 71.28 48 71.92 44.16 71.64C40 71.4 35.84 70.8 31.76 69.8C30.92 69.56 27.84 68.92 27.28 67.64C30.4 79.16 43.92 87.8 60.08 87.8C76.24 87.8 89.72 79.16 92.88 67.64H92.84C92.24 68.88 89.24 69.56 88.4 69.76C84.32 70.76 80.16 71.36 76 71.6C72.16 71.88 67.44 71.24 63.76 70.28C62.52 69.96 61.32 69.56 60.16 69.12C59 69.6 57.8 70 56.56 70.28C56.56 70.28 56.48 70.32 56.44 70.28L56.4 70.32Z" fill="#670C09"/>
<path d="M60.64 60.64C60.4 60.84 60.2 61.12 60.16 61.44H60.12C60.04 61.12 59.84 60.84 59.56 60.6V69.2H59.88L60.08 69.12L60.32 69.2H60.64V60.64Z" fill="#D19E42"/>
<path d="M60.24 54.48H60C58.8 54.52 57.8 55.36 57.56 56.52C57.2 58.08 57.92 59.04 58.96 60.04C59.24 60.32 60.08 60.96 60.08 61.4H60.12C60.12 60.96 60.96 60.28 61.24 60.04C62.28 59.04 63 58.04 62.64 56.52C62.44 55.36 61.44 54.52 60.24 54.48Z" fill="#D4140C"/>
<path d="M57.56 56.52C57.72 55.76 58.2 55.08 58.92 54.72L59 54.56C59 54.56 56.04 52.16 52.36 55.04C52.52 54.96 53.96 56.2 54.16 56.32C55.08 57 56.24 57.28 57.36 57.08L57.44 56.92C57.48 56.84 57.52 56.68 57.56 56.52Z" fill="#D4140C"/>
<path d="M61.04 54.56L61.08 54.6C61.88 54.92 62.52 55.64 62.68 56.48C62.72 56.68 62.76 56.88 62.76 57.08C63.84 57.24 64.96 56.96 65.84 56.28C66.04 56.16 67.44 54.92 67.64 55C63.96 52.2 61.04 54.56 61.04 54.56Z" fill="#D4140C"/>
<path d="M59.96 37.72C59.96 37.72 52.4 49.28 59.04 54.36H60.88C67.52 49.24 59.96 37.72 59.96 37.72Z" fill="#D4140C"/>
<path d="M58.32 40.72L55.16 37.92C55.44 38.16 55.32 39.8 55.32 40.16C55.32 41.04 55.28 41.92 55.2 42.8C55.08 43.96 54.84 45.12 54.64 46.24C54.28 48.08 54.64 49.96 55.56 51.56C56.4 52.76 57.6 53.68 58.96 54.24C54.56 50.84 56.56 44.48 58.32 40.72Z" fill="#D4140C"/>
<path d="M65.32 46.28C65.12 45.12 64.88 44 64.76 42.84C64.68 41.96 64.64 41.08 64.64 40.2C64.64 39.84 64.52 38.2 64.8 37.96L61.6 40.8C63.36 44.56 65.32 50.92 60.88 54.36C62.28 53.8 63.48 52.84 64.36 51.64C65.32 50 65.68 48.12 65.32 46.28Z" fill="#D4140C"/>
<path d="M61.36 54.12L61.52 54.24C62.8 53.56 64.36 53.44 65.72 54L65.84 53.96C65.84 53.96 66.48 52.16 67.6 52.16C66.52 51.68 65.28 51.56 64.16 51.92C63.4 52.84 62.44 53.6 61.36 54.12Z" fill="#D4140C"/>
<path d="M58.44 54.24L58.52 54.2L58.48 54.08C57.44 53.56 56.52 52.84 55.8 51.92C54.64 51.6 53.4 51.68 52.32 52.16C53.44 52.16 54.08 53.96 54.08 53.96L54.24 54.04C55.6 53.48 57.16 53.56 58.44 54.24Z" fill="#D4140C"/>
<path d="M58.28 40.76C58.6 40.04 58.92 39.44 59.2 38.92L57.88 37.12L56.84 39.36V39.44L58.28 40.76Z" fill="#D4140C"/>
<path d="M61.6 40.76L63.16 39.4L62.16 37.16L60.84 39V39.2C61.08 39.64 61.36 40.2 61.6 40.76Z" fill="#D4140C"/>
<path d="M93.48 67.52L93.5999 67H93.48C93.08 63.84 81.8 61.44 70.36 60.6C71.12 58.84 71.68 57 72.08 55.12C73.56 47.68 71.64 39.44 66.64 31.92L66.28 31.4C63.84 27.76 61.36 24 60.72 19.64L60.64 19.12H59.4L59.32 19.64C58.68 24 56.16 27.76 53.76 31.4L53.4 31.92C48.4 39.4 46.48 47.64 47.96 55.12C48.36 57 48.92 58.84 49.68 60.64C38 61.48 26.48 63.96 26.48 67.2C26.48 67.4 26.52 67.6 26.6 67.8C29.88 79.76 43.92 88.44 60 88.44C76.08 88.44 90.12 79.76 93.4 67.8L93.48 67.52ZM92.2799 67.2C92.2799 67.24 92.28 67.28 92.24 67.36V67.4C92.16 67.52 92.0799 67.64 91.9599 67.72C91.5999 68.04 90.76 68.48 89.08 68.96L88.9599 69L88.44 69.12L88.2 69.16C84.72 70.04 80.8 70.64 75.88 70.96C75.52 71 75.12 71 74.72 71H73.24C72.84 71 72.44 70.96 72.04 70.96H71.84C71.44 70.92 71.04 70.92 70.6 70.88H70.44C70 70.84 69.6 70.8 69.16 70.72L69 70.68C68.56 70.64 68.12 70.56 67.68 70.48H67.6C67.12 70.4 66.68 70.32 66.2 70.24C65.76 70.16 65.28 70.04 64.84 69.96H64.76L64.88 69.8L65.2 69.4C65.36 69.2 65.52 68.96 65.68 68.76C65.8 68.6 65.88 68.48 66 68.32L66.44 67.68L66.76 67.24L67.2 66.56L67.48 66.16C67.64 65.88 67.84 65.6 68 65.32C68.04 65.24 68.12 65.16 68.16 65.08C68.4 64.72 68.6 64.36 68.8 63.96C68.84 63.88 68.88 63.8 68.96 63.72C69.12 63.44 69.28 63.16 69.44 62.84C69.52 62.72 69.56 62.56 69.64 62.44C69.72 62.32 69.84 62.08 69.92 61.88C84.76 62.88 92.2799 65.8 92.2799 67.2ZM54.48 32.64L54.84 32.12C56.88 29.04 59 25.88 60.08 22.28C61.16 25.88 63.24 29.04 65.32 32.12L65.68 32.64C70.48 39.84 72.36 47.76 70.96 54.88C70.6 56.68 70.04 58.48 69.32 60.16C69.28 60.32 69.2 60.44 69.12 60.6L68.96 60.92C68.76 61.32 68.6 61.72 68.4 62.08L68.2 62.48C68.08 62.72 67.92 62.96 67.8 63.24L67.52 63.72C67.4 63.96 67.28 64.16 67.12 64.36L66.8 64.84C66.68 65.04 66.56 65.24 66.4 65.44C66.24 65.64 66.16 65.8 66.04 65.96C65.92 66.12 65.8 66.36 65.64 66.52C65.48 66.68 65.4 66.88 65.28 67.04C65.16 67.2 65.04 67.4 64.88 67.6L64.48 68.16L64.08 68.68L63.68 69.24L63.44 69.56H63.4L62.64 69.36L62.52 69.32C62.28 69.24 62.04 69.16 61.8 69.08L61.68 69.04L61.28 68.88V60.92C61.36 60.84 61.48 60.76 61.52 60.68L61.68 60.52C62.44 59.76 63.16 58.96 63.32 57.84H63.4C64.4 57.84 65.4 57.52 66.2 56.88C66.24 56.84 66.36 56.76 66.52 56.64C66.76 56.44 67.48 55.88 67.72 55.72C68.08 55.68 68.28 55.36 68.24 55C68.2 54.84 68.12 54.72 68 54.6C67.56 54.28 67.12 53.96 66.64 53.72C66.88 53.28 67.24 52.8 67.6 52.8C67.96 52.8 68.24 52.52 68.24 52.16C68.24 51.92 68.12 51.72 67.92 51.6C67.12 51.24 66.24 51.04 65.36 51.08C66.04 49.52 66.24 47.84 65.92 46.16C65.84 45.76 65.8 45.36 65.72 45C65.56 44.24 65.44 43.48 65.36 42.76C65.28 41.92 65.24 41.04 65.24 40.16V39.8C65.2 39.28 65.24 38.8 65.28 38.28C65.48 38 65.44 37.64 65.2 37.4C64.96 37.2 64.6 37.2 64.36 37.44L63.36 38.32L62.24 35.88L60.8 37.88C60.64 37.6 60.52 37.44 60.48 37.36C60.44 37.28 60.36 37.2 60.28 37.12C60.2 37.04 60.08 37.04 59.96 37.04C59.84 37.04 59.72 37.08 59.6 37.12C59.52 37.16 59.44 37.24 59.4 37.36L59.16 37.76L57.8 35.88L56.64 38.4L55.56 37.44C55.32 37.2 54.92 37.2 54.68 37.48C54.48 37.72 54.44 38.04 54.64 38.32C54.72 38.84 54.72 39.32 54.68 39.84V40.2C54.68 41.08 54.64 41.92 54.56 42.8C54.48 43.56 54.36 44.28 54.2 45.04C54.12 45.44 54.04 45.84 54 46.24C53.72 47.88 53.92 49.6 54.56 51.16C53.68 51.12 52.8 51.28 52 51.68C51.68 51.84 51.56 52.2 51.72 52.52C51.84 52.72 52.04 52.84 52.28 52.84C52.64 52.84 53.04 53.36 53.28 53.8C52.84 54.04 52.4 54.32 52 54.64C51.72 54.84 51.68 55.24 51.88 55.52C51.96 55.64 52.12 55.72 52.28 55.76C52.52 55.92 53.24 56.48 53.48 56.68C53.64 56.8 53.76 56.92 53.8 56.92C54.6 57.52 55.6 57.88 56.6 57.88H56.88C57.04 59 57.76 59.84 58.52 60.6L58.88 60.96V68.96L58.76 69C58.6 69.04 58.44 69.12 58.24 69.16L57.88 69.28C57.72 69.32 57.56 69.4 57.4 69.44L56.96 69.56L56.6 69.64C54.72 67.12 52.64 64.2 51.16 61L51.04 60.76C50.96 60.6 50.88 60.4 50.8 60.24C50.08 58.56 49.52 56.76 49.12 54.96C47.8 47.76 49.64 39.88 54.48 32.64ZM56.92 56.56C56.08 56.64 55.24 56.36 54.56 55.84L54.32 55.64C54.04 55.4 53.8 55.2 53.56 55.04C53.84 54.88 54.12 54.72 54.44 54.6H54.48C55.6 54.16 56.84 54.2 57.92 54.68C57.68 54.92 57.48 55.16 57.32 55.44C57.24 55.56 57.16 55.72 57.12 55.88V55.92C57.08 56.08 57 56.24 56.96 56.4C56.92 56.44 56.92 56.52 56.92 56.56ZM53.88 52.36C54.4 52.32 54.92 52.32 55.44 52.44C55.52 52.52 55.6 52.64 55.68 52.72C55.76 52.84 55.88 52.92 55.96 53H55.56L55.24 53.04C54.96 53.08 54.72 53.12 54.48 53.2C54.32 52.92 54.12 52.64 53.88 52.36ZM57.64 39.28L58.04 38.4L58.48 39C58.36 39.24 58.24 39.48 58.12 39.72L57.76 39.4L57.64 39.28ZM60.44 39.76C60.44 39.8 60.48 39.84 60.48 39.84C61.28 41.4 61.96 43 62.44 44.68C62.44 44.68 62.44 44.72 62.48 44.76L62.6 45.2L62.68 45.6C62.68 45.64 62.68 45.68 62.72 45.68C62.76 45.8 62.76 45.96 62.8 46.08V46.12C63.12 47.88 63.12 49.72 62.48 51.28C62.44 51.4 62.36 51.52 62.32 51.68C62.12 52.04 61.92 52.4 61.68 52.72L61.6 52.8C61.52 52.88 61.48 52.96 61.4 53.04L61.28 53.2L61.08 53.4C61.04 53.44 60.96 53.48 60.92 53.56L60.76 53.68H59.36L59.12 53.48L59.04 53.44L58.68 53.08C58.6 53 58.52 52.88 58.44 52.76V52.8C58.08 52.36 57.8 51.84 57.56 51.32C57.52 51.2 57.44 51.04 57.4 50.92C57.2 50.24 57.08 49.56 57.04 48.84V47.8C57.04 47.64 57.04 47.48 57.08 47.32L57.12 46.96V46.84C57.12 46.72 57.16 46.56 57.16 46.44V46.36C57.52 44.48 58.12 42.68 58.96 40.96L59.16 40.6L59.12 40.56C59.44 39.88 59.76 39.32 60 38.92C60.08 39.16 60.24 39.44 60.44 39.76ZM64.16 42.92C64.24 43.72 64.4 44.52 64.52 45.28C64.6 45.68 64.64 46.04 64.72 46.44C65.04 48.12 64.72 49.84 63.88 51.32L63.84 51.4C65 47.96 63.72 43.84 62.44 40.96L64.08 39.52V40.24C64 41.08 64.04 42 64.16 42.92ZM63.32 56.56C63.32 56.52 63.28 56.44 63.28 56.4C63.24 56.24 63.2 56.08 63.12 55.92V55.88C63.08 55.76 63 55.6 62.92 55.48L62.88 55.44C62.8 55.32 62.72 55.2 62.64 55.08L62.6 55C62.52 54.88 62.4 54.8 62.32 54.68L62.28 54.64C62.36 54.6 62.4 54.6 62.48 54.56L62.6 54.52L62.68 54.48C63.6 54.2 64.56 54.24 65.48 54.56L65.56 54.6C65.92 54.72 66.24 54.88 66.56 55.08C66.36 55.24 66.12 55.44 65.8 55.68C65.68 55.76 65.6 55.84 65.56 55.88C64.88 56.36 64.08 56.6 63.32 56.56ZM65.48 53.28C65.36 53.24 65.24 53.2 65.12 53.2L64.92 53.16H64.84C64.56 53.12 64.32 53.08 64.04 53.08C64.12 53 64.2 52.88 64.32 52.8C64.4 52.72 64.48 52.6 64.56 52.52C65.04 52.4 65.56 52.36 66.04 52.44C65.8 52.68 65.64 52.96 65.48 53.28ZM61.84 39.76C61.72 39.52 61.6 39.32 61.52 39.12L62.04 38.4L62.44 39.24L61.84 39.76ZM57.56 40.88C56.28 43.72 55 47.84 56.12 51.24C55.04 49.56 55.08 47.68 55.28 46.36C55.32 45.96 55.4 45.6 55.48 45.2C55.6 44.44 55.76 43.68 55.84 42.88C55.92 41.96 55.96 41.08 55.96 40.16V39.44L56.28 39.72L57.56 40.88ZM58.12 57.04V57C58.12 56.88 58.16 56.8 58.16 56.68C58.2 56.6 58.2 56.48 58.24 56.4C58.24 56.36 58.28 56.36 58.28 56.32C58.32 56.24 58.36 56.16 58.4 56.08L58.44 56C58.48 55.96 58.52 55.88 58.56 55.84C58.6 55.8 58.64 55.76 58.64 55.72C58.64 55.68 58.68 55.68 58.72 55.64C58.84 55.52 59 55.4 59.2 55.28C59.44 55.16 59.72 55.08 60 55.08H60.24C60.56 55.08 60.88 55.16 61.12 55.32C61.2 55.36 61.28 55.44 61.36 55.48C61.52 55.6 61.64 55.76 61.76 55.96V56C61.8 56.08 61.84 56.16 61.88 56.24C61.88 56.28 61.92 56.28 61.92 56.32C61.96 56.4 62 56.52 62 56.64C62.04 56.8 62.04 56.96 62.08 57.16C62.08 57.92 61.76 58.64 61.2 59.16V59.12L60.12 60.2L60.08 60.28L58.88 59.08V59.12C58.36 58.56 58.04 57.84 58.12 57.04ZM50.24 61.84C51.64 64.72 53.44 67.32 55.36 69.88L55.28 69.92C54.84 70.04 54.4 70.12 53.92 70.2C53.48 70.28 53 70.36 52.52 70.44H52.44C52 70.52 51.56 70.6 51.12 70.64L50.96 70.68C50.52 70.72 50.08 70.8 49.68 70.84H49.52C49.12 70.88 48.68 70.92 48.28 70.92H48.04C47.64 70.96 47.24 70.96 46.84 70.96H45.4C45 70.96 44.6 70.92 44.2 70.92C40.04 70.72 35.92 70.12 31.88 69.16L31.68 69.12C31.48 69.08 31.28 69.04 31.08 68.96H31C29.12 68.44 28.32 67.96 28 67.64L27.96 67.6C27.92 67.52 27.84 67.48 27.8 67.4C27.76 67.36 27.76 67.28 27.76 67.24C27.76 65.84 35.28 62.88 50.24 61.84ZM60.04 87.2C45.4 87.2 32.56 79.84 28.52 69.44L28.64 69.48C29.52 69.84 30.44 70.16 31.36 70.36L31.56 70.4C35.12 71.32 39.08 71.88 44.08 72.24C44.36 72.24 44.64 72.28 44.92 72.28H47.4C47.8 72.28 48.16 72.24 48.56 72.2L49.76 72.08H49.96C50.36 72.04 50.76 72 51.16 71.92L51.36 71.88C52.16 71.76 53 71.64 53.8 71.48L54 71.44C54.4 71.36 54.76 71.28 55.16 71.2L55.4 71.16C55.8 71.08 56.2 70.96 56.6 70.88L56.68 70.84H56.76L57.52 70.64C58.4 70.4 59.24 70.12 60.08 69.8H60.12L60.16 69.76H60.24C61.04 70.08 61.84 70.32 62.68 70.56L63.56 70.8L63.96 70.92C64.2 71 64.48 71.04 64.76 71.12L65 71.16C65.4 71.24 65.76 71.32 66.16 71.4L66.36 71.44C66.76 71.52 67.16 71.6 67.56 71.64C67.96 71.72 68.36 71.76 68.76 71.8L68.96 71.84C69.36 71.88 69.72 71.92 70.12 72H70.32C70.72 72.04 71.12 72.08 71.48 72.08H71.52C71.92 72.12 72.28 72.12 72.68 72.12H72.88C73.24 72.12 73.6 72.16 73.96 72.16H75.08C75.36 72.16 75.64 72.12 75.92 72.12C80.16 71.88 84.32 71.28 88.44 70.28L88.64 70.24C89.6 70.04 90.52 69.72 91.44 69.36L91.5599 69.32C87.5599 79.8 74.68 87.2 60.04 87.2Z" fill="#1F1917"/>
</svg>
