<svg width="314" height="116" viewBox="0 0 314 116" fill="none" xmlns="http://www.w3.org/2000/svg">
<path d="M116 58C116 90.016 90.016 116 58 116C25.984 116 0 90.016 0 58C0 25.984 25.984 0 58 0H58.0387C90.0547 0 116.039 25.984 116 58Z" fill="#670C09"/>
<path d="M102.776 58C102.776 82.708 82.708 102.737 58 102.737C33.292 102.737 13.2627 82.6693 13.2627 57.9613C13.3014 33.2533 33.3307 13.224 58.0387 13.224C82.7467 13.224 102.776 33.292 102.776 58Z" fill="#D19E42"/>
<path d="M58.0387 103.356C32.9827 103.356 12.6827 83.056 12.6827 58.0387C12.6827 33.0213 32.9827 12.6827 58 12.6827C83.0173 12.6827 103.356 32.9827 103.356 58V58.0387C103.356 83.0173 83.056 103.317 58.0387 103.356ZM58.0387 13.8427C33.64 13.8427 13.8814 33.6013 13.8814 57.9613C13.8814 82.3213 33.64 102.119 58 102.119C82.36 102.119 102.157 82.3987 102.157 58C102.157 33.6013 82.3987 13.8813 58.0387 13.8427Z" fill="white"/>
<path d="M19.256 96.512L24.0507 91.6013L25.172 92.684L20.3773 97.5947L19.256 96.512Z" fill="white"/>
<path d="M22.6587 90.2093L17.3227 94.54L16.1627 93.148L17.2067 90.4413C17.516 89.6293 17.9027 88.856 18.328 88.0827C17.632 88.74 16.936 89.3973 16.1627 89.9773L14.616 91.2533L13.7267 90.132L19.0627 85.8013L20.1067 87.0773L18.9467 89.9C18.5987 90.7507 18.2507 91.5627 17.8253 92.336L17.864 92.3747C18.56 91.756 19.2947 91.1373 20.1453 90.4027L21.7693 89.088L22.6587 90.2093Z" fill="white"/>
<path d="M16.2014 83.404C16.124 83.2493 16.0467 83.056 15.9694 82.94C15.2734 81.7027 14.152 81.2773 12.7214 82.0893C11.4454 82.824 11.252 83.9067 11.9094 85.0667C12.0254 85.26 12.1414 85.4533 12.296 85.6467L16.2014 83.404ZM12.1027 87.5413C11.6774 87 11.2907 86.42 10.9427 85.8013C10.2854 84.6413 10.0534 83.7907 10.1694 82.9787C10.2854 82.0893 10.788 81.2773 11.8707 80.6587C12.76 80.0787 13.8427 79.9627 14.848 80.272C15.7374 80.62 16.5494 81.432 17.2067 82.592C17.516 83.0947 17.748 83.636 17.98 84.1773L12.1027 87.5413Z" fill="white"/>
<path d="M7.38532 78.6093L13.7267 75.9027L14.3453 77.3333L8.00399 80.04L7.38532 78.6093Z" fill="white"/>
<path d="M9.20268 71.7267L7.92668 72.5387C7.57868 72.7707 7.11468 73.0413 6.76669 73.2347V73.2733C7.19202 73.2347 7.73335 73.196 8.12002 73.196H9.62802L9.20268 71.7267ZM10.8267 73.0413L12.644 73.0027L13.108 74.5493L5.91602 74.472L5.33602 72.5387L11.3294 68.5173L11.7934 70.1413L10.2467 71.1467L10.8267 73.0413Z" fill="white"/>
<path d="M11.0586 67.048L4.25331 67.9373L4.02131 66.12L6.34131 64.38C7.03731 63.8773 7.77198 63.3747 8.54531 62.9493V62.9107C7.61731 63.1427 6.65065 63.2973 5.72265 63.4133L3.75065 63.684L3.55731 62.2533L10.4013 61.364L10.5946 62.988L8.15865 64.8053C7.42398 65.3467 6.68931 65.8493 5.91598 66.2747V66.3133C6.80531 66.1587 7.77198 66.004 8.89331 65.8493L10.9426 65.5787L11.0586 67.048Z" fill="white"/>
<path d="M3.48002 54.9067L10.3627 55.1773L10.2854 56.724L3.40269 56.4533L3.48002 54.9067Z" fill="white"/>
<path d="M10.44 53.2053L3.63468 52.1227L3.90534 50.344L6.61201 49.3387C7.42401 49.0293 8.27468 48.7973 9.12534 48.604C8.19734 48.5653 7.26934 48.4493 6.26401 48.256L4.29201 47.908L4.52401 46.4773L11.3293 47.56L11.0587 49.184L8.19734 50.228C7.34668 50.5373 6.49601 50.808 5.60668 51.04V51.0787C6.53468 51.156 7.50134 51.3107 8.58401 51.504L10.6333 51.852L10.44 53.2053Z" fill="white"/>
<path d="M10.324 45.1627C10.7493 44.7373 11.0587 44.196 11.252 43.6547C11.4453 42.9587 11.2907 42.5333 10.8653 42.3787C10.44 42.224 10.1307 42.4947 9.58934 43.1907C8.85467 44.1573 8.04267 44.6987 7.07601 44.3893C5.95467 44.0413 5.41334 42.8427 5.87734 41.296C6.03201 40.716 6.34134 40.1747 6.72801 39.7107L7.81068 40.4067C7.46268 40.7547 7.23067 41.18 7.07601 41.6827C6.88267 42.34 7.07601 42.7267 7.42401 42.8427C7.84934 42.9587 8.15867 42.688 8.73867 41.9147C9.51201 40.8707 10.2853 40.5227 11.252 40.832C12.3733 41.18 13.0307 42.3013 12.4507 44.1187C12.2573 44.776 11.9093 45.356 11.4453 45.8587L10.324 45.1627Z" fill="white"/>
<path d="M9.28001 36.3467L8.50668 38.048L7.30801 37.468L9.55068 32.6733L10.7493 33.2147L9.97601 34.916L15.0413 37.236L14.3453 38.6667L9.28001 36.3467Z" fill="white"/>
<path d="M11.4067 29.464L17.3227 32.9827L16.5493 34.2973L10.5947 30.7787L11.4067 29.464Z" fill="white"/>
<path d="M14.6933 26.912L13.572 28.3813L12.528 27.608L15.66 23.3547L16.704 24.128L15.5827 25.636L20.068 28.9613L19.14 30.1987L14.6933 26.912Z" fill="white"/>
<path d="M18.328 20.416L21.1507 23.2C22.0013 24.0507 22.736 24.128 23.316 23.5867C23.896 23.0453 23.78 22.272 22.9293 21.4213L20.1067 18.6373L21.1893 17.516L23.9347 20.2227C25.4427 21.7307 25.404 23.2 24.128 24.476C22.852 25.752 21.4987 25.752 19.952 24.2053L17.2453 21.4987L18.328 20.416Z" fill="white"/>
<path d="M25.3266 15.8533L23.8573 16.9747L23.084 15.9307L27.26 12.76L28.0333 13.804L26.5253 14.9253L29.8893 19.372L28.652 20.3L25.3266 15.8533Z" fill="white"/>
<path d="M34.7613 12.9147L32.5573 14.152L33.3693 15.5827L35.844 14.1907L36.4626 15.312L32.6733 17.4773L29.2706 11.484L32.944 9.396L33.5626 10.5173L31.2426 11.832L31.9386 13.0693L34.1426 11.832L34.7613 12.9147Z" fill="white"/>
<path d="M42.92 11.484C43.9253 11.1747 44.196 10.0147 43.7706 8.73867C43.384 7.57867 42.4946 6.728 41.4893 7.076C40.484 7.424 40.2133 8.584 40.6 9.82133C40.9866 11.0587 41.9146 11.832 42.92 11.484ZM43.2293 12.6827C41.296 13.3013 39.672 12.2187 39.0533 10.3627C38.396 8.39067 39.208 6.53467 41.1413 5.87733C43.152 5.22 44.7373 6.38 45.3173 8.19733C46.0133 10.3627 45.1626 12.1027 43.2293 12.6827Z" fill="white"/>
<path d="M46.9027 4.44667L51.04 3.75067L51.272 4.988L48.6427 5.41333L48.9133 6.96L51.3493 6.53467L51.5427 7.772L49.1067 8.19733L49.5707 10.9427L48.024 11.2133L46.9027 4.44667Z" fill="white"/>
<path d="M58.0773 4.64H56.2213L56.26 3.32533L61.5187 3.40267L61.48 4.71733L59.5853 4.67867L59.508 10.2467L57.9613 10.208L58.0773 4.64Z" fill="white"/>
<path d="M67.3187 8.12L64.8053 7.772L64.5733 9.396L67.3573 9.78267L67.164 11.0587L62.8333 10.44L63.8387 3.63467L68.0533 4.25333L67.86 5.52933L65.192 5.14267L64.9987 6.57333L67.512 6.92133L67.3187 8.12Z" fill="white"/>
<path d="M73.7373 12.6053C73.1573 12.644 72.5386 12.6053 71.9586 12.412C69.6773 11.7547 68.904 9.976 69.4453 8.08133C70.1026 5.8 72.036 5.02667 74.0466 5.60667C74.6266 5.76133 75.1293 6.032 75.5933 6.38L74.936 7.46267C74.588 7.192 74.2013 6.96 73.7373 6.844C72.5773 6.496 71.4173 6.96 71.0306 8.42933C70.644 9.744 71.1853 10.8267 72.5386 11.1747C72.964 11.2907 73.428 11.3293 73.8533 11.3293L73.7373 12.6053Z" fill="white"/>
<path d="M79.4986 7.73333L78.3773 10.1307L80.6973 11.2133L81.8186 8.816L83.2493 9.47333L80.388 15.7373L78.996 15.08L80.1946 12.4507L77.8746 11.368L76.676 13.9973L75.2453 13.34L78.1066 7.076L79.4986 7.73333Z" fill="white"/>
<path d="M82.128 16.6653L85.956 10.9427L87.464 11.948L87.232 14.848C87.1547 15.6987 87.0387 16.588 86.8453 17.4387C87.3093 16.6267 87.7733 15.8533 88.3533 15.0027L89.4747 13.34L90.6733 14.1133L86.8453 19.836L85.492 18.9467L85.724 15.9307C85.8013 15.0413 85.9173 14.152 86.072 13.2627L86.0333 13.224C85.5693 13.9973 85.028 14.848 84.4093 15.776L83.2493 17.516L82.128 16.6653Z" fill="white"/>
<path d="M91.3693 22.272C92.1427 22.968 93.264 22.6587 94.1533 21.692C95.004 20.8027 95.3133 19.604 94.5013 18.8693C93.6893 18.1347 92.568 18.4827 91.6787 19.4493C90.7893 20.416 90.596 21.5373 91.3693 22.272ZM90.48 23.1227C89.0107 21.7307 89.1653 19.7973 90.5187 18.3667C91.9107 16.8587 93.96 16.6267 95.4293 18.0187C96.976 19.4493 96.744 21.4213 95.4293 22.8133C93.8827 24.4373 91.9493 24.476 90.48 23.1227Z" fill="white"/>
<path d="M99.4506 22.3107L100.417 23.5093L96.0866 26.9893L97.7879 29.116L96.7826 29.928L94.1146 26.564L99.4506 22.3107Z" fill="white"/>
<path d="M99.9534 32.8667C100.495 33.756 101.655 33.756 102.815 33.0987C103.859 32.4413 104.477 31.436 103.936 30.508C103.395 29.58 102.196 29.6187 101.075 30.276C99.9534 30.9333 99.412 31.9773 99.9534 32.8667ZM98.8707 33.4467C97.8267 31.7067 98.5227 29.8893 100.224 28.884C102.003 27.8013 104.013 28.1493 105.057 29.8893C106.14 31.7067 105.367 33.4853 103.743 34.4907C101.771 35.6507 99.9147 35.1867 98.8707 33.4467Z" fill="white"/>
<path d="M103.82 42.9973C103.317 42.3787 102.892 41.7213 102.621 40.9867C102.157 39.8267 102.119 38.86 102.428 38.048C102.815 37.1973 103.511 36.54 104.4 36.2307C106.527 35.38 108.344 36.4627 109.195 38.5507C109.427 39.1693 109.581 39.788 109.581 40.4453L108.305 40.6C108.305 40.0587 108.228 39.5173 107.996 39.0147C107.532 37.816 106.488 37.1587 105.096 37.7C103.781 38.2413 103.317 39.3627 103.781 40.5613C103.859 40.7933 103.975 41.0253 104.129 41.2187L105.483 40.6773L105.096 39.672L106.217 39.208L107.145 41.6053L103.82 42.9973Z" fill="white"/>
<path d="M104.361 46.4387L107.107 45.82L110.587 42.804L110.973 44.544L109.504 45.588C109.079 45.8973 108.731 46.1293 108.344 46.4V46.4387C108.808 46.4773 109.233 46.5547 109.736 46.632L111.515 46.9413L111.901 48.6427L107.493 47.328L104.671 47.9853L104.361 46.4387Z" fill="white"/>
<path d="M108.46 59.9333C109.272 59.8947 110.277 59.856 111.283 59.8173V59.7787C110.393 59.5467 109.427 59.3147 108.615 59.044L105.908 58.232V57.0333L108.537 56.26C109.349 56.028 110.316 55.796 111.244 55.6027V55.564C110.316 55.564 109.272 55.5253 108.383 55.4867L105.753 55.4093L105.715 53.9787L112.597 54.3267L112.636 56.4147L110.355 57.1107C109.581 57.3427 108.731 57.5747 107.919 57.7293V57.768C108.731 57.9227 109.62 58.1547 110.393 58.3867L112.713 59.0827L112.752 61.132L105.869 61.596L105.831 60.088L108.46 59.9333Z" fill="white"/>
<path d="M107.88 67.2027L109.388 67.0093C109.813 66.9707 110.355 66.932 110.741 66.8933C110.355 66.7387 109.852 66.5453 109.504 66.352L108.151 65.6947L107.88 67.2027ZM107.029 65.2693L105.367 64.496L105.637 62.9107L112.056 66.1587L111.708 68.1693L104.555 69.136L104.825 67.4733L106.643 67.2413L107.029 65.2693Z" fill="white"/>
<path d="M104.787 72.4613C104.709 72.616 104.632 72.8093 104.593 72.964C104.129 74.3173 104.555 75.4387 106.14 75.98C107.532 76.444 108.46 75.9027 108.924 74.6267C109.001 74.3947 109.079 74.1627 109.079 73.9307L104.787 72.4613ZM110.587 72.7707C110.471 73.4667 110.277 74.124 110.045 74.82C109.62 76.0573 109.156 76.792 108.46 77.256C107.764 77.72 106.759 77.9133 105.599 77.5267C104.593 77.256 103.743 76.5213 103.317 75.5547C102.969 74.6653 103.085 73.544 103.511 72.268C103.704 71.688 103.936 71.1467 104.168 70.644L110.587 72.7707Z" fill="white"/>
<path d="M104.207 81.0067L103.936 81.548C103.588 82.244 103.704 82.824 104.245 83.0947C104.787 83.3653 105.289 83.1333 105.599 82.5147C105.715 82.3213 105.792 82.0893 105.869 81.8573L104.207 81.0067ZM107.532 81.0067C107.3 81.664 107.029 82.3213 106.72 82.9013C106.256 83.8293 105.792 84.3707 105.212 84.6413C104.709 84.8733 104.129 84.8347 103.627 84.564C102.969 84.216 102.583 83.4427 102.699 82.708H102.66C102.273 83.056 101.732 83.056 101.113 82.94C100.301 82.7853 99.412 82.5533 99.1413 82.5533L99.8759 81.1227C100.417 81.1613 100.997 81.2773 101.5 81.432C102.351 81.664 102.699 81.5093 103.008 80.9293L103.201 80.504L100.804 79.2667L101.5 77.9133L107.532 81.0067Z" fill="white"/>
<path d="M98.716 88.2373L100.147 88.74C100.533 88.8947 101.036 89.088 101.423 89.2427V89.204C101.152 88.8947 100.804 88.508 100.533 88.1987L99.6053 87L98.716 88.2373ZM98.7933 86.1107L97.6333 84.68L98.5613 83.3653L102.892 89.1267L101.693 90.7507L94.8493 88.4693L95.816 87.116L97.556 87.7347L98.7933 86.1107Z" fill="white"/>
<path d="M94.9653 90.7507C94.3853 90.944 93.8826 91.2533 93.4573 91.6787C92.9546 92.1813 92.916 92.684 93.2253 92.9933C93.5346 93.3027 93.9213 93.2253 94.7333 92.8387C95.816 92.2973 96.8213 92.1813 97.5173 92.8773C98.368 93.6893 98.3293 95.0427 97.208 96.2027C96.8213 96.6667 96.3186 97.0147 95.7386 97.208L95.0813 96.0867C95.5453 95.932 95.9706 95.6613 96.3186 95.2747C96.7826 94.772 96.7826 94.3467 96.5506 94.076C96.2413 93.7667 95.816 93.9213 94.9653 94.308C93.8053 94.888 92.9546 94.8493 92.2586 94.1533C91.4466 93.3413 91.3306 92.0267 92.6453 90.6733C93.1093 90.1707 93.6893 89.8227 94.308 89.552L94.9653 90.7507Z" fill="white"/>
<path d="M90.4413 98.9867C90.4413 99.5667 89.9773 99.992 89.436 99.992C88.8946 99.992 88.4306 99.528 88.4306 98.9867C88.4306 98.4067 88.8946 97.9813 89.436 97.9813C89.9773 97.9813 90.4413 98.4067 90.4413 98.9867Z" fill="white"/>
<path d="M27.6467 98.9867C27.6467 99.5667 27.1827 99.992 26.6413 99.992C26.1 99.992 25.636 99.528 25.636 98.9867C25.636 98.4067 26.1 97.9813 26.6413 97.9813C27.1827 97.9813 27.6467 98.4067 27.6467 98.9867Z" fill="white"/>
<path d="M33.6787 85.376L49.9187 88.276L48.1787 90.2867L64.148 91.6787L62.5627 92.9933L78.3 93.6893L57.4587 95.7387L60.088 93.4187L43.5387 91.7173L46.284 89.668L33.6787 85.376Z" fill="white"/>
<path d="M31.8227 99.528L33.2533 100.379C33.2533 100.108 33.292 99.876 33.3693 99.6053C33.4467 99.3733 33.524 99.1027 33.6787 98.9093C33.872 98.5613 34.22 98.3293 34.6067 98.252C35.032 98.1747 35.4573 98.252 35.8053 98.484C36.3467 98.832 36.7333 99.3733 36.9653 99.992C37.3133 100.804 37.5067 101.693 37.5453 102.544L37.236 102.583C37.1973 101.925 37.004 101.268 36.6947 100.649C36.424 100.108 36.0373 99.6827 35.5347 99.3733C35.264 99.2187 34.916 99.18 34.6453 99.3347C34.2973 99.4507 34.0267 99.7213 33.8333 100.031C33.7173 100.185 33.64 100.379 33.6013 100.572L34.1427 100.92L34.2587 101.809L33.4853 101.345L30.856 105.831L30.3533 104.825L32.6733 100.843L31.9387 100.417L31.8227 99.528Z" fill="white"/>
<path d="M35.5347 103.24C35.4573 103.549 35.3413 103.859 35.2253 104.129C35.3027 104.323 35.4187 104.516 35.5733 104.671C35.6893 104.825 35.8053 104.941 35.9987 105.019C36.1533 105.096 36.3467 105.135 36.5013 105.135C36.6947 105.135 36.888 105.096 37.0427 105.019L37.7773 103.511L35.612 102.467C35.612 102.737 35.612 102.969 35.5347 103.24ZM35.728 107.648L36.54 105.947C36.4627 105.947 36.3853 105.947 36.2693 105.908C36.1533 105.869 35.9987 105.831 35.8827 105.753C35.6507 105.637 35.4573 105.444 35.3027 105.212C35.1093 104.941 34.9933 104.671 34.916 104.361C34.7227 104.555 34.4907 104.709 34.2587 104.787C34.0653 104.864 33.8333 104.903 33.6013 104.903C33.756 105.792 34.104 106.643 34.568 107.416L33.988 107.648C33.1373 105.212 32.828 103.743 33.0987 103.24C33.1373 103.124 33.2534 103.008 33.3694 102.969C33.4854 102.931 33.6013 102.931 33.6787 102.969C33.7947 103.047 33.872 103.124 33.9493 103.24C34.0267 103.395 34.0267 103.549 34.0267 103.704C34.452 103.704 34.8 103.472 34.9933 103.124C35.0707 102.969 35.1093 102.815 35.148 102.66C35.1867 102.505 35.1867 102.389 35.148 102.235L33.5627 101.461L33.408 100.572L39.208 103.395L39.3627 104.284L38.5507 103.897L36.2693 108.576L35.728 107.648Z" fill="white"/>
<path d="M38.628 103.124L40.1746 103.743C40.136 103.472 40.136 103.24 40.136 102.969C40.1746 102.699 40.2133 102.467 40.2906 102.235C40.4453 101.887 40.716 101.577 41.1026 101.461C41.4893 101.307 41.9146 101.345 42.3013 101.5C42.8813 101.771 43.384 102.235 43.6933 102.776C44.1573 103.511 44.4666 104.361 44.66 105.212L44.3893 105.289C44.2346 104.632 43.964 104.013 43.5386 103.472C43.1906 103.008 42.7266 102.621 42.1853 102.389C41.876 102.273 41.5666 102.312 41.296 102.467C40.9866 102.66 40.7546 102.931 40.6386 103.279C40.5613 103.472 40.484 103.665 40.484 103.859L41.1026 104.091L41.3346 104.941L40.5226 104.632L38.628 109.504L37.9706 108.576L39.6333 104.284L38.86 103.975L38.628 103.124Z" fill="white"/>
<path d="M41.6827 110.123C41.76 110.239 41.8373 110.316 41.9533 110.355C42.224 110.432 42.4947 110.432 42.7653 110.316C43.0747 110.2 43.3453 110.007 43.5387 109.775C43.152 109.697 42.804 109.543 42.4947 109.272C42.3013 109.272 42.108 109.311 41.9147 109.427C41.76 109.504 41.644 109.659 41.6053 109.813C41.6053 109.891 41.644 110.007 41.6827 110.123ZM46.5933 105.869L46.9027 106.72L45.8973 106.411L45.4333 107.996L43.2293 107.339C43.0747 107.3 42.8813 107.3 42.7267 107.416C42.572 107.493 42.456 107.648 42.4173 107.841C42.34 108.035 42.3787 108.267 42.5333 108.46C42.688 108.653 42.8813 108.808 43.1133 108.885L43.8093 109.04V108.769C43.848 108.615 43.964 108.499 44.1187 108.46C44.312 108.383 44.5053 108.383 44.66 108.46C44.8533 108.499 45.008 108.653 45.124 108.847C45.2013 109.04 45.24 109.272 45.1627 109.465C45.124 109.62 45.008 109.736 44.892 109.813C44.7373 109.929 44.5827 109.968 44.3893 109.968L45.2787 111.708L44.7373 111.901L44.2733 110.587C44.0027 110.819 43.6933 110.973 43.3453 111.051C43.036 111.128 42.7267 111.128 42.4173 111.012C42.0307 110.896 41.6827 110.664 41.4507 110.316C41.1413 109.968 41.064 109.659 41.1027 109.427C41.1413 109.349 41.1413 109.272 41.2187 109.195C41.2573 109.117 41.296 109.079 41.3733 109.001C41.0253 108.885 40.716 108.653 40.5227 108.344C40.3293 108.112 40.252 107.803 40.368 107.493C40.4067 107.377 40.484 107.261 40.6 107.145C40.7547 106.991 40.9093 106.875 41.064 106.759L41.644 107.687C41.528 107.725 41.412 107.803 41.296 107.88C41.2187 107.919 41.18 107.996 41.1413 108.073C41.1027 108.189 41.1413 108.305 41.2187 108.421C41.296 108.537 41.4507 108.615 41.6053 108.653L42.1467 108.46C41.992 108.267 41.9147 108.035 41.876 107.803C41.8373 107.571 41.8373 107.339 41.9147 107.107C41.992 106.836 42.224 106.604 42.4947 106.527C42.804 106.411 43.1907 106.411 43.5 106.527L44.8147 106.913L45.0467 106.14L40.7547 104.864L40.4453 104.013L46.5933 105.869Z" fill="white"/>
<path d="M47.096 107.068C47.2507 107.261 47.444 107.377 47.676 107.416L47.8693 106.411C47.908 106.295 47.908 106.217 47.8693 106.101C47.8306 106.024 47.792 105.947 47.7146 105.947C47.3666 105.869 47.0187 106.101 46.9413 106.449V106.488C46.9027 106.72 46.98 106.913 47.096 107.068ZM48.9907 106.295L51.852 106.797L52.2387 107.609L51.3493 107.455L50.4213 112.597L49.6093 111.824L49.88 110.316L48.1787 110.007L48.0627 110.587C48.0627 110.703 47.9853 110.819 47.908 110.896C47.8307 110.973 47.7533 111.012 47.6373 110.973C47.2893 110.857 46.98 110.587 46.7867 110.239C46.5547 109.929 46.4386 109.543 46.4386 109.117C46.4773 109.04 46.516 108.963 46.5933 108.924C46.6706 108.885 46.7867 108.885 46.9027 108.885L47.3666 108.963L47.56 107.841C47.1346 107.648 46.7866 107.377 46.5546 106.991C46.3226 106.681 46.2453 106.295 46.284 105.908C46.3226 105.676 46.4773 105.483 46.6707 105.367C46.864 105.251 47.1346 105.212 47.3666 105.251C47.792 105.367 48.14 105.637 48.2947 106.024C48.5653 106.372 48.6813 106.797 48.604 107.223L48.256 109.079L49.9573 109.388L50.344 107.184L49.2613 106.991L48.9907 106.295Z" fill="white"/>
<path d="M50.4213 103.897C50.6533 103.704 50.9626 103.627 51.2333 103.665C51.5426 103.704 51.8133 103.82 52.084 104.013C52.316 104.207 52.5093 104.477 52.5866 104.787L52.3933 104.941C52.316 104.787 52.2 104.671 52.084 104.593C51.968 104.516 51.852 104.439 51.6973 104.439C51.4266 104.4 51.156 104.477 50.9626 104.632C50.7306 104.787 50.6146 105.019 50.576 105.289C50.576 105.444 50.576 105.637 50.6533 105.792C50.7306 105.985 50.8466 106.179 50.9626 106.372L50.692 106.527C50.4213 106.256 50.228 105.947 50.112 105.56C49.996 105.251 49.9573 104.903 49.996 104.555C50.0346 104.323 50.1893 104.052 50.4213 103.897Z" fill="white"/>
<path d="M52.664 110.703C52.8186 110.857 53.012 110.935 53.2053 110.935C53.5147 110.935 53.8626 110.896 54.1333 110.78C54.4813 110.664 54.8293 110.471 55.1387 110.239C54.984 110.007 54.752 109.775 54.52 109.62C54.3266 109.465 54.0946 109.388 53.824 109.349C53.476 109.311 53.1667 109.388 52.896 109.543C52.664 109.659 52.5093 109.891 52.4706 110.161C52.432 110.393 52.5093 110.587 52.664 110.703ZM56.6853 107.145L57.1493 107.88L56.26 107.803L55.8733 113.023L54.984 112.365L55.0613 111.167C54.8293 111.321 54.5973 111.476 54.3266 111.553C54.0946 111.631 53.8627 111.669 53.592 111.669C53.0893 111.592 52.6253 111.36 52.316 110.973C51.968 110.664 51.736 110.2 51.736 109.697C51.7747 109.349 51.9293 109.04 52.2387 108.847C52.548 108.615 52.9346 108.499 53.3213 108.537C53.708 108.576 54.056 108.692 54.3653 108.924C54.7133 109.156 54.984 109.465 55.1773 109.813L55.332 107.725L51.5427 107.455L51.0787 106.72L56.6853 107.145Z" fill="white"/>
<path d="M56.1053 107.107L57.768 107.145C57.652 106.913 57.536 106.681 57.4587 106.411C57.3813 106.14 57.3426 105.908 57.3813 105.637C57.3813 105.251 57.5746 104.864 57.884 104.632C58.1933 104.361 58.6187 104.245 59.0053 104.245C59.6627 104.284 60.2813 104.555 60.7453 104.98C61.4413 105.521 62.0213 106.179 62.524 106.913L62.292 107.107C61.9053 106.527 61.4413 106.063 60.8613 105.676C60.3586 105.367 59.8173 105.173 59.2373 105.135C58.928 105.135 58.6186 105.289 58.4253 105.521C58.1933 105.792 58.0773 106.14 58.0773 106.527C58.0773 106.72 58.0773 106.913 58.116 107.107H58.7733L59.3146 107.841H58.4253L58.348 113.061L57.42 112.443L57.4973 107.803H56.6466L56.1053 107.107Z" fill="white"/>
<path d="M63.6066 106.875L64.1866 107.571L63.2973 107.648L63.6453 112.868L62.6786 112.327L62.524 109.736L60.668 109.852C60.5133 109.852 60.3586 109.968 60.2426 110.123C60.1266 110.277 60.088 110.471 60.1266 110.664C60.1653 111.012 60.2813 111.36 60.5133 111.669C60.784 112.017 61.0933 112.365 61.4413 112.597L61.0933 112.907C60.5906 112.481 60.1266 111.979 59.7013 111.437C59.4306 111.089 59.2373 110.664 59.16 110.239C59.1213 109.929 59.2373 109.581 59.4306 109.349C59.5853 109.117 59.856 108.963 60.1653 108.924L62.408 108.769L62.3306 107.687L58.6187 107.919L58.0387 107.223L63.6066 106.875Z" fill="white"/>
<path d="M67.3186 109.891C67.4346 109.968 67.628 110.007 67.744 109.968C68.0146 109.929 68.2466 109.813 68.44 109.62C68.672 109.427 68.8653 109.195 68.9813 108.924C68.8653 108.769 68.672 108.653 68.5173 108.576C68.3626 108.499 68.1693 108.499 68.0146 108.537C67.744 108.576 67.4733 108.731 67.28 108.924C67.1253 109.079 67.0093 109.311 67.048 109.504C67.0866 109.659 67.2026 109.813 67.3186 109.891ZM71.6106 105.367L72.268 105.947L69.484 106.527L69.7933 108.112C69.8706 107.957 69.9866 107.841 70.1413 107.725C70.296 107.609 70.4506 107.571 70.6053 107.532C70.9146 107.455 71.3013 107.648 71.7266 108.035C72.1133 108.383 72.384 108.808 72.5 109.311C72.5386 109.543 72.5386 109.775 72.5 110.007C72.4613 110.277 72.384 110.548 72.268 110.819L71.3786 110.277C71.5333 110.045 71.688 109.775 71.7653 109.504C71.8426 109.272 71.8426 109.04 71.804 108.808C71.7653 108.615 71.6493 108.46 71.5333 108.344C71.3786 108.228 71.224 108.189 71.0306 108.228C70.8373 108.267 70.6826 108.383 70.528 108.537C70.3346 108.731 70.18 108.924 70.064 109.156L70.5666 111.669L69.5226 111.283L69.252 110.007C69.136 110.161 69.02 110.277 68.8653 110.393C68.7106 110.509 68.5173 110.587 68.3626 110.587C67.9373 110.625 67.512 110.509 67.2026 110.2C66.816 109.929 66.5453 109.543 66.4293 109.117C66.3906 108.847 66.4293 108.537 66.6226 108.344C66.816 108.112 67.0866 107.957 67.396 107.88C67.6666 107.841 67.9373 107.88 68.1693 107.957C68.44 108.073 68.7106 108.267 68.9426 108.46L68.5946 106.72L65.6946 107.3L65.0373 106.72L71.6106 105.367Z" fill="white"/>
<path d="M74.1627 107.532L75.864 106.952L75.1293 104.825L73.428 105.405L74.1627 107.532ZM76.1346 103.743L76.8693 104.245L76.0186 104.516L77.72 109.465L76.6373 109.195L76.1733 107.88L74.472 108.46L74.6653 109.04C74.704 109.156 74.704 109.272 74.6653 109.388C74.6266 109.465 74.5493 109.543 74.472 109.581C74.0853 109.659 73.66 109.581 73.3506 109.349C72.964 109.195 72.6546 108.885 72.5 108.537C72.4613 108.46 72.5 108.344 72.5387 108.267C72.5773 108.189 72.6933 108.112 72.7706 108.073L73.2733 107.88L72.5387 105.753L71.34 106.14L70.6053 105.637L76.1346 103.743Z" fill="white"/>
<path d="M73.5054 101.887C73.6214 101.616 73.8534 101.423 74.124 101.307C74.3947 101.191 74.7427 101.152 75.052 101.229C75.3614 101.268 75.632 101.423 75.864 101.655L75.7867 101.887C75.632 101.809 75.4774 101.771 75.3227 101.732C75.168 101.732 75.052 101.732 74.8974 101.771C74.6654 101.848 74.4334 102.08 74.356 102.312C74.24 102.544 74.24 102.853 74.356 103.085C74.4334 103.24 74.5494 103.356 74.6654 103.472C74.82 103.627 75.0134 103.743 75.2454 103.82L75.0907 104.091C74.7427 103.975 74.3947 103.781 74.124 103.549C73.8534 103.317 73.66 103.047 73.544 102.737C73.3894 102.428 73.3894 102.119 73.5054 101.887Z" fill="white"/>
<path d="M81.432 101.307L82.2053 101.732L81.3933 102.119L83.636 106.836L82.5147 106.72L81.4707 104.439L79.9627 105.135C80.272 105.212 80.5813 105.367 80.8133 105.521C81.0453 105.676 81.2387 105.908 81.3547 106.14C81.4707 106.411 81.4707 106.681 81.3933 106.952C81.2773 107.223 81.084 107.455 80.8133 107.571C80.3493 107.803 79.7693 107.725 79.0733 107.416C78.3 107.029 77.6427 106.488 77.1013 105.792L77.372 105.521C77.7587 105.985 78.2613 106.372 78.8027 106.643C79.1893 106.875 79.6533 106.913 80.0787 106.759C80.2333 106.681 80.3493 106.565 80.388 106.411C80.4267 106.256 80.4267 106.063 80.3493 105.908C80.1947 105.599 79.924 105.367 79.6147 105.251C79.1893 105.057 78.764 104.903 78.3 104.825L81.084 103.511L80.5813 102.428L76.1733 104.516L75.4 104.091L81.432 101.307Z" fill="white"/>
<path d="M83.0947 100.224L83.9067 100.572L83.1333 100.997L85.724 105.521L84.6027 105.483L82.2827 101.461L81.548 101.887L80.736 101.539L83.0947 100.224Z" fill="white"/>
<path d="M26.2547 64.9987C26.2547 66.5067 29.7347 67.28 30.6627 67.512C34.6067 68.4787 38.628 69.0587 42.688 69.2907C46.4 69.5613 50.9627 68.9427 54.52 68.0147C52.432 65.2307 50.3827 62.408 48.9133 59.2373C35.6507 60.0493 26.2547 62.7173 26.2547 64.9987ZM67.1253 59.16C65.656 62.3307 63.6453 65.1533 61.5187 67.9373C65.076 68.8653 69.6387 69.484 73.3507 69.2133C77.372 68.9813 81.3933 68.4013 85.3373 67.4347C86.2653 67.2027 89.7453 66.4293 89.7453 64.9213C89.784 62.7173 80.388 60.0493 67.1253 59.16Z" fill="white"/>
<path d="M54.52 67.9373C52.432 65.1533 50.4213 62.292 48.952 59.1213C48.836 58.8893 48.72 58.6573 48.604 58.3867C47.8693 56.6853 47.328 54.9453 46.9413 53.1667C45.3947 45.4333 47.8307 37.6227 52.1227 31.204C54.5973 27.4533 57.2653 23.6253 57.9613 19.1013H58.116C58.812 23.664 61.4413 27.4533 63.9546 31.204C68.208 37.6227 70.644 45.4333 69.136 53.1667C68.7493 54.9453 68.208 56.724 67.4733 58.3867C67.3573 58.6187 67.2413 58.8507 67.1253 59.1213C65.656 62.292 63.6453 65.1147 61.5187 67.8987C60.32 67.5893 59.16 67.2027 58.0387 66.7773C56.9173 67.2413 55.7573 67.628 54.5587 67.8987C54.5973 67.9373 54.4813 67.976 54.52 67.9373Z" fill="white"/>
<path d="M54.52 67.976C50.9626 68.904 46.4 69.5227 42.688 69.252C38.6666 69.02 34.6453 68.44 30.7013 67.4733C29.8893 67.2413 26.912 66.6227 26.3706 65.3853C29.3866 76.5213 42.456 84.8733 58.0773 84.8733C73.6986 84.8733 86.7293 76.5213 89.784 65.3853H89.7453C89.1653 66.584 86.2653 67.2413 85.4533 67.4347C81.5093 68.4013 77.488 68.9813 73.4666 69.2133C69.7546 69.484 65.192 68.8653 61.6346 67.9373C60.436 67.628 59.276 67.2413 58.1546 66.816C57.0333 67.28 55.8733 67.6667 54.6746 67.9373C54.6746 67.9373 54.5973 67.976 54.5586 67.9373L54.52 67.976Z" fill="#670C09"/>
<path d="M58.6187 58.6187C58.3867 58.812 58.1933 59.0827 58.1547 59.392H58.116C58.0387 59.0827 57.8453 58.812 57.5747 58.58V66.8933H57.884L58.0773 66.816L58.3093 66.8933H58.6187V58.6187Z" fill="#D19E42"/>
<path d="M58.232 52.664H58C56.84 52.7027 55.8733 53.5147 55.6413 54.636C55.2933 56.144 55.9893 57.072 56.9946 58.0387C57.2653 58.3093 58.0773 58.928 58.0773 59.3533H58.116C58.116 58.928 58.928 58.2707 59.1987 58.0387C60.204 57.072 60.9 56.1053 60.552 54.636C60.3586 53.5147 59.392 52.7027 58.232 52.664Z" fill="#D4140C"/>
<path d="M55.6413 54.636C55.796 53.9013 56.26 53.244 56.956 52.896L57.0333 52.7413C57.0333 52.7413 54.172 50.4213 50.6147 53.2053C50.7693 53.128 52.1613 54.3267 52.3547 54.4427C53.244 55.1 54.3653 55.3707 55.448 55.1773L55.5253 55.0227C55.564 54.9453 55.6026 54.7907 55.6413 54.636Z" fill="#D4140C"/>
<path d="M59.0053 52.7413L59.044 52.78C59.8173 53.0893 60.436 53.7853 60.5906 54.5973C60.6293 54.7907 60.668 54.984 60.668 55.1773C61.712 55.332 62.7947 55.0613 63.6453 54.404C63.8387 54.288 65.192 53.0893 65.3853 53.1667C61.828 50.46 59.0053 52.7413 59.0053 52.7413Z" fill="#D4140C"/>
<path d="M57.9613 36.4627C57.9613 36.4627 50.6533 47.6373 57.072 52.548H58.8506C65.2693 47.5987 57.9613 36.4627 57.9613 36.4627Z" fill="#D4140C"/>
<path d="M56.376 39.3627L53.3213 36.656C53.592 36.888 53.476 38.4733 53.476 38.8213C53.476 39.672 53.4373 40.5227 53.36 41.3733C53.244 42.4947 53.012 43.616 52.8187 44.6987C52.4707 46.4773 52.8187 48.2947 53.708 49.8413C54.52 51.0013 55.68 51.8907 56.9947 52.432C52.7413 49.1453 54.6747 42.9973 56.376 39.3627Z" fill="#D4140C"/>
<path d="M63.1426 44.7373C62.9493 43.616 62.7173 42.5333 62.6013 41.412C62.524 40.5613 62.4853 39.7107 62.4853 38.86C62.4853 38.512 62.3693 36.9267 62.64 36.6947L59.5466 39.44C61.248 43.0747 63.1426 49.2227 58.8506 52.548C60.204 52.0067 61.364 51.0787 62.2146 49.9187C63.1426 48.3333 63.4906 46.516 63.1426 44.7373Z" fill="#D4140C"/>
<path d="M59.3147 52.316L59.4693 52.432C60.7067 51.7747 62.2147 51.6587 63.5293 52.2L63.6453 52.1613C63.6453 52.1613 64.264 50.4213 65.3467 50.4213C64.3027 49.9573 63.104 49.8413 62.0213 50.1893C61.2867 51.0787 60.3587 51.8133 59.3147 52.316Z" fill="#D4140C"/>
<path d="M56.492 52.432L56.5693 52.3933L56.5307 52.2773C55.5253 51.7747 54.636 51.0787 53.94 50.1893C52.8187 49.88 51.62 49.9573 50.576 50.4213C51.6587 50.4213 52.2773 52.1613 52.2773 52.1613L52.432 52.2387C53.7467 51.6973 55.2547 51.7747 56.492 52.432Z" fill="#D4140C"/>
<path d="M56.3373 39.4013C56.6466 38.7053 56.956 38.1253 57.2267 37.6227L55.9506 35.8827L54.9453 38.048V38.1253L56.3373 39.4013Z" fill="#D4140C"/>
<path d="M59.5466 39.4013L61.0546 38.0867L60.088 35.9213L58.812 37.7V37.8933C59.044 38.3187 59.3146 38.86 59.5466 39.4013Z" fill="#D4140C"/>
<path d="M90.364 65.2693L90.48 64.7667H90.364C89.9773 61.712 79.0733 59.392 68.0146 58.58C68.7493 56.8787 69.2906 55.1 69.6773 53.2827C71.108 46.0907 69.252 38.1253 64.4186 30.856L64.0706 30.3533C61.712 26.8347 59.3146 23.2 58.696 18.9853L58.6186 18.4827H57.42L57.3426 18.9853C56.724 23.2 54.288 26.8347 51.968 30.3533L51.62 30.856C46.7866 38.0867 44.9306 46.052 46.3613 53.2827C46.748 55.1 47.2893 56.8787 48.024 58.6187C36.7333 59.4307 25.5973 61.828 25.5973 64.96C25.5973 65.1533 25.636 65.3467 25.7133 65.54C28.884 77.1013 42.456 85.492 58 85.492C73.544 85.492 87.116 77.1013 90.2866 65.54L90.364 65.2693ZM89.204 64.96C89.204 64.9987 89.204 65.0373 89.1653 65.1147V65.1533C89.088 65.2693 89.0106 65.3853 88.8946 65.4627C88.5466 65.772 87.7346 66.1973 86.1106 66.6613L85.9946 66.7L85.492 66.816L85.26 66.8547C81.896 67.7053 78.1066 68.2853 73.3506 68.5947C73.0026 68.6333 72.616 68.6333 72.2293 68.6333H70.7986C70.412 68.6333 70.0253 68.5947 69.6386 68.5947H69.4453C69.0586 68.556 68.672 68.556 68.2466 68.5173H68.092C67.6666 68.4787 67.28 68.44 66.8546 68.3627L66.7 68.324C66.2746 68.2853 65.8493 68.208 65.424 68.1307H65.3466C64.8826 68.0533 64.4573 67.976 63.9933 67.8987C63.568 67.8213 63.104 67.7053 62.6786 67.628H62.6013L62.7173 67.4733L63.0266 67.0867C63.1813 66.8933 63.336 66.6613 63.4906 66.468C63.6066 66.3133 63.684 66.1973 63.8 66.0427L64.2253 65.424L64.5346 64.9987L64.96 64.3413L65.2306 63.9547C65.3853 63.684 65.5786 63.4133 65.7333 63.1427C65.772 63.0653 65.8493 62.988 65.888 62.9107C66.12 62.5627 66.3133 62.2147 66.5066 61.828C66.5453 61.7507 66.584 61.6733 66.6613 61.596C66.816 61.3253 66.9706 61.0547 67.1253 60.7453C67.2026 60.6293 67.2413 60.4747 67.3186 60.3587C67.396 60.2427 67.512 60.0107 67.5893 59.8173C81.9346 60.784 89.204 63.6067 89.204 64.96ZM52.664 31.552L53.012 31.0493C54.984 28.072 57.0333 25.0173 58.0773 21.5373C59.1213 25.0173 61.132 28.072 63.1426 31.0493L63.4906 31.552C68.1306 38.512 69.948 46.168 68.5946 53.0507C68.2466 54.7907 67.7053 56.5307 67.0093 58.1547C66.9706 58.3093 66.8933 58.4253 66.816 58.58L66.6613 58.8893C66.468 59.276 66.3133 59.6627 66.12 60.0107L65.9266 60.3973C65.8106 60.6293 65.656 60.8613 65.54 61.132L65.2693 61.596C65.1533 61.828 65.0373 62.0213 64.8826 62.2147L64.5733 62.6787C64.4573 62.872 64.3413 63.0653 64.1866 63.2587C64.032 63.452 63.9546 63.6067 63.8386 63.7613C63.7226 63.916 63.6066 64.148 63.452 64.3027C63.2973 64.4573 63.22 64.6507 63.104 64.8053C62.988 64.96 62.872 65.1533 62.7173 65.3467L62.3306 65.888L61.944 66.3907L61.5573 66.932L61.3253 67.2413H61.2866L60.552 67.048L60.436 67.0093C60.204 66.932 59.972 66.8547 59.74 66.7773L59.624 66.7387L59.2373 66.584V58.8893C59.3146 58.812 59.4306 58.7347 59.4693 58.6573L59.624 58.5027C60.3586 57.768 61.0546 56.9947 61.2093 55.912H61.2866C62.2533 55.912 63.22 55.6027 63.9933 54.984C64.032 54.9453 64.148 54.868 64.3026 54.752C64.5346 54.5587 65.2306 54.0173 65.4626 53.8627C65.8106 53.824 66.004 53.5147 65.9653 53.1667C65.9266 53.012 65.8493 52.896 65.7333 52.78C65.308 52.4707 64.8826 52.1613 64.4186 51.9293C64.6506 51.504 64.9986 51.04 65.3466 51.04C65.6946 51.04 65.9653 50.7693 65.9653 50.4213C65.9653 50.1893 65.8493 49.996 65.656 49.88C64.8826 49.532 64.032 49.3387 63.1813 49.3773C63.8386 47.8693 64.032 46.2453 63.7226 44.6213C63.6453 44.2347 63.6066 43.848 63.5293 43.5C63.3746 42.7653 63.2586 42.0307 63.1813 41.3347C63.104 40.5227 63.0653 39.672 63.0653 38.8213V38.4733C63.0266 37.9707 63.0653 37.5067 63.104 37.004C63.2973 36.7333 63.2586 36.3853 63.0266 36.1533C62.7946 35.96 62.4466 35.96 62.2146 36.192L61.248 37.0427L60.1653 34.684L58.7733 36.6173C58.6186 36.3467 58.5026 36.192 58.464 36.1147C58.4253 36.0373 58.348 35.96 58.2706 35.8827C58.1933 35.8053 58.0773 35.8053 57.9613 35.8053C57.8453 35.8053 57.7293 35.844 57.6133 35.8827C57.536 35.9213 57.4586 35.9987 57.42 36.1147L57.188 36.5013L55.8733 34.684L54.752 37.12L53.708 36.192C53.476 35.96 53.0893 35.96 52.8573 36.2307C52.664 36.4627 52.6253 36.772 52.8186 37.0427C52.896 37.5453 52.896 38.0093 52.8573 38.512V38.86C52.8573 39.7107 52.8186 40.5227 52.7413 41.3733C52.664 42.108 52.548 42.804 52.3933 43.5387C52.316 43.9253 52.2386 44.312 52.2 44.6987C51.9293 46.284 52.1226 47.9467 52.7413 49.4547C51.8906 49.416 51.04 49.5707 50.2666 49.9573C49.9573 50.112 49.8413 50.46 49.996 50.7693C50.112 50.9627 50.3053 51.0787 50.5373 51.0787C50.8853 51.0787 51.272 51.5813 51.504 52.0067C51.0786 52.2387 50.6533 52.5093 50.2666 52.8187C49.996 53.012 49.9573 53.3987 50.1506 53.6693C50.228 53.7853 50.3826 53.8627 50.5373 53.9013C50.7693 54.056 51.4653 54.5973 51.6973 54.7907C51.852 54.9067 51.968 55.0227 52.0066 55.0227C52.78 55.6027 53.7466 55.9507 54.7133 55.9507H54.984C55.1386 57.0333 55.8346 57.8453 56.5693 58.58L56.9173 58.928V66.6613L56.8013 66.7C56.6466 66.7387 56.492 66.816 56.2986 66.8547L55.9506 66.9707C55.796 67.0093 55.6413 67.0867 55.4866 67.1253L55.0613 67.2413L54.7133 67.3187C52.896 64.8827 50.8853 62.06 49.4546 58.9667L49.3386 58.7347C49.2613 58.58 49.184 58.3867 49.1066 58.232C48.4106 56.608 47.8693 54.868 47.4826 53.128C46.2066 46.168 47.9853 38.5507 52.664 31.552ZM55.0226 54.6747C54.2106 54.752 53.3986 54.4813 52.7413 53.9787L52.5093 53.7853C52.2386 53.5533 52.0066 53.36 51.7746 53.2053C52.0453 53.0507 52.316 52.896 52.6253 52.78H52.664C53.7466 52.3547 54.9453 52.3933 55.9893 52.8573C55.7573 53.0893 55.564 53.3213 55.4093 53.592C55.332 53.708 55.2546 53.8627 55.216 54.0173V54.056C55.1773 54.2107 55.1 54.3653 55.0613 54.52C55.0226 54.5587 55.0226 54.636 55.0226 54.6747ZM52.084 50.6147C52.5866 50.576 53.0893 50.576 53.592 50.692C53.6693 50.7693 53.7466 50.8853 53.824 50.9627C53.9013 51.0787 54.0173 51.156 54.0946 51.2333H53.708L53.3986 51.272C53.128 51.3107 52.896 51.3493 52.664 51.4267C52.5093 51.156 52.316 50.8853 52.084 50.6147ZM55.7186 37.9707L56.1053 37.12L56.5306 37.7C56.4146 37.932 56.2986 38.164 56.1826 38.396L55.8346 38.0867L55.7186 37.9707ZM58.4253 38.4347C58.4253 38.4733 58.464 38.512 58.464 38.512C59.2373 40.02 59.8946 41.5667 60.3586 43.1907C60.3586 43.1907 60.3586 43.2293 60.3973 43.268L60.5133 43.6933L60.5906 44.08C60.5906 44.1187 60.5906 44.1573 60.6293 44.1573C60.668 44.2733 60.668 44.428 60.7066 44.544V44.5827C61.016 46.284 61.016 48.0627 60.3973 49.5707C60.3586 49.6867 60.2813 49.8027 60.2426 49.9573C60.0493 50.3053 59.856 50.6533 59.624 50.9627L59.5466 51.04C59.4693 51.1173 59.4306 51.1947 59.3533 51.272L59.2373 51.4267L59.044 51.62C59.0053 51.6587 58.928 51.6973 58.8893 51.7747L58.7346 51.8907H57.3813L57.1493 51.6973L57.072 51.6587L56.724 51.3107C56.6466 51.2333 56.5693 51.1173 56.492 51.0013V51.04C56.144 50.6147 55.8733 50.112 55.6413 49.6093C55.6026 49.4933 55.5253 49.3387 55.4866 49.2227C55.2933 48.5653 55.1773 47.908 55.1386 47.212V46.2067C55.1386 46.052 55.1386 45.8973 55.1773 45.7427L55.216 45.3947V45.2787C55.216 45.1627 55.2546 45.008 55.2546 44.892V44.8147C55.6026 42.9973 56.1826 41.2573 56.9946 39.5947L57.188 39.2467L57.1493 39.208C57.4586 38.5507 57.768 38.0093 58 37.6227C58.0773 37.8547 58.232 38.1253 58.4253 38.4347ZM62.0213 41.4893C62.0986 42.2627 62.2533 43.036 62.3693 43.7707C62.4466 44.1573 62.4853 44.5053 62.5626 44.892C62.872 46.516 62.5626 48.1787 61.7506 49.6093L61.712 49.6867C62.8333 46.3613 61.596 42.3787 60.3586 39.5947L61.944 38.2027V38.8987C61.8666 39.7107 61.9053 40.6 62.0213 41.4893ZM61.2093 54.6747C61.2093 54.636 61.1706 54.5587 61.1706 54.52C61.132 54.3653 61.0933 54.2107 61.016 54.056V54.0173C60.9773 53.9013 60.9 53.7467 60.8226 53.6307L60.784 53.592C60.7066 53.476 60.6293 53.36 60.552 53.244L60.5133 53.1667C60.436 53.0507 60.32 52.9733 60.2426 52.8573L60.204 52.8187C60.2813 52.78 60.32 52.78 60.3973 52.7413L60.5133 52.7027L60.5906 52.664C61.48 52.3933 62.408 52.432 63.2973 52.7413L63.3746 52.78C63.7226 52.896 64.032 53.0507 64.3413 53.244C64.148 53.3987 63.916 53.592 63.6066 53.824C63.4906 53.9013 63.4133 53.9787 63.3746 54.0173C62.7173 54.4813 61.944 54.7133 61.2093 54.6747ZM63.2973 51.504C63.1813 51.4653 63.0653 51.4267 62.9493 51.4267L62.756 51.388H62.6786C62.408 51.3493 62.176 51.3107 61.9053 51.3107C61.9826 51.2333 62.06 51.1173 62.176 51.04C62.2533 50.9627 62.3306 50.8467 62.408 50.7693C62.872 50.6533 63.3746 50.6147 63.8386 50.692C63.6066 50.924 63.452 51.1947 63.2973 51.504ZM59.7786 38.4347C59.6626 38.2027 59.5466 38.0093 59.4693 37.816L59.972 37.12L60.3586 37.932L59.7786 38.4347ZM55.6413 39.5173C54.404 42.2627 53.1666 46.2453 54.2493 49.532C53.2053 47.908 53.244 46.0907 53.4373 44.8147C53.476 44.428 53.5533 44.08 53.6306 43.6933C53.7466 42.9587 53.9013 42.224 53.9786 41.4507C54.056 40.5613 54.0946 39.7107 54.0946 38.8213V38.1253L54.404 38.396L55.6413 39.5173ZM56.1826 55.1387V55.1C56.1826 54.984 56.2213 54.9067 56.2213 54.7907C56.26 54.7133 56.26 54.5973 56.2986 54.52C56.2986 54.4813 56.3373 54.4813 56.3373 54.4427C56.376 54.3653 56.4146 54.288 56.4533 54.2107L56.492 54.1333C56.5306 54.0947 56.5693 54.0173 56.608 53.9787C56.6466 53.94 56.6853 53.9013 56.6853 53.8627C56.6853 53.824 56.724 53.824 56.7626 53.7853C56.8786 53.6693 57.0333 53.5533 57.2266 53.4373C57.4586 53.3213 57.7293 53.244 58 53.244H58.232C58.5413 53.244 58.8506 53.3213 59.0826 53.476C59.16 53.5147 59.2373 53.592 59.3146 53.6307C59.4693 53.7467 59.5853 53.9013 59.7013 54.0947V54.1333C59.74 54.2107 59.7786 54.288 59.8173 54.3653C59.8173 54.404 59.856 54.404 59.856 54.4427C59.8946 54.52 59.9333 54.636 59.9333 54.752C59.972 54.9067 59.972 55.0613 60.0106 55.2547C60.0106 55.9893 59.7013 56.6853 59.16 57.188V57.1493L58.116 58.1933L58.0773 58.2707L56.9173 57.1107V57.1493C56.4146 56.608 56.1053 55.912 56.1826 55.1387ZM48.5653 59.7787C49.9186 62.5627 51.6586 65.076 53.5146 67.5507L53.4373 67.5893C53.012 67.7053 52.5866 67.7827 52.1226 67.86C51.6973 67.9373 51.2333 68.0147 50.7693 68.092H50.692C50.2666 68.1693 49.8413 68.2467 49.416 68.2853L49.2613 68.324C48.836 68.3627 48.4106 68.44 48.024 68.4787H47.8693C47.4826 68.5173 47.0573 68.556 46.6706 68.556H46.4386C46.052 68.5947 45.6653 68.5947 45.2786 68.5947H43.8866C43.5 68.5947 43.1133 68.556 42.7266 68.556C38.7053 68.3627 34.7226 67.7827 30.8173 66.8547L30.624 66.816C30.4306 66.7773 30.2373 66.7387 30.044 66.6613H29.9666C28.1493 66.1587 27.376 65.6947 27.0666 65.3853L27.028 65.3467C26.9893 65.2693 26.912 65.2307 26.8733 65.1533C26.8346 65.1147 26.8346 65.0373 26.8346 64.9987C26.8346 63.6453 34.104 60.784 48.5653 59.7787ZM58.0386 84.2933C43.8866 84.2933 31.4746 77.1787 27.5693 67.1253L27.6853 67.164C28.536 67.512 29.4253 67.8213 30.3146 68.0147L30.508 68.0533C33.9493 68.9427 37.7773 69.484 42.6106 69.832C42.8813 69.832 43.152 69.8707 43.4226 69.8707H45.82C46.2066 69.8707 46.5546 69.832 46.9413 69.7933L48.1013 69.6773H48.2946C48.6813 69.6387 49.068 69.6 49.4546 69.5227L49.648 69.484C50.4213 69.368 51.2333 69.252 52.0066 69.0973L52.2 69.0587C52.5866 68.9813 52.9346 68.904 53.3213 68.8267L53.5533 68.788C53.94 68.7107 54.3266 68.5947 54.7133 68.5173L54.7906 68.4787H54.868L55.6026 68.2853C56.4533 68.0533 57.2653 67.7827 58.0773 67.4733H58.116L58.1546 67.4347H58.232C59.0053 67.744 59.7786 67.976 60.5906 68.208L61.4413 68.44L61.828 68.556C62.06 68.6333 62.3306 68.672 62.6013 68.7493L62.8333 68.788C63.22 68.8653 63.568 68.9427 63.9546 69.02L64.148 69.0587C64.5346 69.136 64.9213 69.2133 65.308 69.252C65.6946 69.3293 66.0813 69.368 66.468 69.4067L66.6613 69.4453C67.048 69.484 67.396 69.5227 67.7826 69.6H67.976C68.3626 69.6387 68.7493 69.6773 69.0973 69.6773H69.136C69.5226 69.716 69.8706 69.716 70.2573 69.716H70.4506C70.7986 69.716 71.1466 69.7547 71.4946 69.7547H72.5773C72.848 69.7547 73.1186 69.716 73.3893 69.716C77.488 69.484 81.5093 68.904 85.492 67.9373L85.6853 67.8987C86.6133 67.7053 87.5026 67.396 88.392 67.048L88.508 67.0093C84.6413 77.14 72.1906 84.2933 58.0386 84.2933Z" fill="#1F1917"/>
<path d="M128.148 53L128.102 52.1094L129.531 51.7812C129.563 51.7031 129.578 51.5234 129.578 51.2422C129.594 50.9609 129.602 50.5781 129.602 50.0938C129.617 49.6094 129.625 49.0234 129.625 48.3359V43.9297C129.625 43.2266 129.617 42.6328 129.602 42.1484C129.602 41.6484 129.594 41.2578 129.578 40.9766C129.578 40.6953 129.563 40.5234 129.531 40.4609L128.102 40.1328L128.148 39.2422H133.141L133.188 40.1328L131.758 40.4609C131.727 40.5078 131.695 40.6641 131.664 40.9297C131.648 41.1797 131.633 41.5547 131.617 42.0547C131.617 42.5391 131.617 43.1641 131.617 43.9297V48.3359C131.617 49.0859 131.617 49.7031 131.617 50.1875C131.633 50.6719 131.648 51.0469 131.664 51.3125C131.695 51.5625 131.727 51.7188 131.758 51.7812L133.188 52.1094L133.141 53H128.148Z" fill="white"/>
<path d="M134.992 53L134.945 52.1562L136.398 51.8047C136.414 51.6953 136.422 51.5469 136.422 51.3594C136.438 51.1719 136.453 50.9141 136.469 50.5859C136.484 50.2578 136.492 49.8281 136.492 49.2969L136.516 47.4922C136.516 46.9766 136.492 46.4688 136.445 45.9688C136.414 45.4531 136.375 45.0469 136.328 44.75L134.828 44.4219V43.6484L137.969 42.7812L138.367 43.1562L138.25 44.3984L138.32 44.4219C138.867 43.8281 139.406 43.3984 139.938 43.1328C140.469 42.8672 141.047 42.7344 141.672 42.7344C142.25 42.7344 142.789 42.8828 143.289 43.1797C143.805 43.4609 144.219 43.8984 144.531 44.4922C144.859 45.0859 145.023 45.8438 145.023 46.7656V49.3672C145.023 49.9297 145.031 50.4375 145.047 50.8906C145.078 51.3438 145.117 51.6484 145.164 51.8047L146.617 52.1562L146.547 53H141.836L141.789 52.1562L143.148 51.8047C143.164 51.6797 143.18 51.5234 143.195 51.3359C143.211 51.1484 143.219 50.9141 143.219 50.6328C143.234 50.3359 143.242 49.9688 143.242 49.5312V47C143.242 46.2969 143.117 45.7422 142.867 45.3359C142.633 44.9141 142.336 44.6172 141.977 44.4453C141.617 44.2578 141.25 44.1641 140.875 44.1641C140.359 44.1641 139.875 44.2969 139.422 44.5625C138.984 44.8125 138.609 45.1641 138.297 45.6172V49.1328C138.297 49.8516 138.305 50.4375 138.32 50.8906C138.352 51.3281 138.383 51.6328 138.414 51.8047L139.867 52.1562L139.797 53H134.992Z" fill="white"/>
<path d="M156.133 53.2578L155.781 52.9531L155.805 51.4297L155.734 51.4062C155.266 52.0625 154.781 52.5234 154.281 52.7891C153.797 53.0547 153.281 53.1875 152.734 53.1875C151.844 53.1875 151.047 52.9844 150.344 52.5781C149.656 52.1562 149.109 51.5781 148.703 50.8438C148.297 50.1094 148.094 49.2656 148.094 48.3125C148.094 47.4844 148.234 46.7266 148.516 46.0391C148.797 45.3516 149.18 44.7656 149.664 44.2812C150.164 43.7812 150.727 43.3984 151.352 43.1328C151.977 42.8672 152.625 42.7344 153.297 42.7344C153.734 42.7344 154.18 42.7891 154.633 42.8984C155.086 43.0078 155.469 43.1797 155.781 43.4141C155.781 43.1328 155.773 42.7656 155.758 42.3125C155.758 41.8594 155.75 41.3906 155.734 40.9062C155.734 40.4062 155.727 39.9688 155.711 39.5938C155.711 39.2031 155.703 38.9375 155.688 38.7969L153.859 38.4688L153.813 37.6953L157.258 36.7344L157.68 37.0625C157.648 38.0312 157.625 38.9688 157.609 39.875C157.594 40.7812 157.586 41.7266 157.586 42.7109L157.563 48.1016C157.563 48.8984 157.578 49.5859 157.609 50.1641C157.656 50.7266 157.688 51.125 157.703 51.3594L159.203 51.7344V52.5078L156.133 53.2578ZM153.32 51.6172C153.773 51.6172 154.195 51.5234 154.586 51.3359C154.977 51.1328 155.375 50.7812 155.781 50.2812V45.2422C155.484 44.7109 155.109 44.3359 154.656 44.1172C154.203 43.8984 153.75 43.7891 153.297 43.7891C152.313 43.7891 151.539 44.1562 150.977 44.8906C150.43 45.6094 150.156 46.5469 150.156 47.7031C150.156 48.9375 150.461 49.8984 151.07 50.5859C151.695 51.2734 152.445 51.6172 153.32 51.6172Z" fill="white"/>
<path d="M160.422 53L160.375 52.1328L161.945 51.8047C161.961 51.7422 161.969 51.6328 161.969 51.4766C161.984 51.3203 162 51.0703 162.016 50.7266C162.031 50.3828 162.039 49.9062 162.039 49.2969V47.75C162.039 47.1094 162.023 46.5234 161.992 45.9922C161.961 45.4609 161.922 45.0469 161.875 44.75L160.305 44.4219V43.6484L163.633 42.7812L163.984 43.1094C163.938 43.5938 163.898 44.0703 163.867 44.5391C163.852 45.0078 163.844 45.5547 163.844 46.1797V49.1328C163.844 49.8516 163.852 50.4453 163.867 50.9141C163.898 51.3828 163.93 51.6797 163.961 51.8047L165.531 52.1328L165.484 53H160.422ZM162.953 40.1328C162.563 40.1328 162.219 40 161.922 39.7344C161.641 39.4688 161.5 39.1406 161.5 38.75C161.5 38.3594 161.641 38.0312 161.922 37.7656C162.219 37.5 162.563 37.3672 162.953 37.3672C163.359 37.3672 163.695 37.5 163.961 37.7656C164.227 38.0312 164.359 38.3594 164.359 38.75C164.359 39.1406 164.227 39.4688 163.961 39.7344C163.695 40 163.359 40.1328 162.953 40.1328Z" fill="white"/>
<path d="M170.664 53.1875C170.039 53.1875 169.484 53.0625 169 52.8125C168.516 52.5625 168.133 52.2422 167.852 51.8516C167.586 51.4609 167.453 51.0547 167.453 50.6328C167.453 50.1016 167.625 49.6641 167.969 49.3203C168.313 48.9766 168.875 48.6797 169.656 48.4297L173.219 47.2344V46.0391C173.219 45.6484 173.102 45.2969 172.867 44.9844C172.633 44.6562 172.32 44.3984 171.93 44.2109C171.539 44.0234 171.102 43.9297 170.617 43.9297C170.227 43.9297 169.961 44.0156 169.82 44.1875C169.68 44.3438 169.594 44.6641 169.563 45.1484L169.516 46.1328C168.953 46.2578 168.477 46.2422 168.086 46.0859C167.695 45.9141 167.5 45.6406 167.5 45.2656C167.5 45 167.609 44.7344 167.828 44.4688C168.063 44.2031 168.367 43.9531 168.742 43.7188C169.117 43.4688 169.523 43.2578 169.961 43.0859C170.398 42.9141 170.828 42.7969 171.25 42.7344C172.406 42.7344 173.328 43.0391 174.016 43.6484C174.719 44.2578 175.078 45.0547 175.094 46.0391L175.047 49.9766C175.047 50.2734 175.055 50.5625 175.07 50.8438C175.102 51.125 175.141 51.3359 175.188 51.4766L176.688 51.7578V52.4844L175.539 52.9062C175.32 52.9844 175.117 53.0469 174.93 53.0938C174.742 53.1562 174.586 53.1875 174.461 53.1875C173.977 53.1875 173.664 52.9141 173.523 52.3672L173.266 51.4531H173.617C173.102 52.0312 172.602 52.4688 172.117 52.7656C171.648 53.0469 171.164 53.1875 170.664 53.1875ZM171.297 51.8047C171.656 51.8047 171.992 51.7266 172.305 51.5703C172.617 51.3984 172.922 51.1406 173.219 50.7969V48.3359L170.594 49.0391C170.219 49.1328 169.945 49.2812 169.773 49.4844C169.617 49.6875 169.539 49.9453 169.539 50.2578C169.539 50.6484 169.711 51.0078 170.055 51.3359C170.414 51.6484 170.828 51.8047 171.297 51.8047Z" fill="white"/>
<path d="M177.906 53L177.859 52.1562L179.313 51.8047C179.328 51.6953 179.336 51.5469 179.336 51.3594C179.352 51.1719 179.367 50.9141 179.383 50.5859C179.398 50.2578 179.406 49.8281 179.406 49.2969L179.43 47.4922C179.43 46.9766 179.406 46.4688 179.359 45.9688C179.328 45.4531 179.289 45.0469 179.242 44.75L177.742 44.4219V43.6484L180.883 42.7812L181.281 43.1562L181.164 44.3984L181.234 44.4219C181.781 43.8281 182.32 43.3984 182.852 43.1328C183.383 42.8672 183.961 42.7344 184.586 42.7344C185.164 42.7344 185.703 42.8828 186.203 43.1797C186.719 43.4609 187.133 43.8984 187.445 44.4922C187.773 45.0859 187.938 45.8438 187.938 46.7656V49.3672C187.938 49.9297 187.945 50.4375 187.961 50.8906C187.992 51.3438 188.031 51.6484 188.078 51.8047L189.531 52.1562L189.461 53H184.75L184.703 52.1562L186.063 51.8047C186.078 51.6797 186.094 51.5234 186.109 51.3359C186.125 51.1484 186.133 50.9141 186.133 50.6328C186.148 50.3359 186.156 49.9688 186.156 49.5312V47C186.156 46.2969 186.031 45.7422 185.781 45.3359C185.547 44.9141 185.25 44.6172 184.891 44.4453C184.531 44.2578 184.164 44.1641 183.789 44.1641C183.273 44.1641 182.789 44.2969 182.336 44.5625C181.898 44.8125 181.523 45.1641 181.211 45.6172V49.1328C181.211 49.8516 181.219 50.4375 181.234 50.8906C181.266 51.3281 181.297 51.6328 181.328 51.8047L182.781 52.1562L182.711 53H177.906Z" fill="white"/>
<path d="M195.719 53L195.672 52.1094L197.102 51.7812C197.133 51.7031 197.148 51.5234 197.148 51.2422C197.164 50.9609 197.172 50.5781 197.172 50.0938C197.188 49.6094 197.195 49.0234 197.195 48.3359V43.9297C197.195 43.2266 197.188 42.6328 197.172 42.1484C197.172 41.6484 197.164 41.2578 197.148 40.9766C197.148 40.6953 197.133 40.5234 197.102 40.4609L195.672 40.1328L195.719 39.2422H200.711L200.758 40.1328L199.328 40.4609C199.297 40.5078 199.266 40.6641 199.234 40.9297C199.219 41.1797 199.203 41.5547 199.188 42.0547C199.188 42.5391 199.188 43.1641 199.188 43.9297V48.3359C199.188 49.0859 199.188 49.7031 199.188 50.1875C199.203 50.6719 199.219 51.0469 199.234 51.3125C199.266 51.5625 199.297 51.7188 199.328 51.7812L200.758 52.1094L200.711 53H195.719Z" fill="white"/>
<path d="M202.563 53L202.516 52.1562L203.969 51.8047C203.984 51.6953 203.992 51.5469 203.992 51.3594C204.008 51.1719 204.023 50.9141 204.039 50.5859C204.055 50.2578 204.063 49.8281 204.063 49.2969L204.086 47.4922C204.086 46.9766 204.063 46.4688 204.016 45.9688C203.984 45.4531 203.945 45.0469 203.898 44.75L202.398 44.4219V43.6484L205.539 42.7812L205.938 43.1562L205.82 44.3984L205.891 44.4219C206.438 43.8281 206.977 43.3984 207.508 43.1328C208.039 42.8672 208.617 42.7344 209.242 42.7344C209.82 42.7344 210.359 42.8828 210.859 43.1797C211.375 43.4609 211.789 43.8984 212.102 44.4922C212.43 45.0859 212.594 45.8438 212.594 46.7656V49.3672C212.594 49.9297 212.602 50.4375 212.617 50.8906C212.648 51.3438 212.688 51.6484 212.734 51.8047L214.188 52.1562L214.117 53H209.406L209.359 52.1562L210.719 51.8047C210.734 51.6797 210.75 51.5234 210.766 51.3359C210.781 51.1484 210.789 50.9141 210.789 50.6328C210.805 50.3359 210.813 49.9688 210.813 49.5312V47C210.813 46.2969 210.688 45.7422 210.438 45.3359C210.203 44.9141 209.906 44.6172 209.547 44.4453C209.188 44.2578 208.82 44.1641 208.445 44.1641C207.93 44.1641 207.445 44.2969 206.992 44.5625C206.555 44.8125 206.18 45.1641 205.867 45.6172V49.1328C205.867 49.8516 205.875 50.4375 205.891 50.8906C205.922 51.3281 205.953 51.6328 205.984 51.8047L207.438 52.1562L207.367 53H202.563Z" fill="white"/>
<path d="M219.32 53.1875C218.742 53.1875 218.164 53.125 217.586 53C217.008 52.8594 216.516 52.6797 216.109 52.4609L215.992 49.9531H217.141L217.609 51.6406C218.156 52.0156 218.781 52.2031 219.484 52.2031C220.016 52.2031 220.445 52.0781 220.773 51.8281C221.102 51.5625 221.266 51.2109 221.266 50.7734C221.266 50.3672 221.117 50.0156 220.82 49.7188C220.523 49.4062 219.945 49.0703 219.086 48.7109C217.977 48.2266 217.195 47.7656 216.742 47.3281C216.289 46.875 216.063 46.2969 216.063 45.5938C216.063 45.0312 216.227 44.5391 216.555 44.1172C216.898 43.6797 217.367 43.3438 217.961 43.1094C218.555 42.8594 219.242 42.7344 220.023 42.7344C220.461 42.7344 220.906 42.7734 221.359 42.8516C221.813 42.9297 222.188 43.0312 222.484 43.1562L222.742 45.5938H221.641L221.078 44C220.922 43.9062 220.734 43.8359 220.516 43.7891C220.297 43.7266 220.063 43.6953 219.813 43.6953C219.266 43.6953 218.828 43.8281 218.5 44.0938C218.172 44.3438 218.008 44.6719 218.008 45.0781C218.008 45.5469 218.188 45.9297 218.547 46.2266C218.906 46.5078 219.539 46.8594 220.445 47.2812C221.477 47.75 222.195 48.2109 222.602 48.6641C223.008 49.1172 223.211 49.6641 223.211 50.3047C223.211 51.1484 222.844 51.8438 222.109 52.3906C221.375 52.9219 220.445 53.1875 219.32 53.1875Z" fill="white"/>
<path d="M232.234 51.5469C231.938 52.0625 231.531 52.4688 231.016 52.7656C230.5 53.0469 229.961 53.1875 229.398 53.1875C228.445 53.1875 227.664 52.8984 227.055 52.3203C226.445 51.7422 226.141 50.875 226.141 49.7188L226.211 44.1172H224.57V43.625L227.594 40.8828H228.039L227.992 43.5781L227.969 49.3438C227.969 50.1562 228.141 50.7578 228.484 51.1484C228.844 51.5391 229.344 51.7344 229.984 51.7344C230.344 51.7344 230.672 51.6641 230.969 51.5234C231.281 51.3828 231.563 51.1953 231.813 50.9609L232.234 51.5469ZM227.148 44.1172V42.9453H231.531V44.1172H227.148Z" fill="white"/>
<path d="M232.727 53L232.68 52.1328L234.25 51.8047C234.266 51.7422 234.273 51.6328 234.273 51.4766C234.289 51.3203 234.305 51.0703 234.32 50.7266C234.336 50.3828 234.344 49.9062 234.344 49.2969V47.75C234.344 47.1094 234.328 46.5234 234.297 45.9922C234.266 45.4609 234.227 45.0469 234.18 44.75L232.609 44.4219V43.6484L235.938 42.7812L236.289 43.1094C236.242 43.5938 236.203 44.0703 236.172 44.5391C236.156 45.0078 236.148 45.5547 236.148 46.1797V49.1328C236.148 49.8516 236.156 50.4453 236.172 50.9141C236.203 51.3828 236.234 51.6797 236.266 51.8047L237.836 52.1328L237.789 53H232.727ZM235.258 40.1328C234.867 40.1328 234.523 40 234.227 39.7344C233.945 39.4688 233.805 39.1406 233.805 38.75C233.805 38.3594 233.945 38.0312 234.227 37.7656C234.523 37.5 234.867 37.3672 235.258 37.3672C235.664 37.3672 236 37.5 236.266 37.7656C236.531 38.0312 236.664 38.3594 236.664 38.75C236.664 39.1406 236.531 39.4688 236.266 39.7344C236 40 235.664 40.1328 235.258 40.1328Z" fill="white"/>
<path d="M246.461 51.5469C246.164 52.0625 245.758 52.4688 245.242 52.7656C244.727 53.0469 244.188 53.1875 243.625 53.1875C242.672 53.1875 241.891 52.8984 241.281 52.3203C240.672 51.7422 240.367 50.875 240.367 49.7188L240.438 44.1172H238.797V43.625L241.82 40.8828H242.266L242.219 43.5781L242.195 49.3438C242.195 50.1562 242.367 50.7578 242.711 51.1484C243.07 51.5391 243.57 51.7344 244.211 51.7344C244.57 51.7344 244.898 51.6641 245.195 51.5234C245.508 51.3828 245.789 51.1953 246.039 50.9609L246.461 51.5469ZM241.375 44.1172V42.9453H245.758V44.1172H241.375Z" fill="white"/>
<path d="M256.984 51.3594L258.461 51.7344V52.5078L255.414 53.2578L255.063 52.9531L255.086 51.4766L255.016 51.4531C254.563 52.0938 254.094 52.5469 253.609 52.8125C253.141 53.0625 252.633 53.1875 252.086 53.1875C251.039 53.1875 250.164 52.8672 249.461 52.2266C248.758 51.5703 248.406 50.5938 248.406 49.2969V47.2812C248.406 46.8438 248.391 46.4219 248.359 46.0156C248.344 45.5938 248.32 45.1719 248.289 44.75L246.695 44.4219V43.6484L249.883 42.7812L250.305 43.1562C250.273 43.6406 250.25 44.1562 250.234 44.7031C250.219 45.25 250.211 45.8203 250.211 46.4141L250.188 48.9922C250.188 49.9609 250.414 50.6562 250.867 51.0781C251.32 51.4844 251.898 51.6875 252.602 51.6875C253.023 51.6875 253.453 51.5781 253.891 51.3594C254.328 51.1406 254.711 50.7656 255.039 50.2344V47.5156C255.039 47.1719 255.031 46.8359 255.016 46.5078C255.016 46.1641 255.008 45.8438 254.992 45.5469C254.977 45.2344 254.953 44.9688 254.922 44.75L253.211 44.4219V43.6484L256.516 42.7812L256.867 43.1094C256.852 43.5469 256.836 43.9375 256.82 44.2812C256.82 44.625 256.82 44.9688 256.82 45.3125C256.82 45.6406 256.82 46.0156 256.82 46.4375V48.1016C256.82 48.9609 256.836 49.6562 256.867 50.1875C256.914 50.7031 256.953 51.0938 256.984 51.3594Z" fill="white"/>
<path d="M267.133 51.5469C266.836 52.0625 266.43 52.4688 265.914 52.7656C265.398 53.0469 264.859 53.1875 264.297 53.1875C263.344 53.1875 262.563 52.8984 261.953 52.3203C261.344 51.7422 261.039 50.875 261.039 49.7188L261.109 44.1172H259.469V43.625L262.492 40.8828H262.938L262.891 43.5781L262.867 49.3438C262.867 50.1562 263.039 50.7578 263.383 51.1484C263.742 51.5391 264.242 51.7344 264.883 51.7344C265.242 51.7344 265.57 51.6641 265.867 51.5234C266.18 51.3828 266.461 51.1953 266.711 50.9609L267.133 51.5469ZM262.047 44.1172V42.9453H266.43V44.1172H262.047Z" fill="white"/>
<path d="M272.641 53.1875C271.734 53.1875 270.914 52.9844 270.18 52.5781C269.461 52.1719 268.883 51.5938 268.445 50.8438C268.023 50.0781 267.813 49.1797 267.813 48.1484C267.813 47.0391 268.039 46.0781 268.492 45.2656C268.945 44.4531 269.539 43.8281 270.273 43.3906C271.008 42.9375 271.797 42.7188 272.641 42.7344C273.859 42.75 274.813 43.1562 275.5 43.9531C276.188 44.75 276.531 45.875 276.531 47.3281V47.75H269.336V46.7188H274.984L274.727 47.0234V46.5312C274.727 45.625 274.523 44.9297 274.117 44.4453C273.711 43.9609 273.156 43.7188 272.453 43.7188C272.016 43.7188 271.594 43.8516 271.188 44.1172C270.781 44.3672 270.453 44.7578 270.203 45.2891C269.953 45.8047 269.828 46.4609 269.828 47.2578V47.5391C269.828 48.8203 270.141 49.8203 270.766 50.5391C271.406 51.2578 272.227 51.6172 273.227 51.6172C273.773 51.6172 274.266 51.5078 274.703 51.2891C275.141 51.0703 275.563 50.7188 275.969 50.2344L276.555 50.7734C276.117 51.5859 275.563 52.1953 274.891 52.6016C274.219 52.9922 273.469 53.1875 272.641 53.1875Z" fill="white"/>
<path d="M287.898 53.1875C286.883 53.1875 285.992 52.9688 285.227 52.5312C284.477 52.0938 283.891 51.4844 283.469 50.7031C283.047 49.9062 282.836 49 282.836 47.9844C282.836 46.9219 283.07 46 283.539 45.2188C284.008 44.4375 284.633 43.8281 285.414 43.3906C286.195 42.9531 287.055 42.7344 287.992 42.7344C288.961 42.7344 289.805 42.9531 290.523 43.3906C291.258 43.8125 291.82 44.4141 292.211 45.1953C292.617 45.9609 292.82 46.8594 292.82 47.8906C292.82 48.875 292.602 49.7656 292.164 50.5625C291.727 51.3594 291.133 52 290.383 52.4844C289.648 52.9531 288.82 53.1875 287.898 53.1875ZM288.133 52.0859C288.664 52.0859 289.125 51.9297 289.516 51.6172C289.906 51.2891 290.211 50.8438 290.43 50.2812C290.648 49.7031 290.758 49.0469 290.758 48.3125C290.758 46.9688 290.477 45.8828 289.914 45.0547C289.367 44.2109 288.641 43.7891 287.734 43.7891C286.891 43.7891 286.211 44.1406 285.695 44.8438C285.195 45.5469 284.945 46.4766 284.945 47.6328C284.945 48.5078 285.078 49.2812 285.344 49.9531C285.625 50.625 286.008 51.1484 286.492 51.5234C286.977 51.8984 287.523 52.0859 288.133 52.0859Z" fill="white"/>
<path d="M299.781 53H294.602L294.531 52.1562L295.984 51.8047C296 51.6484 296.008 51.4844 296.008 51.3125C296.023 51.125 296.031 50.9062 296.031 50.6562C296.031 50.3906 296.031 50.0781 296.031 49.7188C296.031 49.3438 296.031 48.8906 296.031 48.3594L296.008 44.1406V41.4688C296.008 40.4688 296.164 39.6094 296.477 38.8906C296.789 38.1719 297.227 37.6172 297.789 37.2266C298.352 36.8359 299.008 36.6406 299.758 36.6406C300.398 36.6406 300.93 36.7812 301.352 37.0625C301.773 37.3438 301.984 37.6875 301.984 38.0938C301.984 38.3125 301.906 38.4922 301.75 38.6328C301.609 38.7578 301.43 38.8203 301.211 38.8203C300.82 38.8203 300.453 38.6484 300.109 38.3047L299.031 37.2734L299.594 37.4141C299.016 37.4141 298.57 37.7109 298.258 38.3047C297.945 38.8984 297.789 39.7344 297.789 40.8125V42.9688L297.813 44.1406L297.836 48.1719C297.836 48.8438 297.844 49.5234 297.859 50.2109C297.875 50.8984 297.891 51.4297 297.906 51.8047L299.828 52.1094L299.781 53ZM294.32 44.1406V43.3672L296.008 42.9688H300.391V44.1406H294.32Z" fill="white"/>
<path d="M139.141 65.1484L139.656 68.9453L138.625 69.0625L137.641 66.4141C137.516 66.3828 137.367 66.3672 137.195 66.3672C137.039 66.3516 136.898 66.3438 136.773 66.3438H135.93C135.773 66.3438 135.563 66.3438 135.297 66.3438C135.031 66.3438 134.789 66.3516 134.57 66.3672C134.57 66.4922 134.563 66.7891 134.547 67.2578C134.547 67.7109 134.547 68.2422 134.547 68.8516C134.547 69.4609 134.547 70.0469 134.547 70.6094V73.7734C134.547 74.7734 134.555 75.6406 134.57 76.375C134.586 77.0938 134.594 77.5625 134.594 77.7812L136.586 78.0625L136.516 79H130.539L130.492 78.0625L132.461 77.7812C132.461 77.5625 132.469 77.0938 132.484 76.375C132.5 75.6406 132.508 74.7734 132.508 73.7734V70.6094C132.508 70.0469 132.508 69.4609 132.508 68.8516C132.508 68.2422 132.508 67.7109 132.508 67.2578C132.508 66.7891 132.5 66.4922 132.484 66.3672C132.281 66.3516 132.047 66.3438 131.781 66.3438C131.531 66.3438 131.32 66.3438 131.148 66.3438H130.234C130.109 66.3438 129.969 66.3516 129.813 66.3672C129.656 66.3672 129.516 66.3828 129.391 66.4141L128.43 69.0859L127.375 68.9453L127.891 65.1484C128.078 65.1641 128.266 65.1797 128.453 65.1953C128.641 65.1953 128.828 65.2031 129.016 65.2188C129.203 65.2188 129.391 65.2266 129.578 65.2422C129.781 65.2422 129.977 65.2422 130.164 65.2422H136.867C137.055 65.2422 137.242 65.2422 137.43 65.2422C137.617 65.2266 137.805 65.2188 137.992 65.2188C138.18 65.2031 138.367 65.1953 138.555 65.1953C138.758 65.1797 138.953 65.1641 139.141 65.1484Z" fill="white"/>
<path d="M144.93 79.1875C144.023 79.1875 143.203 78.9844 142.469 78.5781C141.75 78.1719 141.172 77.5938 140.734 76.8438C140.313 76.0781 140.102 75.1797 140.102 74.1484C140.102 73.0391 140.328 72.0781 140.781 71.2656C141.234 70.4531 141.828 69.8281 142.563 69.3906C143.297 68.9375 144.086 68.7188 144.93 68.7344C146.148 68.75 147.102 69.1562 147.789 69.9531C148.477 70.75 148.82 71.875 148.82 73.3281V73.75H141.625V72.7188H147.273L147.016 73.0234V72.5312C147.016 71.625 146.813 70.9297 146.406 70.4453C146 69.9609 145.445 69.7188 144.742 69.7188C144.305 69.7188 143.883 69.8516 143.477 70.1172C143.07 70.3672 142.742 70.7578 142.492 71.2891C142.242 71.8047 142.117 72.4609 142.117 73.2578V73.5391C142.117 74.8203 142.43 75.8203 143.055 76.5391C143.695 77.2578 144.516 77.6172 145.516 77.6172C146.063 77.6172 146.555 77.5078 146.992 77.2891C147.43 77.0703 147.852 76.7188 148.258 76.2344L148.844 76.7734C148.406 77.5859 147.852 78.1953 147.18 78.6016C146.508 78.9922 145.758 79.1875 144.93 79.1875Z" fill="white"/>
<path d="M155.453 79.1875C154.578 79.1875 153.773 78.9922 153.039 78.6016C152.305 78.1953 151.719 77.6172 151.281 76.8672C150.844 76.1016 150.625 75.1953 150.625 74.1484C150.625 73.1328 150.852 72.2188 151.305 71.4062C151.773 70.5781 152.406 69.9297 153.203 69.4609C154.016 68.9766 154.922 68.7344 155.922 68.7344C156.609 68.7344 157.188 68.8203 157.656 68.9922C158.125 69.1641 158.477 69.3906 158.711 69.6719C158.961 69.9531 159.086 70.25 159.086 70.5625C159.086 70.8125 159.008 71.0234 158.852 71.1953C158.695 71.3516 158.477 71.4297 158.195 71.4297C157.945 71.4297 157.727 71.3828 157.539 71.2891C157.352 71.1953 157.125 71.0078 156.859 70.7266L155.664 69.5312L156.508 69.7656C155.883 69.625 155.281 69.6875 154.703 69.9531C154.125 70.2031 153.648 70.6484 153.273 71.2891C152.898 71.9141 152.711 72.7266 152.711 73.7266C152.711 74.9766 153.023 75.9375 153.648 76.6094C154.289 77.2812 155.086 77.6172 156.039 77.6172C156.633 77.6172 157.141 77.5078 157.563 77.2891C158 77.0703 158.414 76.7188 158.805 76.2344L159.438 76.7734C159 77.5859 158.445 78.1953 157.773 78.6016C157.102 78.9922 156.328 79.1875 155.453 79.1875Z" fill="white"/>
<path d="M160.234 79L160.188 78.1562L161.641 77.8047C161.672 77.6328 161.695 77.375 161.711 77.0312C161.727 76.6719 161.734 76.1953 161.734 75.6016C161.75 75.0078 161.758 74.2812 161.758 73.4219V70.4922C161.758 69.9609 161.75 69.3906 161.734 68.7812C161.734 68.1719 161.727 67.5859 161.711 67.0234C161.711 66.4453 161.703 65.9453 161.688 65.5234C161.688 65.1016 161.68 64.8203 161.664 64.6797L159.93 64.4453L159.883 63.6953L163.188 62.7344L163.633 63.0625C163.617 63.5469 163.602 64.0312 163.586 64.5156C163.57 65 163.555 65.5234 163.539 66.0859C163.539 66.6328 163.531 67.2578 163.516 67.9609C163.516 68.6641 163.516 69.4766 163.516 70.3984L163.586 70.4219C164.133 69.8281 164.664 69.3984 165.18 69.1328C165.711 68.8672 166.289 68.7344 166.914 68.7344C167.492 68.7344 168.031 68.8828 168.531 69.1797C169.047 69.4766 169.461 69.9297 169.773 70.5391C170.102 71.1328 170.266 71.8984 170.266 72.8359V75.3672C170.266 75.9297 170.281 76.4375 170.313 76.8906C170.344 77.3281 170.375 77.6328 170.406 77.8047L171.859 78.1562L171.813 79H167.102L167.031 78.1562L168.391 77.8047C168.406 77.6797 168.422 77.5234 168.438 77.3359C168.453 77.1484 168.461 76.9141 168.461 76.6328C168.477 76.3359 168.484 75.9688 168.484 75.5312V73C168.484 72.3281 168.367 71.7891 168.133 71.3828C167.914 70.9609 167.625 70.6562 167.266 70.4688C166.906 70.2656 166.523 70.1641 166.117 70.1641C165.617 70.1641 165.141 70.2969 164.688 70.5625C164.234 70.8125 163.852 71.1641 163.539 71.6172V75.1328C163.539 75.8516 163.547 76.4453 163.563 76.9141C163.594 77.3828 163.625 77.6797 163.656 77.8047L165.086 78.1562L165.039 79H160.234Z" fill="white"/>
<path d="M173.125 79L173.078 78.1562L174.531 77.8047C174.547 77.6953 174.555 77.5469 174.555 77.3594C174.57 77.1719 174.586 76.9141 174.602 76.5859C174.617 76.2578 174.625 75.8281 174.625 75.2969L174.648 73.4922C174.648 72.9766 174.625 72.4688 174.578 71.9688C174.547 71.4531 174.508 71.0469 174.461 70.75L172.961 70.4219V69.6484L176.102 68.7812L176.5 69.1562L176.383 70.3984L176.453 70.4219C177 69.8281 177.539 69.3984 178.07 69.1328C178.602 68.8672 179.18 68.7344 179.805 68.7344C180.383 68.7344 180.922 68.8828 181.422 69.1797C181.938 69.4609 182.352 69.8984 182.664 70.4922C182.992 71.0859 183.156 71.8438 183.156 72.7656V75.3672C183.156 75.9297 183.164 76.4375 183.18 76.8906C183.211 77.3438 183.25 77.6484 183.297 77.8047L184.75 78.1562L184.68 79H179.969L179.922 78.1562L181.281 77.8047C181.297 77.6797 181.313 77.5234 181.328 77.3359C181.344 77.1484 181.352 76.9141 181.352 76.6328C181.367 76.3359 181.375 75.9688 181.375 75.5312V73C181.375 72.2969 181.25 71.7422 181 71.3359C180.766 70.9141 180.469 70.6172 180.109 70.4453C179.75 70.2578 179.383 70.1641 179.008 70.1641C178.492 70.1641 178.008 70.2969 177.555 70.5625C177.117 70.8125 176.742 71.1641 176.43 71.6172V75.1328C176.43 75.8516 176.438 76.4375 176.453 76.8906C176.484 77.3281 176.516 77.6328 176.547 77.8047L178 78.1562L177.93 79H173.125Z" fill="white"/>
<path d="M191.313 79.1875C190.297 79.1875 189.406 78.9688 188.641 78.5312C187.891 78.0938 187.305 77.4844 186.883 76.7031C186.461 75.9062 186.25 75 186.25 73.9844C186.25 72.9219 186.484 72 186.953 71.2188C187.422 70.4375 188.047 69.8281 188.828 69.3906C189.609 68.9531 190.469 68.7344 191.406 68.7344C192.375 68.7344 193.219 68.9531 193.938 69.3906C194.672 69.8125 195.234 70.4141 195.625 71.1953C196.031 71.9609 196.234 72.8594 196.234 73.8906C196.234 74.875 196.016 75.7656 195.578 76.5625C195.141 77.3594 194.547 78 193.797 78.4844C193.063 78.9531 192.234 79.1875 191.313 79.1875ZM191.547 78.0859C192.078 78.0859 192.539 77.9297 192.93 77.6172C193.32 77.2891 193.625 76.8438 193.844 76.2812C194.063 75.7031 194.172 75.0469 194.172 74.3125C194.172 72.9688 193.891 71.8828 193.328 71.0547C192.781 70.2109 192.055 69.7891 191.148 69.7891C190.305 69.7891 189.625 70.1406 189.109 70.8438C188.609 71.5469 188.359 72.4766 188.359 73.6328C188.359 74.5078 188.492 75.2812 188.758 75.9531C189.039 76.625 189.422 77.1484 189.906 77.5234C190.391 77.8984 190.938 78.0859 191.547 78.0859Z" fill="white"/>
<path d="M197.852 79L197.805 78.1328L199.328 77.8047C199.359 77.6484 199.383 77.3906 199.398 77.0312C199.414 76.6719 199.422 76.1953 199.422 75.6016C199.438 75.0078 199.445 74.2812 199.445 73.4219V70.4922C199.445 69.8984 199.438 69.2891 199.422 68.6641C199.422 68.0391 199.414 67.4531 199.398 66.9062C199.398 66.3438 199.391 65.8672 199.375 65.4766C199.375 65.0703 199.367 64.8047 199.352 64.6797L197.617 64.4453L197.57 63.6953L200.922 62.7344L201.367 63.0625C201.352 63.7188 201.336 64.375 201.32 65.0312C201.305 65.6875 201.289 66.4141 201.273 67.2109C201.273 68.0078 201.273 68.9688 201.273 70.0938L201.25 73.8672C201.25 74.7891 201.258 75.625 201.273 76.375C201.305 77.1094 201.336 77.5859 201.367 77.8047L202.891 78.1328L202.844 79H197.852Z" fill="white"/>
<path d="M209.523 79.1875C208.508 79.1875 207.617 78.9688 206.852 78.5312C206.102 78.0938 205.516 77.4844 205.094 76.7031C204.672 75.9062 204.461 75 204.461 73.9844C204.461 72.9219 204.695 72 205.164 71.2188C205.633 70.4375 206.258 69.8281 207.039 69.3906C207.82 68.9531 208.68 68.7344 209.617 68.7344C210.586 68.7344 211.43 68.9531 212.148 69.3906C212.883 69.8125 213.445 70.4141 213.836 71.1953C214.242 71.9609 214.445 72.8594 214.445 73.8906C214.445 74.875 214.227 75.7656 213.789 76.5625C213.352 77.3594 212.758 78 212.008 78.4844C211.273 78.9531 210.445 79.1875 209.523 79.1875ZM209.758 78.0859C210.289 78.0859 210.75 77.9297 211.141 77.6172C211.531 77.2891 211.836 76.8438 212.055 76.2812C212.273 75.7031 212.383 75.0469 212.383 74.3125C212.383 72.9688 212.102 71.8828 211.539 71.0547C210.992 70.2109 210.266 69.7891 209.359 69.7891C208.516 69.7891 207.836 70.1406 207.32 70.8438C206.82 71.5469 206.57 72.4766 206.57 73.6328C206.57 74.5078 206.703 75.2812 206.969 75.9531C207.25 76.625 207.633 77.1484 208.117 77.5234C208.602 77.8984 209.148 78.0859 209.758 78.0859Z" fill="white"/>
<path d="M220.867 84.3438C219.43 84.3438 218.289 84.1094 217.445 83.6406C216.602 83.1719 216.18 82.5469 216.18 81.7656C216.18 81.2344 216.391 80.7422 216.813 80.2891C217.234 79.8359 217.914 79.375 218.852 78.9062L219.742 79.0938C219.227 79.3906 218.828 79.7344 218.547 80.125C218.266 80.5312 218.125 80.9609 218.125 81.4141C218.125 82.0391 218.375 82.5234 218.875 82.8672C219.391 83.2109 220.086 83.3828 220.961 83.3828C221.977 83.3828 222.797 83.1641 223.422 82.7266C224.047 82.2891 224.359 81.7266 224.359 81.0391C224.359 80.5078 224.164 80.1094 223.773 79.8438C223.398 79.5938 222.773 79.4375 221.898 79.375L219.391 79.1641L219.039 79.0703C218.461 79.0703 217.969 78.9219 217.563 78.625C217.172 78.3125 216.977 77.9375 216.977 77.5C216.977 77.0781 217.18 76.6641 217.586 76.2578C217.992 75.8516 218.555 75.4922 219.273 75.1797L219.578 75.6484C219.281 75.8516 219.063 76.0391 218.922 76.2109C218.781 76.3672 218.711 76.5234 218.711 76.6797C218.711 76.8984 218.805 77.0859 218.992 77.2422C219.195 77.3984 219.477 77.4922 219.836 77.5234L222.859 77.8281C223.938 77.9375 224.758 78.2109 225.32 78.6484C225.883 79.0859 226.164 79.7109 226.164 80.5234C226.164 81.2422 225.93 81.8906 225.461 82.4688C224.992 83.0469 224.359 83.5 223.563 83.8281C222.766 84.1719 221.867 84.3438 220.867 84.3438ZM221.055 76.0938C220.227 76.0938 219.484 75.9453 218.828 75.6484C218.188 75.3516 217.688 74.9453 217.328 74.4297C216.969 73.8984 216.789 73.2969 216.789 72.625C216.789 71.8906 216.977 71.2344 217.352 70.6562C217.727 70.0625 218.234 69.6016 218.875 69.2734C219.516 68.9297 220.234 68.7578 221.031 68.7578C221.828 68.7578 222.539 68.9141 223.164 69.2266C223.805 69.5391 224.305 69.9766 224.664 70.5391C225.023 71.0859 225.203 71.7109 225.203 72.4141C225.203 73.1016 225.016 73.7266 224.641 74.2891C224.281 74.8516 223.789 75.2969 223.164 75.625C222.539 75.9375 221.836 76.0938 221.055 76.0938ZM221.172 75.1562C221.813 75.1562 222.32 74.9219 222.695 74.4531C223.07 73.9844 223.258 73.3594 223.258 72.5781C223.258 71.7031 223.047 71 222.625 70.4688C222.219 69.9375 221.68 69.6719 221.008 69.6719C220.367 69.6719 219.844 69.9219 219.438 70.4219C219.031 70.9219 218.828 71.5703 218.828 72.3672C218.828 73.1953 219.039 73.8672 219.461 74.3828C219.898 74.8984 220.469 75.1562 221.172 75.1562ZM226.609 70.4453L223.82 70.2578L222.906 69.3203L226.609 68.9453V70.4453Z" fill="white"/>
<path d="M232.141 79.0938L228.016 70.1172L226.914 69.7656L226.984 68.9219H231.531L231.578 69.7656L230.125 70.1172L233.313 77.2422L232.141 79.0938ZM238.141 68.9219L238.211 69.7656L237.109 70.1172L233.125 78.4844L231.25 82.375C230.906 83.0938 230.539 83.6016 230.148 83.8984C229.773 84.1953 229.336 84.3438 228.836 84.3438C228.445 84.3438 228.125 84.25 227.875 84.0625C227.641 83.875 227.523 83.6328 227.523 83.3359C227.523 83.1016 227.617 82.875 227.805 82.6562C227.992 82.4531 228.281 82.2969 228.672 82.1875L230.852 81.5312L229.773 82.7031L232.375 77.6875L232.633 77.2656L235.68 70.1172L234.227 69.7656L234.273 68.9219H238.141Z" fill="white"/>
<path d="M243.883 65.2422H247.938L252.859 76.4688H252.438L257.266 65.2422H261.063L261.133 66.1328L259.68 66.4375C259.664 66.6562 259.656 67.0703 259.656 67.6797C259.672 68.2734 259.688 68.9141 259.703 69.6016L259.797 73.8906C259.813 74.6719 259.828 75.3281 259.844 75.8594C259.859 76.375 259.875 76.7891 259.891 77.1016C259.906 77.4141 259.922 77.6484 259.938 77.8047L261.367 78.1094L261.32 79H256.352L256.281 78.1094L257.711 77.8047C257.727 77.6172 257.734 77.3984 257.734 77.1484C257.734 76.8984 257.734 76.5469 257.734 76.0938C257.734 75.6406 257.727 75.0234 257.711 74.2422L257.664 65.9219H258.273L252.602 79.0703H251.781L245.969 65.8984H246.578L246.602 73.8672C246.602 75.1641 246.602 76.1094 246.602 76.7031C246.617 77.2812 246.633 77.6406 246.648 77.7812L248.242 78.1094L248.172 79H243.578L243.508 78.1094L245.102 77.7812C245.117 77.6719 245.125 77.4688 245.125 77.1719C245.141 76.875 245.156 76.4844 245.172 76C245.188 75.5 245.195 74.9141 245.195 74.2422L245.266 69.6016C245.281 68.9141 245.281 68.2891 245.266 67.7266C245.266 67.1484 245.266 66.7266 245.266 66.4609L243.836 66.1328L243.883 65.2422Z" fill="white"/>
<path d="M267.086 79.1875C266.461 79.1875 265.906 79.0625 265.422 78.8125C264.938 78.5625 264.555 78.2422 264.273 77.8516C264.008 77.4609 263.875 77.0547 263.875 76.6328C263.875 76.1016 264.047 75.6641 264.391 75.3203C264.734 74.9766 265.297 74.6797 266.078 74.4297L269.641 73.2344V72.0391C269.641 71.6484 269.523 71.2969 269.289 70.9844C269.055 70.6562 268.742 70.3984 268.352 70.2109C267.961 70.0234 267.523 69.9297 267.039 69.9297C266.648 69.9297 266.383 70.0156 266.242 70.1875C266.102 70.3438 266.016 70.6641 265.984 71.1484L265.938 72.1328C265.375 72.2578 264.898 72.2422 264.508 72.0859C264.117 71.9141 263.922 71.6406 263.922 71.2656C263.922 71 264.031 70.7344 264.25 70.4688C264.484 70.2031 264.789 69.9531 265.164 69.7188C265.539 69.4688 265.945 69.2578 266.383 69.0859C266.82 68.9141 267.25 68.7969 267.672 68.7344C268.828 68.7344 269.75 69.0391 270.438 69.6484C271.141 70.2578 271.5 71.0547 271.516 72.0391L271.469 75.9766C271.469 76.2734 271.477 76.5625 271.492 76.8438C271.523 77.125 271.563 77.3359 271.609 77.4766L273.109 77.7578V78.4844L271.961 78.9062C271.742 78.9844 271.539 79.0469 271.352 79.0938C271.164 79.1562 271.008 79.1875 270.883 79.1875C270.398 79.1875 270.086 78.9141 269.945 78.3672L269.688 77.4531H270.039C269.523 78.0312 269.023 78.4688 268.539 78.7656C268.07 79.0469 267.586 79.1875 267.086 79.1875ZM267.719 77.8047C268.078 77.8047 268.414 77.7266 268.727 77.5703C269.039 77.3984 269.344 77.1406 269.641 76.7969V74.3359L267.016 75.0391C266.641 75.1328 266.367 75.2812 266.195 75.4844C266.039 75.6875 265.961 75.9453 265.961 76.2578C265.961 76.6484 266.133 77.0078 266.477 77.3359C266.836 77.6484 267.25 77.8047 267.719 77.8047Z" fill="white"/>
<path d="M282.578 79.2578L282.227 78.9531L282.25 77.4297L282.18 77.4062C281.711 78.0625 281.227 78.5234 280.727 78.7891C280.242 79.0547 279.727 79.1875 279.18 79.1875C278.289 79.1875 277.492 78.9844 276.789 78.5781C276.102 78.1562 275.555 77.5781 275.148 76.8438C274.742 76.1094 274.539 75.2656 274.539 74.3125C274.539 73.4844 274.68 72.7266 274.961 72.0391C275.242 71.3516 275.625 70.7656 276.109 70.2812C276.609 69.7812 277.172 69.3984 277.797 69.1328C278.422 68.8672 279.07 68.7344 279.742 68.7344C280.18 68.7344 280.625 68.7891 281.078 68.8984C281.531 69.0078 281.914 69.1797 282.227 69.4141C282.227 69.1328 282.219 68.7656 282.203 68.3125C282.203 67.8594 282.195 67.3906 282.18 66.9062C282.18 66.4062 282.172 65.9688 282.156 65.5938C282.156 65.2031 282.148 64.9375 282.133 64.7969L280.305 64.4688L280.258 63.6953L283.703 62.7344L284.125 63.0625C284.094 64.0312 284.07 64.9688 284.055 65.875C284.039 66.7812 284.031 67.7266 284.031 68.7109L284.008 74.1016C284.008 74.8984 284.023 75.5859 284.055 76.1641C284.102 76.7266 284.133 77.125 284.148 77.3594L285.648 77.7344V78.5078L282.578 79.2578ZM279.766 77.6172C280.219 77.6172 280.641 77.5234 281.031 77.3359C281.422 77.1328 281.82 76.7812 282.227 76.2812V71.2422C281.93 70.7109 281.555 70.3359 281.102 70.1172C280.648 69.8984 280.195 69.7891 279.742 69.7891C278.758 69.7891 277.984 70.1562 277.422 70.8906C276.875 71.6094 276.602 72.5469 276.602 73.7031C276.602 74.9375 276.906 75.8984 277.516 76.5859C278.141 77.2734 278.891 77.6172 279.766 77.6172Z" fill="white"/>
<path d="M287.008 79L286.938 78.1562L288.391 77.8047C288.406 77.7266 288.422 77.5859 288.438 77.3828C288.453 77.1797 288.461 76.9062 288.461 76.5625C288.477 76.2188 288.484 75.7969 288.484 75.2969L288.508 73.4688C288.508 72.9531 288.484 72.4453 288.438 71.9453C288.406 71.4453 288.367 71.0469 288.32 70.75L286.82 70.4219V69.6484L289.961 68.7812L290.289 69.1094L290.195 71.0781L290.266 71.1016C290.734 70.1953 291.211 69.5859 291.695 69.2734C292.18 68.9453 292.633 68.7812 293.055 68.7812C293.414 68.7812 293.711 68.875 293.945 69.0625C294.195 69.2344 294.32 69.5 294.32 69.8594C294.32 70.2344 294.188 70.5234 293.922 70.7266C293.672 70.9141 293.352 71.0078 292.961 71.0078C292.68 71.0078 292.406 70.9453 292.141 70.8203C291.891 70.6953 291.648 70.5234 291.414 70.3047L291.836 70.4453C291.539 70.6328 291.258 70.8984 290.992 71.2422C290.727 71.5703 290.484 71.9844 290.266 72.4844L290.289 74.6641C290.305 75.0547 290.32 75.4609 290.336 75.8828C290.352 76.3047 290.367 76.6875 290.383 77.0312C290.398 77.3594 290.414 77.6172 290.43 77.8047L292.469 78.1094L292.422 79H287.008Z" fill="white"/>
<path d="M298.891 79.1875C298.266 79.1875 297.711 79.0625 297.227 78.8125C296.742 78.5625 296.359 78.2422 296.078 77.8516C295.813 77.4609 295.68 77.0547 295.68 76.6328C295.68 76.1016 295.852 75.6641 296.195 75.3203C296.539 74.9766 297.102 74.6797 297.883 74.4297L301.445 73.2344V72.0391C301.445 71.6484 301.328 71.2969 301.094 70.9844C300.859 70.6562 300.547 70.3984 300.156 70.2109C299.766 70.0234 299.328 69.9297 298.844 69.9297C298.453 69.9297 298.188 70.0156 298.047 70.1875C297.906 70.3438 297.82 70.6641 297.789 71.1484L297.742 72.1328C297.18 72.2578 296.703 72.2422 296.313 72.0859C295.922 71.9141 295.727 71.6406 295.727 71.2656C295.727 71 295.836 70.7344 296.055 70.4688C296.289 70.2031 296.594 69.9531 296.969 69.7188C297.344 69.4688 297.75 69.2578 298.188 69.0859C298.625 68.9141 299.055 68.7969 299.477 68.7344C300.633 68.7344 301.555 69.0391 302.242 69.6484C302.945 70.2578 303.305 71.0547 303.32 72.0391L303.273 75.9766C303.273 76.2734 303.281 76.5625 303.297 76.8438C303.328 77.125 303.367 77.3359 303.414 77.4766L304.914 77.7578V78.4844L303.766 78.9062C303.547 78.9844 303.344 79.0469 303.156 79.0938C302.969 79.1562 302.813 79.1875 302.688 79.1875C302.203 79.1875 301.891 78.9141 301.75 78.3672L301.492 77.4531H301.844C301.328 78.0312 300.828 78.4688 300.344 78.7656C299.875 79.0469 299.391 79.1875 298.891 79.1875ZM299.523 77.8047C299.883 77.8047 300.219 77.7266 300.531 77.5703C300.844 77.3984 301.148 77.1406 301.445 76.7969V74.3359L298.82 75.0391C298.445 75.1328 298.172 75.2812 298 75.4844C297.844 75.6875 297.766 75.9453 297.766 76.2578C297.766 76.6484 297.938 77.0078 298.281 77.3359C298.641 77.6484 299.055 77.8047 299.523 77.8047Z" fill="white"/>
<path d="M310 79.1875C309.422 79.1875 308.844 79.125 308.266 79C307.688 78.8594 307.195 78.6797 306.789 78.4609L306.672 75.9531H307.82L308.289 77.6406C308.836 78.0156 309.461 78.2031 310.164 78.2031C310.695 78.2031 311.125 78.0781 311.453 77.8281C311.781 77.5625 311.945 77.2109 311.945 76.7734C311.945 76.3672 311.797 76.0156 311.5 75.7188C311.203 75.4062 310.625 75.0703 309.766 74.7109C308.656 74.2266 307.875 73.7656 307.422 73.3281C306.969 72.875 306.742 72.2969 306.742 71.5938C306.742 71.0312 306.906 70.5391 307.234 70.1172C307.578 69.6797 308.047 69.3438 308.641 69.1094C309.234 68.8594 309.922 68.7344 310.703 68.7344C311.141 68.7344 311.586 68.7734 312.039 68.8516C312.492 68.9297 312.867 69.0312 313.164 69.1562L313.422 71.5938H312.32L311.758 70C311.602 69.9062 311.414 69.8359 311.195 69.7891C310.977 69.7266 310.742 69.6953 310.492 69.6953C309.945 69.6953 309.508 69.8281 309.18 70.0938C308.852 70.3438 308.688 70.6719 308.688 71.0781C308.688 71.5469 308.867 71.9297 309.227 72.2266C309.586 72.5078 310.219 72.8594 311.125 73.2812C312.156 73.75 312.875 74.2109 313.281 74.6641C313.688 75.1172 313.891 75.6641 313.891 76.3047C313.891 77.1484 313.523 77.8438 312.789 78.3906C312.055 78.9219 311.125 79.1875 310 79.1875Z" fill="white"/>
</svg>
