<svg width="284" height="31" viewBox="0 0 284 31" fill="none" xmlns="http://www.w3.org/2000/svg">
<path d="M28 14C28 21.728 21.728 28 14 28C6.272 28 0 21.728 0 14C0 6.272 6.272 0 14 0H14.0093C21.7373 0 28.0093 6.272 28 14Z" fill="#670C09"/>
<path d="M24.808 14C24.808 19.964 19.964 24.7987 14 24.7987C8.036 24.7987 3.20134 19.9547 3.20134 13.9907C3.21067 8.02667 8.04533 3.192 14.0093 3.192C19.9733 3.192 24.808 8.036 24.808 14Z" fill="#D19E42"/>
<path d="M14.0093 24.948C7.96133 24.948 3.06134 20.048 3.06134 14.0093C3.06134 7.97067 7.96134 3.06133 14 3.06133C20.0387 3.06133 24.948 7.96133 24.948 14V14.0093C24.948 20.0387 20.048 24.9387 14.0093 24.948ZM14.0093 3.34133C8.12 3.34133 3.35067 8.11067 3.35067 13.9907C3.35067 19.8707 8.12 24.6493 14 24.6493C19.88 24.6493 24.6587 19.8893 24.6587 14C24.6587 8.11067 19.8893 3.35067 14.0093 3.34133Z" fill="white"/>
<path d="M4.648 23.296L5.80534 22.1107L6.076 22.372L4.91867 23.5573L4.648 23.296Z" fill="white"/>
<path d="M5.46933 21.7747L4.18133 22.82L3.90133 22.484L4.15333 21.8307C4.228 21.6347 4.32133 21.448 4.424 21.2613C4.256 21.42 4.088 21.5787 3.90133 21.7187L3.528 22.0267L3.31333 21.756L4.60133 20.7107L4.85333 21.0187L4.57333 21.7C4.48933 21.9053 4.40533 22.1013 4.30266 22.288L4.312 22.2973C4.48 22.148 4.65733 21.9987 4.86266 21.8213L5.25466 21.504L5.46933 21.7747Z" fill="white"/>
<path d="M3.91067 20.132C3.892 20.0947 3.87334 20.048 3.85467 20.02C3.68667 19.7213 3.416 19.6187 3.07067 19.8147C2.76267 19.992 2.716 20.2533 2.87467 20.5333C2.90267 20.58 2.93067 20.6267 2.968 20.6733L3.91067 20.132ZM2.92134 21.1307C2.81867 21 2.72534 20.86 2.64134 20.7107C2.48267 20.4307 2.42667 20.2253 2.45467 20.0293C2.48267 19.8147 2.604 19.6187 2.86534 19.4693C3.08 19.3293 3.34134 19.3013 3.584 19.376C3.79867 19.46 3.99467 19.656 4.15334 19.936C4.228 20.0573 4.284 20.188 4.34 20.3187L2.92134 21.1307Z" fill="white"/>
<path d="M1.78266 18.9747L3.31333 18.3213L3.46266 18.6667L1.932 19.32L1.78266 18.9747Z" fill="white"/>
<path d="M2.22134 17.3133L1.91334 17.5093C1.82934 17.5653 1.71734 17.6307 1.63334 17.6773V17.6867C1.736 17.6773 1.86667 17.668 1.96 17.668H2.324L2.22134 17.3133ZM2.61334 17.6307L3.052 17.6213L3.164 17.9947L1.428 17.976L1.288 17.5093L2.73467 16.5387L2.84667 16.9307L2.47334 17.1733L2.61334 17.6307Z" fill="white"/>
<path d="M2.66933 16.184L1.02666 16.3987L0.970662 15.96L1.53066 15.54C1.69866 15.4187 1.87599 15.2973 2.06266 15.1947V15.1853C1.83866 15.2413 1.60533 15.2787 1.38133 15.3067L0.905328 15.372L0.858662 15.0267L2.51066 14.812L2.55733 15.204L1.96933 15.6427C1.79199 15.7733 1.61466 15.8947 1.42799 15.9973V16.0067C1.64266 15.9693 1.87599 15.932 2.14666 15.8947L2.64133 15.8293L2.66933 16.184Z" fill="white"/>
<path d="M0.840004 13.2533L2.50134 13.3187L2.48267 13.692L0.821338 13.6267L0.840004 13.2533Z" fill="white"/>
<path d="M2.52 12.8427L0.877335 12.5813L0.942669 12.152L1.596 11.9093C1.792 11.8347 1.99733 11.7787 2.20267 11.732C1.97867 11.7227 1.75467 11.6947 1.512 11.648L1.036 11.564L1.092 11.2187L2.73467 11.48L2.66933 11.872L1.97867 12.124C1.77333 12.1987 1.568 12.264 1.35334 12.32V12.3293C1.57734 12.348 1.81067 12.3853 2.072 12.432L2.56667 12.516L2.52 12.8427Z" fill="white"/>
<path d="M2.492 10.9013C2.59467 10.7987 2.66933 10.668 2.716 10.5373C2.76267 10.3693 2.72533 10.2667 2.62267 10.2293C2.52 10.192 2.44533 10.2573 2.31467 10.4253C2.13733 10.6587 1.94133 10.7893 1.708 10.7147C1.43733 10.6307 1.30667 10.3413 1.41867 9.968C1.456 9.828 1.53067 9.69733 1.624 9.58533L1.88533 9.75333C1.80133 9.83733 1.74533 9.94 1.708 10.0613C1.66133 10.22 1.708 10.3133 1.792 10.3413C1.89467 10.3693 1.96933 10.304 2.10933 10.1173C2.296 9.86533 2.48267 9.78133 2.716 9.856C2.98667 9.94 3.14533 10.2107 3.00533 10.6493C2.95867 10.808 2.87467 10.948 2.76267 11.0693L2.492 10.9013Z" fill="white"/>
<path d="M2.24 8.77333L2.05333 9.184L1.764 9.044L2.30533 7.88667L2.59467 8.01733L2.408 8.428L3.63067 8.988L3.46267 9.33333L2.24 8.77333Z" fill="white"/>
<path d="M2.75333 7.112L4.18133 7.96133L3.99467 8.27867L2.55733 7.42933L2.75333 7.112Z" fill="white"/>
<path d="M3.54667 6.496L3.276 6.85067L3.024 6.664L3.78 5.63733L4.032 5.824L3.76133 6.188L4.844 6.99067L4.62 7.28933L3.54667 6.496Z" fill="white"/>
<path d="M4.424 4.928L5.10533 5.6C5.31066 5.80533 5.488 5.824 5.628 5.69333C5.768 5.56267 5.74 5.376 5.53466 5.17067L4.85333 4.49867L5.11466 4.228L5.77733 4.88133C6.14133 5.24533 6.132 5.6 5.824 5.908C5.516 6.216 5.18933 6.216 4.816 5.84267L4.16266 5.18933L4.424 4.928Z" fill="white"/>
<path d="M6.11333 3.82667L5.75866 4.09733L5.57199 3.84533L6.57999 3.08L6.76666 3.332L6.40266 3.60267L7.21466 4.676L6.91599 4.9L6.11333 3.82667Z" fill="white"/>
<path d="M8.39066 3.11733L7.85866 3.416L8.05466 3.76133L8.65199 3.42533L8.80133 3.696L7.88666 4.21867L7.06533 2.772L7.95199 2.268L8.10133 2.53867L7.54133 2.856L7.70933 3.15467L8.24133 2.856L8.39066 3.11733Z" fill="white"/>
<path d="M10.36 2.772C10.6027 2.69733 10.668 2.41733 10.5653 2.10933C10.472 1.82933 10.2573 1.624 10.0147 1.708C9.77199 1.792 9.70666 2.072 9.79999 2.37067C9.89332 2.66933 10.1173 2.856 10.36 2.772ZM10.4347 3.06133C9.96799 3.21067 9.57599 2.94933 9.42666 2.50133C9.26799 2.02533 9.46399 1.57733 9.93066 1.41867C10.416 1.26 10.7987 1.54 10.9387 1.97867C11.1067 2.50133 10.9013 2.92133 10.4347 3.06133Z" fill="white"/>
<path d="M11.3213 1.07333L12.32 0.905333L12.376 1.204L11.7413 1.30667L11.8067 1.68L12.3947 1.57733L12.4413 1.876L11.8533 1.97867L11.9653 2.64133L11.592 2.70667L11.3213 1.07333Z" fill="white"/>
<path d="M14.0187 1.12H13.5707L13.58 0.802667L14.8493 0.821333L14.84 1.13867L14.3827 1.12933L14.364 2.47333L13.9907 2.464L14.0187 1.12Z" fill="white"/>
<path d="M16.2493 1.96L15.6427 1.876L15.5867 2.268L16.2587 2.36133L16.212 2.66933L15.1667 2.52L15.4093 0.877333L16.4267 1.02667L16.38 1.33467L15.736 1.24133L15.6893 1.58667L16.296 1.67067L16.2493 1.96Z" fill="white"/>
<path d="M17.7987 3.04267C17.6587 3.052 17.5093 3.04267 17.3693 2.996C16.8187 2.83733 16.632 2.408 16.7627 1.95067C16.9213 1.4 17.388 1.21333 17.8733 1.35333C18.0133 1.39067 18.1347 1.456 18.2467 1.54L18.088 1.80133C18.004 1.736 17.9107 1.68 17.7987 1.652C17.5187 1.568 17.2387 1.68 17.1453 2.03467C17.052 2.352 17.1827 2.61333 17.5093 2.69733C17.612 2.72533 17.724 2.73467 17.8267 2.73467L17.7987 3.04267Z" fill="white"/>
<path d="M19.1893 1.86667L18.9187 2.44533L19.4787 2.70667L19.7493 2.128L20.0947 2.28667L19.404 3.79867L19.068 3.64L19.3573 3.00533L18.7973 2.744L18.508 3.37867L18.1627 3.22L18.8533 1.708L19.1893 1.86667Z" fill="white"/>
<path d="M19.824 4.02267L20.748 2.64133L21.112 2.884L21.056 3.584C21.0373 3.78933 21.0093 4.004 20.9627 4.20933C21.0747 4.01333 21.1867 3.82667 21.3267 3.62133L21.5973 3.22L21.8867 3.40667L20.9627 4.788L20.636 4.57333L20.692 3.84533C20.7107 3.63067 20.7387 3.416 20.776 3.20133L20.7667 3.192C20.6547 3.37867 20.524 3.584 20.3747 3.808L20.0947 4.228L19.824 4.02267Z" fill="white"/>
<path d="M22.0547 5.376C22.2413 5.544 22.512 5.46933 22.7267 5.236C22.932 5.02133 23.0067 4.732 22.8107 4.55467C22.6147 4.37733 22.344 4.46133 22.1293 4.69467C21.9147 4.928 21.868 5.19867 22.0547 5.376ZM21.84 5.58133C21.4853 5.24533 21.5227 4.77867 21.8493 4.43333C22.1853 4.06933 22.68 4.01333 23.0347 4.34933C23.408 4.69467 23.352 5.17067 23.0347 5.50667C22.6613 5.89867 22.1947 5.908 21.84 5.58133Z" fill="white"/>
<path d="M24.0053 5.38533L24.2386 5.67467L23.1933 6.51467L23.604 7.028L23.3613 7.224L22.7173 6.412L24.0053 5.38533Z" fill="white"/>
<path d="M24.1267 7.93333C24.2573 8.148 24.5373 8.148 24.8173 7.98933C25.0693 7.83067 25.2187 7.588 25.088 7.364C24.9573 7.14 24.668 7.14933 24.3973 7.308C24.1267 7.46667 23.996 7.71867 24.1267 7.93333ZM23.8653 8.07333C23.6133 7.65333 23.7813 7.21467 24.192 6.972C24.6213 6.71067 25.1067 6.79467 25.3587 7.21467C25.62 7.65333 25.4333 8.08267 25.0413 8.32533C24.5653 8.60533 24.1173 8.49333 23.8653 8.07333Z" fill="white"/>
<path d="M25.06 10.3787C24.9387 10.2293 24.836 10.0707 24.7707 9.89333C24.6587 9.61333 24.6493 9.38 24.724 9.184C24.8173 8.97867 24.9853 8.82 25.2 8.74533C25.7133 8.54 26.152 8.80133 26.3573 9.30533C26.4133 9.45467 26.4507 9.604 26.4507 9.76267L26.1427 9.8C26.1427 9.66933 26.124 9.53867 26.068 9.41733C25.956 9.128 25.704 8.96933 25.368 9.1C25.0507 9.23067 24.9387 9.50133 25.0507 9.79067C25.0693 9.84667 25.0973 9.90267 25.1347 9.94933L25.4613 9.81867L25.368 9.576L25.6387 9.464L25.8627 10.0427L25.06 10.3787Z" fill="white"/>
<path d="M25.1906 11.2093L25.8533 11.06L26.6933 10.332L26.7866 10.752L26.432 11.004C26.3293 11.0787 26.2453 11.1347 26.152 11.2V11.2093C26.264 11.2187 26.3666 11.2373 26.488 11.256L26.9173 11.3307L27.0106 11.7413L25.9466 11.424L25.2653 11.5827L25.1906 11.2093Z" fill="white"/>
<path d="M26.18 14.4667C26.376 14.4573 26.6186 14.448 26.8613 14.4387V14.4293C26.6466 14.3733 26.4133 14.3173 26.2173 14.252L25.564 14.056V13.7667L26.1986 13.58C26.3946 13.524 26.628 13.468 26.852 13.4213V13.412C26.628 13.412 26.376 13.4027 26.1613 13.3933L25.5266 13.3747L25.5173 13.0293L27.1786 13.1133L27.188 13.6173L26.6373 13.7853C26.4506 13.8413 26.2453 13.8973 26.0493 13.9347V13.944C26.2453 13.9813 26.46 14.0373 26.6466 14.0933L27.2066 14.2613L27.216 14.756L25.5546 14.868L25.5453 14.504L26.18 14.4667Z" fill="white"/>
<path d="M26.04 16.2213L26.404 16.1747C26.5066 16.1653 26.6373 16.156 26.7306 16.1467C26.6373 16.1093 26.516 16.0627 26.432 16.016L26.1053 15.8573L26.04 16.2213ZM25.8346 15.7547L25.4333 15.568L25.4986 15.1853L27.048 15.9693L26.964 16.4547L25.2373 16.688L25.3026 16.2867L25.7413 16.2307L25.8346 15.7547Z" fill="white"/>
<path d="M25.2933 17.4907C25.2747 17.528 25.256 17.5747 25.2467 17.612C25.1347 17.9387 25.2373 18.2093 25.62 18.34C25.956 18.452 26.18 18.3213 26.292 18.0133C26.3107 17.9573 26.3293 17.9013 26.3293 17.8453L25.2933 17.4907ZM26.6933 17.5653C26.6653 17.7333 26.6187 17.892 26.5627 18.06C26.46 18.3587 26.348 18.536 26.18 18.648C26.012 18.76 25.7693 18.8067 25.4893 18.7133C25.2467 18.648 25.0413 18.4707 24.9387 18.2373C24.8547 18.0227 24.8827 17.752 24.9853 17.444C25.032 17.304 25.088 17.1733 25.144 17.052L26.6933 17.5653Z" fill="white"/>
<path d="M25.1533 19.5533L25.088 19.684C25.004 19.852 25.032 19.992 25.1626 20.0573C25.2933 20.1227 25.4146 20.0667 25.4893 19.9173C25.5173 19.8707 25.536 19.8147 25.5546 19.7587L25.1533 19.5533ZM25.956 19.5533C25.9 19.712 25.8346 19.8707 25.76 20.0107C25.648 20.2347 25.536 20.3653 25.396 20.4307C25.2746 20.4867 25.1346 20.4773 25.0133 20.412C24.8546 20.328 24.7613 20.1413 24.7893 19.964H24.78C24.6866 20.048 24.556 20.048 24.4066 20.02C24.2106 19.9827 23.996 19.9267 23.9306 19.9267L24.108 19.5813C24.2386 19.5907 24.3786 19.6187 24.5 19.656C24.7053 19.712 24.7893 19.6747 24.864 19.5347L24.9106 19.432L24.332 19.1333L24.5 18.8067L25.956 19.5533Z" fill="white"/>
<path d="M23.828 21.2987L24.1733 21.42C24.2667 21.4573 24.388 21.504 24.4813 21.5413V21.532C24.416 21.4573 24.332 21.364 24.2667 21.2893L24.0427 21L23.828 21.2987ZM23.8467 20.7853L23.5667 20.44L23.7907 20.1227L24.836 21.5133L24.5467 21.9053L22.8947 21.3547L23.128 21.028L23.548 21.1773L23.8467 20.7853Z" fill="white"/>
<path d="M22.9227 21.9053C22.7827 21.952 22.6613 22.0267 22.5587 22.1293C22.4373 22.2507 22.428 22.372 22.5027 22.4467C22.5773 22.5213 22.6707 22.5027 22.8667 22.4093C23.128 22.2787 23.3707 22.2507 23.5387 22.4187C23.744 22.6147 23.7347 22.9413 23.464 23.2213C23.3707 23.3333 23.2493 23.4173 23.1093 23.464L22.9507 23.1933C23.0627 23.156 23.1653 23.0907 23.2493 22.9973C23.3613 22.876 23.3613 22.7733 23.3053 22.708C23.2307 22.6333 23.128 22.6707 22.9227 22.764C22.6427 22.904 22.4373 22.8947 22.2693 22.7267C22.0733 22.5307 22.0453 22.2133 22.3627 21.8867C22.4747 21.7653 22.6147 21.6813 22.764 21.616L22.9227 21.9053Z" fill="white"/>
<path d="M21.8307 23.8933C21.8307 24.0333 21.7187 24.136 21.588 24.136C21.4573 24.136 21.3453 24.024 21.3453 23.8933C21.3453 23.7533 21.4573 23.6507 21.588 23.6507C21.7187 23.6507 21.8307 23.7533 21.8307 23.8933Z" fill="white"/>
<path d="M6.67334 23.8933C6.67334 24.0333 6.56133 24.136 6.43067 24.136C6.3 24.136 6.188 24.024 6.188 23.8933C6.188 23.7533 6.3 23.6507 6.43067 23.6507C6.56133 23.6507 6.67334 23.7533 6.67334 23.8933Z" fill="white"/>
<path d="M8.12933 20.608L12.0493 21.308L11.6293 21.7933L15.484 22.1293L15.1013 22.4467L18.9 22.6147L13.8693 23.1093L14.504 22.5493L10.5093 22.1387L11.172 21.644L8.12933 20.608Z" fill="white"/>
<path d="M7.68133 24.024L8.02666 24.2293C8.02666 24.164 8.036 24.108 8.05466 24.0427C8.07333 23.9867 8.092 23.9213 8.12933 23.8747C8.176 23.7907 8.26 23.7347 8.35333 23.716C8.456 23.6973 8.55866 23.716 8.64266 23.772C8.77333 23.856 8.86666 23.9867 8.92266 24.136C9.00666 24.332 9.05333 24.5467 9.06266 24.752L8.988 24.7613C8.97866 24.6027 8.932 24.444 8.85733 24.2947C8.792 24.164 8.69866 24.0613 8.57733 23.9867C8.512 23.9493 8.428 23.94 8.36266 23.9773C8.27866 24.0053 8.21333 24.0707 8.16666 24.1453C8.13866 24.1827 8.12 24.2293 8.11066 24.276L8.24133 24.36L8.26933 24.5747L8.08266 24.4627L7.448 25.5453L7.32666 25.3027L7.88666 24.3413L7.70933 24.2387L7.68133 24.024Z" fill="white"/>
<path d="M8.57733 24.92C8.55867 24.9947 8.53067 25.0693 8.50267 25.1347C8.52133 25.1813 8.54933 25.228 8.58667 25.2653C8.61467 25.3027 8.64267 25.3307 8.68933 25.3493C8.72667 25.368 8.77333 25.3773 8.81067 25.3773C8.85733 25.3773 8.904 25.368 8.94133 25.3493L9.11867 24.9853L8.596 24.7333C8.596 24.7987 8.596 24.8547 8.57733 24.92ZM8.624 25.984L8.82 25.5733C8.80133 25.5733 8.78267 25.5733 8.75467 25.564C8.72667 25.5547 8.68933 25.5453 8.66133 25.5267C8.60533 25.4987 8.55867 25.452 8.52133 25.396C8.47467 25.3307 8.44667 25.2653 8.428 25.1907C8.38133 25.2373 8.32533 25.2747 8.26933 25.2933C8.22267 25.312 8.16667 25.3213 8.11067 25.3213C8.148 25.536 8.232 25.7413 8.344 25.928L8.204 25.984C7.99867 25.396 7.924 25.0413 7.98933 24.92C7.99867 24.892 8.02667 24.864 8.05467 24.8547C8.08267 24.8453 8.11067 24.8453 8.12933 24.8547C8.15733 24.8733 8.176 24.892 8.19467 24.92C8.21333 24.9573 8.21333 24.9947 8.21333 25.032C8.316 25.032 8.4 24.976 8.44667 24.892C8.46533 24.8547 8.47467 24.8173 8.484 24.78C8.49333 24.7427 8.49333 24.7147 8.484 24.6773L8.10133 24.4907L8.064 24.276L9.464 24.9573L9.50133 25.172L9.30533 25.0787L8.75467 26.208L8.624 25.984Z" fill="white"/>
<path d="M9.32399 24.892L9.69733 25.0413C9.68799 24.976 9.68799 24.92 9.68799 24.8547C9.69733 24.7893 9.70666 24.7333 9.72532 24.6773C9.76266 24.5933 9.82799 24.5187 9.92133 24.4907C10.0147 24.4533 10.1173 24.4627 10.2107 24.5C10.3507 24.5653 10.472 24.6773 10.5467 24.808C10.6587 24.9853 10.7333 25.1907 10.78 25.396L10.7147 25.4147C10.6773 25.256 10.612 25.1067 10.5093 24.976C10.4253 24.864 10.3133 24.7707 10.1827 24.7147C10.108 24.6867 10.0333 24.696 9.96799 24.7333C9.89333 24.78 9.83733 24.8453 9.80933 24.9293C9.79066 24.976 9.77199 25.0227 9.77199 25.0693L9.92133 25.1253L9.97733 25.3307L9.78133 25.256L9.32399 26.432L9.16533 26.208L9.56666 25.172L9.37999 25.0973L9.32399 24.892Z" fill="white"/>
<path d="M10.0613 26.5813C10.08 26.6093 10.0987 26.628 10.1267 26.6373C10.192 26.656 10.2573 26.656 10.3227 26.628C10.3973 26.6 10.4627 26.5533 10.5093 26.4973C10.416 26.4787 10.332 26.4413 10.2573 26.376C10.2107 26.376 10.164 26.3853 10.1173 26.4133C10.08 26.432 10.052 26.4693 10.0427 26.5067C10.0427 26.5253 10.052 26.5533 10.0613 26.5813ZM11.2467 25.5547L11.3213 25.76L11.0787 25.6853L10.9667 26.068L10.4347 25.9093C10.3973 25.9 10.3507 25.9 10.3133 25.928C10.276 25.9467 10.248 25.984 10.2387 26.0307C10.22 26.0773 10.2293 26.1333 10.2667 26.18C10.304 26.2267 10.3507 26.264 10.4067 26.2827L10.5747 26.32V26.2547C10.584 26.2173 10.612 26.1893 10.6493 26.18C10.696 26.1613 10.7427 26.1613 10.78 26.18C10.8267 26.1893 10.864 26.2267 10.892 26.2733C10.9107 26.32 10.92 26.376 10.9013 26.4227C10.892 26.46 10.864 26.488 10.836 26.5067C10.7987 26.5347 10.7613 26.544 10.7147 26.544L10.9293 26.964L10.7987 27.0107L10.6867 26.6933C10.6213 26.7493 10.5467 26.7867 10.4627 26.8053C10.388 26.824 10.3133 26.824 10.2387 26.796C10.1453 26.768 10.0613 26.712 10.0053 26.628C9.93066 26.544 9.912 26.4693 9.92133 26.4133C9.93066 26.3947 9.93066 26.376 9.94933 26.3573C9.95866 26.3387 9.96799 26.3293 9.98666 26.3107C9.90266 26.2827 9.82799 26.2267 9.78133 26.152C9.73466 26.096 9.71599 26.0213 9.74399 25.9467C9.75333 25.9187 9.77199 25.8907 9.79999 25.8627C9.83733 25.8253 9.87466 25.7973 9.91199 25.7693L10.052 25.9933C10.024 26.0027 9.99599 26.0213 9.96799 26.04C9.94933 26.0493 9.93999 26.068 9.93066 26.0867C9.92133 26.1147 9.93066 26.1427 9.94933 26.1707C9.96799 26.1987 10.0053 26.2173 10.0427 26.2267L10.1733 26.18C10.136 26.1333 10.1173 26.0773 10.108 26.0213C10.0987 25.9653 10.0987 25.9093 10.1173 25.8533C10.136 25.788 10.192 25.732 10.2573 25.7133C10.332 25.6853 10.4253 25.6853 10.5 25.7133L10.8173 25.8067L10.8733 25.62L9.83733 25.312L9.76266 25.1067L11.2467 25.5547Z" fill="white"/>
<path d="M11.368 25.844C11.4053 25.8907 11.452 25.9187 11.508 25.928L11.5547 25.6853C11.564 25.6573 11.564 25.6387 11.5547 25.6107C11.5453 25.592 11.536 25.5733 11.5173 25.5733C11.4333 25.5547 11.3493 25.6107 11.3307 25.6947V25.704C11.3213 25.76 11.34 25.8067 11.368 25.844ZM11.8253 25.6573L12.516 25.7787L12.6093 25.9747L12.3947 25.9373L12.1707 27.1787L11.9747 26.992L12.04 26.628L11.6293 26.5533L11.6013 26.6933C11.6013 26.7213 11.5827 26.7493 11.564 26.768C11.5453 26.7867 11.5267 26.796 11.4987 26.7867C11.4147 26.7587 11.34 26.6933 11.2933 26.6093C11.2373 26.5347 11.2093 26.4413 11.2093 26.3387C11.2187 26.32 11.228 26.3013 11.2467 26.292C11.2653 26.2827 11.2933 26.2827 11.3213 26.2827L11.4333 26.3013L11.48 26.0307C11.3773 25.984 11.2933 25.9187 11.2373 25.8253C11.1813 25.7507 11.1627 25.6573 11.172 25.564C11.1813 25.508 11.2187 25.4613 11.2653 25.4333C11.312 25.4053 11.3773 25.396 11.4333 25.4053C11.536 25.4333 11.62 25.4987 11.6573 25.592C11.7227 25.676 11.7507 25.7787 11.732 25.8813L11.648 26.3293L12.0587 26.404L12.152 25.872L11.8907 25.8253L11.8253 25.6573Z" fill="white"/>
<path d="M12.1707 25.0787C12.2267 25.032 12.3013 25.0133 12.3667 25.0227C12.4413 25.032 12.5067 25.06 12.572 25.1067C12.628 25.1533 12.6747 25.2187 12.6933 25.2933L12.6467 25.3307C12.628 25.2933 12.6 25.2653 12.572 25.2467C12.544 25.228 12.516 25.2093 12.4787 25.2093C12.4133 25.2 12.348 25.2187 12.3013 25.256C12.2453 25.2933 12.2173 25.3493 12.208 25.4147C12.208 25.452 12.208 25.4987 12.2267 25.536C12.2453 25.5827 12.2733 25.6293 12.3013 25.676L12.236 25.7133C12.1707 25.648 12.124 25.5733 12.096 25.48C12.068 25.4053 12.0587 25.3213 12.068 25.2373C12.0773 25.1813 12.1147 25.116 12.1707 25.0787Z" fill="white"/>
<path d="M12.712 26.7213C12.7493 26.7587 12.796 26.7773 12.8427 26.7773C12.9173 26.7773 13.0013 26.768 13.0667 26.74C13.1507 26.712 13.2347 26.6653 13.3093 26.6093C13.272 26.5533 13.216 26.4973 13.16 26.46C13.1133 26.4227 13.0573 26.404 12.992 26.3947C12.908 26.3853 12.8333 26.404 12.768 26.4413C12.712 26.4693 12.6747 26.5253 12.6653 26.5907C12.656 26.6467 12.6747 26.6933 12.712 26.7213ZM13.6827 25.8627L13.7947 26.04L13.58 26.0213L13.4867 27.2813L13.272 27.1227L13.2907 26.8333C13.2347 26.8707 13.1787 26.908 13.1133 26.9267C13.0573 26.9453 13.0013 26.9547 12.936 26.9547C12.8147 26.936 12.7027 26.88 12.628 26.7867C12.544 26.712 12.488 26.6 12.488 26.4787C12.4973 26.3947 12.5347 26.32 12.6093 26.2733C12.684 26.2173 12.7773 26.1893 12.8707 26.1987C12.964 26.208 13.048 26.236 13.1227 26.292C13.2067 26.348 13.272 26.4227 13.3187 26.5067L13.356 26.0027L12.4413 25.9373L12.3293 25.76L13.6827 25.8627Z" fill="white"/>
<path d="M13.5427 25.8533L13.944 25.8627C13.916 25.8067 13.888 25.7507 13.8693 25.6853C13.8507 25.62 13.8413 25.564 13.8507 25.4987C13.8507 25.4053 13.8973 25.312 13.972 25.256C14.0467 25.1907 14.1493 25.1627 14.2427 25.1627C14.4013 25.172 14.5507 25.2373 14.6627 25.34C14.8307 25.4707 14.9707 25.6293 15.092 25.8067L15.036 25.8533C14.9427 25.7133 14.8307 25.6013 14.6907 25.508C14.5693 25.4333 14.4387 25.3867 14.2987 25.3773C14.224 25.3773 14.1493 25.4147 14.1027 25.4707C14.0467 25.536 14.0187 25.62 14.0187 25.7133C14.0187 25.76 14.0187 25.8067 14.028 25.8533H14.1867L14.3173 26.0307H14.1027L14.084 27.2907L13.86 27.1413L13.8787 26.0213H13.6733L13.5427 25.8533Z" fill="white"/>
<path d="M15.3533 25.7973L15.4933 25.9653L15.2787 25.984L15.3627 27.244L15.1293 27.1133L15.092 26.488L14.644 26.516C14.6067 26.516 14.5693 26.544 14.5413 26.5813C14.5133 26.6187 14.504 26.6653 14.5133 26.712C14.5227 26.796 14.5507 26.88 14.6067 26.9547C14.672 27.0387 14.7467 27.1227 14.8307 27.1787L14.7467 27.2533C14.6253 27.1507 14.5133 27.0293 14.4107 26.8987C14.3453 26.8147 14.2987 26.712 14.28 26.6093C14.2707 26.5347 14.2987 26.4507 14.3453 26.3947C14.3827 26.3387 14.448 26.3013 14.5227 26.292L15.064 26.2547L15.0453 25.9933L14.1493 26.0493L14.0093 25.8813L15.3533 25.7973Z" fill="white"/>
<path d="M16.2493 26.5253C16.2773 26.544 16.324 26.5533 16.352 26.544C16.4173 26.5347 16.4733 26.5067 16.52 26.46C16.576 26.4133 16.6227 26.3573 16.6507 26.292C16.6227 26.2547 16.576 26.2267 16.5387 26.208C16.5013 26.1893 16.4547 26.1893 16.4173 26.1987C16.352 26.208 16.2867 26.2453 16.24 26.292C16.2027 26.3293 16.1747 26.3853 16.184 26.432C16.1933 26.4693 16.2213 26.5067 16.2493 26.5253ZM17.2853 25.4333L17.444 25.5733L16.772 25.7133L16.8467 26.096C16.8653 26.0587 16.8933 26.0307 16.9307 26.0027C16.968 25.9747 17.0053 25.9653 17.0427 25.956C17.1173 25.9373 17.2107 25.984 17.3133 26.0773C17.4067 26.1613 17.472 26.264 17.5 26.3853C17.5093 26.4413 17.5093 26.4973 17.5 26.5533C17.4907 26.6187 17.472 26.684 17.444 26.7493L17.2293 26.6187C17.2667 26.5627 17.304 26.4973 17.3227 26.432C17.3413 26.376 17.3413 26.32 17.332 26.264C17.3227 26.2173 17.2947 26.18 17.2667 26.152C17.2293 26.124 17.192 26.1147 17.1453 26.124C17.0987 26.1333 17.0613 26.1613 17.024 26.1987C16.9773 26.2453 16.94 26.292 16.912 26.348L17.0333 26.9547L16.7813 26.8613L16.716 26.5533C16.688 26.5907 16.66 26.6187 16.6227 26.6467C16.5853 26.6747 16.5387 26.6933 16.5013 26.6933C16.3987 26.7027 16.296 26.6747 16.2213 26.6C16.128 26.5347 16.0627 26.4413 16.0347 26.3387C16.0253 26.2733 16.0347 26.1987 16.0813 26.152C16.128 26.096 16.1933 26.0587 16.268 26.04C16.3333 26.0307 16.3987 26.04 16.4547 26.0587C16.52 26.0867 16.5853 26.1333 16.6413 26.18L16.5573 25.76L15.8573 25.9L15.6987 25.76L17.2853 25.4333Z" fill="white"/>
<path d="M17.9013 25.956L18.312 25.816L18.1347 25.3027L17.724 25.4427L17.9013 25.956ZM18.3773 25.0413L18.5547 25.1627L18.3493 25.228L18.76 26.4227L18.4987 26.3573L18.3867 26.04L17.976 26.18L18.0227 26.32C18.032 26.348 18.032 26.376 18.0227 26.404C18.0133 26.4227 17.9947 26.4413 17.976 26.4507C17.8827 26.4693 17.78 26.4507 17.7053 26.3947C17.612 26.3573 17.5373 26.2827 17.5 26.1987C17.4907 26.18 17.5 26.152 17.5093 26.1333C17.5187 26.1147 17.5467 26.096 17.5653 26.0867L17.6867 26.04L17.5093 25.5267L17.22 25.62L17.0427 25.4987L18.3773 25.0413Z" fill="white"/>
<path d="M17.7427 24.5933C17.7707 24.528 17.8267 24.4813 17.892 24.4533C17.9573 24.4253 18.0413 24.416 18.116 24.4347C18.1907 24.444 18.256 24.4813 18.312 24.5373L18.2933 24.5933C18.256 24.5747 18.2187 24.5653 18.1813 24.556C18.144 24.556 18.116 24.556 18.0787 24.5653C18.0227 24.584 17.9667 24.64 17.948 24.696C17.92 24.752 17.92 24.8267 17.948 24.8827C17.9667 24.92 17.9947 24.948 18.0227 24.976C18.06 25.0133 18.1067 25.0413 18.1627 25.06L18.1253 25.1253C18.0413 25.0973 17.9573 25.0507 17.892 24.9947C17.8267 24.9387 17.78 24.8733 17.752 24.7987C17.7147 24.724 17.7147 24.6493 17.7427 24.5933Z" fill="white"/>
<path d="M19.656 24.4533L19.8427 24.556L19.6467 24.6493L20.188 25.788L19.9173 25.76L19.6653 25.2093L19.3013 25.3773C19.376 25.396 19.4507 25.4333 19.5067 25.4707C19.5627 25.508 19.6093 25.564 19.6373 25.62C19.6653 25.6853 19.6653 25.7507 19.6467 25.816C19.6187 25.8813 19.572 25.9373 19.5067 25.9653C19.3947 26.0213 19.2547 26.0027 19.0867 25.928C18.9 25.8347 18.7413 25.704 18.6107 25.536L18.676 25.4707C18.7693 25.5827 18.8907 25.676 19.0213 25.7413C19.1147 25.7973 19.2267 25.8067 19.3293 25.7693C19.3667 25.7507 19.3947 25.7227 19.404 25.6853C19.4133 25.648 19.4133 25.6013 19.3947 25.564C19.3573 25.4893 19.292 25.4333 19.2173 25.4053C19.1147 25.3587 19.012 25.3213 18.9 25.3027L19.572 24.9853L19.4507 24.724L18.3867 25.228L18.2 25.1253L19.656 24.4533Z" fill="white"/>
<path d="M20.0573 24.192L20.2533 24.276L20.0667 24.3787L20.692 25.4707L20.4213 25.4613L19.8613 24.4907L19.684 24.5933L19.488 24.5093L20.0573 24.192Z" fill="white"/>
<path d="M6.33733 15.6893C6.33733 16.0533 7.17733 16.24 7.40133 16.296C8.35333 16.5293 9.324 16.6693 10.304 16.7253C11.2 16.7907 12.3013 16.6413 13.16 16.4173C12.656 15.7453 12.1613 15.064 11.8067 14.2987C8.60533 14.4947 6.33733 15.1387 6.33733 15.6893ZM16.2027 14.28C15.848 15.0453 15.3627 15.7267 14.8493 16.3987C15.708 16.6227 16.8093 16.772 17.7053 16.7067C18.676 16.6507 19.6467 16.5107 20.5987 16.2773C20.8227 16.2213 21.6627 16.0347 21.6627 15.6707C21.672 15.1387 19.404 14.4947 16.2027 14.28Z" fill="white"/>
<path d="M13.16 16.3987C12.656 15.7267 12.1707 15.036 11.816 14.2707C11.788 14.2147 11.76 14.1587 11.732 14.0933C11.5547 13.6827 11.424 13.2627 11.3307 12.8333C10.9573 10.9667 11.5453 9.08133 12.5813 7.532C13.1787 6.62667 13.8227 5.70267 13.9907 4.61067H14.028C14.196 5.712 14.8307 6.62667 15.4373 7.532C16.464 9.08133 17.052 10.9667 16.688 12.8333C16.5947 13.2627 16.464 13.692 16.2867 14.0933C16.2587 14.1493 16.2307 14.2053 16.2027 14.2707C15.848 15.036 15.3627 15.7173 14.8493 16.3893C14.56 16.3147 14.28 16.2213 14.0093 16.1187C13.7387 16.2307 13.4587 16.324 13.1693 16.3893C13.1787 16.3987 13.1507 16.408 13.16 16.3987Z" fill="white"/>
<path d="M13.16 16.408C12.3013 16.632 11.2 16.7813 10.304 16.716C9.33333 16.66 8.36266 16.52 7.41066 16.2867C7.21466 16.2307 6.49599 16.0813 6.36533 15.7827C7.09333 18.4707 10.248 20.4867 14.0187 20.4867C17.7893 20.4867 20.9347 18.4707 21.672 15.7827H21.6627C21.5227 16.072 20.8227 16.2307 20.6267 16.2773C19.6747 16.5107 18.704 16.6507 17.7333 16.7067C16.8373 16.772 15.736 16.6227 14.8773 16.3987C14.588 16.324 14.308 16.2307 14.0373 16.128C13.7667 16.24 13.4867 16.3333 13.1973 16.3987C13.1973 16.3987 13.1787 16.408 13.1693 16.3987L13.16 16.408Z" fill="#670C09"/>
<path d="M14.1493 14.1493C14.0933 14.196 14.0467 14.2613 14.0373 14.336H14.028C14.0093 14.2613 13.9627 14.196 13.8973 14.14V16.1467H13.972L14.0187 16.128L14.0747 16.1467H14.1493V14.1493Z" fill="#D19E42"/>
<path d="M14.056 12.712H14C13.72 12.7213 13.4867 12.9173 13.4307 13.188C13.3467 13.552 13.5147 13.776 13.7573 14.0093C13.8227 14.0747 14.0187 14.224 14.0187 14.3267H14.028C14.028 14.224 14.224 14.0653 14.2893 14.0093C14.532 13.776 14.7 13.5427 14.616 13.188C14.5693 12.9173 14.336 12.7213 14.056 12.712Z" fill="#D4140C"/>
<path d="M13.4307 13.188C13.468 13.0107 13.58 12.852 13.748 12.768L13.7667 12.7307C13.7667 12.7307 13.076 12.1707 12.2173 12.8427C12.2547 12.824 12.5907 13.1133 12.6373 13.1413C12.852 13.3 13.1227 13.3653 13.384 13.3187L13.4027 13.2813C13.412 13.2627 13.4213 13.2253 13.4307 13.188Z" fill="#D4140C"/>
<path d="M14.2427 12.7307L14.252 12.74C14.4387 12.8147 14.588 12.9827 14.6253 13.1787C14.6347 13.2253 14.644 13.272 14.644 13.3187C14.896 13.356 15.1573 13.2907 15.3627 13.132C15.4093 13.104 15.736 12.8147 15.7827 12.8333C14.924 12.18 14.2427 12.7307 14.2427 12.7307Z" fill="#D4140C"/>
<path d="M13.9907 8.80133C13.9907 8.80133 12.2267 11.4987 13.776 12.684H14.2053C15.7547 11.4893 13.9907 8.80133 13.9907 8.80133Z" fill="#D4140C"/>
<path d="M13.608 9.50133L12.8707 8.848C12.936 8.904 12.908 9.28667 12.908 9.37067C12.908 9.576 12.8987 9.78133 12.88 9.98667C12.852 10.2573 12.796 10.528 12.7493 10.7893C12.6653 11.2187 12.7493 11.6573 12.964 12.0307C13.16 12.3107 13.44 12.5253 13.7573 12.656C12.7307 11.8627 13.1973 10.3787 13.608 9.50133Z" fill="#D4140C"/>
<path d="M15.2413 10.7987C15.1947 10.528 15.1387 10.2667 15.1107 9.996C15.092 9.79067 15.0827 9.58533 15.0827 9.38C15.0827 9.296 15.0547 8.91333 15.12 8.85733L14.3733 9.52C14.784 10.3973 15.2413 11.8813 14.2053 12.684C14.532 12.5533 14.812 12.3293 15.0173 12.0493C15.2413 11.6667 15.3253 11.228 15.2413 10.7987Z" fill="#D4140C"/>
<path d="M14.3173 12.628L14.3547 12.656C14.6533 12.4973 15.0173 12.4693 15.3347 12.6L15.3627 12.5907C15.3627 12.5907 15.512 12.1707 15.7733 12.1707C15.5213 12.0587 15.232 12.0307 14.9707 12.1147C14.7933 12.3293 14.5693 12.5067 14.3173 12.628Z" fill="#D4140C"/>
<path d="M13.636 12.656L13.6547 12.6467L13.6453 12.6187C13.4027 12.4973 13.188 12.3293 13.02 12.1147C12.7493 12.04 12.46 12.0587 12.208 12.1707C12.4693 12.1707 12.6187 12.5907 12.6187 12.5907L12.656 12.6093C12.9733 12.4787 13.3373 12.4973 13.636 12.656Z" fill="#D4140C"/>
<path d="M13.5987 9.51067C13.6733 9.34267 13.748 9.20267 13.8133 9.08133L13.5053 8.66133L13.2627 9.184V9.20267L13.5987 9.51067Z" fill="#D4140C"/>
<path d="M14.3733 9.51067L14.7373 9.19333L14.504 8.67067L14.196 9.1V9.14667C14.252 9.24933 14.3173 9.38 14.3733 9.51067Z" fill="#D4140C"/>
<path d="M21.812 15.7547L21.84 15.6333H21.812C21.7187 14.896 19.0867 14.336 16.4173 14.14C16.5947 13.7293 16.7253 13.3 16.8187 12.8613C17.164 11.1253 16.716 9.20267 15.5493 7.448L15.4653 7.32667C14.896 6.47733 14.3173 5.6 14.168 4.58267L14.1493 4.46133H13.86L13.8413 4.58267C13.692 5.6 13.104 6.47733 12.544 7.32667L12.46 7.448C11.2933 9.19333 10.8453 11.116 11.1907 12.8613C11.284 13.3 11.4147 13.7293 11.592 14.1493C8.86666 14.3453 6.17866 14.924 6.17866 15.68C6.17866 15.7267 6.18799 15.7733 6.20666 15.82C6.97199 18.6107 10.248 20.636 14 20.636C17.752 20.636 21.028 18.6107 21.7933 15.82L21.812 15.7547ZM21.532 15.68C21.532 15.6893 21.532 15.6987 21.5227 15.7173V15.7267C21.504 15.7547 21.4853 15.7827 21.4573 15.8013C21.3733 15.876 21.1773 15.9787 20.7853 16.0907L20.7573 16.1L20.636 16.128L20.58 16.1373C19.768 16.3427 18.8533 16.4827 17.7053 16.5573C17.6213 16.5667 17.528 16.5667 17.4347 16.5667H17.0893C16.996 16.5667 16.9027 16.5573 16.8093 16.5573H16.7627C16.6693 16.548 16.576 16.548 16.4733 16.5387H16.436C16.3333 16.5293 16.24 16.52 16.1373 16.5013L16.1 16.492C15.9973 16.4827 15.8947 16.464 15.792 16.4453H15.7733C15.6613 16.4267 15.5587 16.408 15.4467 16.3893C15.344 16.3707 15.232 16.3427 15.1293 16.324H15.1107L15.1387 16.2867L15.2133 16.1933C15.2507 16.1467 15.288 16.0907 15.3253 16.044C15.3533 16.0067 15.372 15.9787 15.4 15.9413L15.5027 15.792L15.5773 15.6893L15.68 15.5307L15.7453 15.4373C15.7827 15.372 15.8293 15.3067 15.8667 15.2413C15.876 15.2227 15.8947 15.204 15.904 15.1853C15.96 15.1013 16.0067 15.0173 16.0533 14.924C16.0627 14.9053 16.072 14.8867 16.0907 14.868C16.128 14.8027 16.1653 14.7373 16.2027 14.6627C16.2213 14.6347 16.2307 14.5973 16.2493 14.5693C16.268 14.5413 16.296 14.4853 16.3147 14.4387C19.7773 14.672 21.532 15.3533 21.532 15.68ZM12.712 7.616L12.796 7.49467C13.272 6.776 13.7667 6.03867 14.0187 5.19867C14.2707 6.03867 14.756 6.776 15.2413 7.49467L15.3253 7.616C16.4453 9.296 16.884 11.144 16.5573 12.8053C16.4733 13.2253 16.3427 13.6453 16.1747 14.0373C16.1653 14.0747 16.1467 14.1027 16.128 14.14L16.0907 14.2147C16.044 14.308 16.0067 14.4013 15.96 14.4853L15.9133 14.5787C15.8853 14.6347 15.848 14.6907 15.82 14.756L15.7547 14.868C15.7267 14.924 15.6987 14.9707 15.6613 15.0173L15.5867 15.1293C15.5587 15.176 15.5307 15.2227 15.4933 15.2693C15.456 15.316 15.4373 15.3533 15.4093 15.3907C15.3813 15.428 15.3533 15.484 15.316 15.5213C15.2787 15.5587 15.26 15.6053 15.232 15.6427C15.204 15.68 15.176 15.7267 15.1387 15.7733L15.0453 15.904L14.952 16.0253L14.8587 16.156L14.8027 16.2307H14.7933L14.616 16.184L14.588 16.1747C14.532 16.156 14.476 16.1373 14.42 16.1187L14.392 16.1093L14.2987 16.072V14.2147C14.3173 14.196 14.3453 14.1773 14.3547 14.1587L14.392 14.1213C14.5693 13.944 14.7373 13.7573 14.7747 13.496H14.7933C15.0267 13.496 15.26 13.4213 15.4467 13.272C15.456 13.2627 15.484 13.244 15.5213 13.216C15.5773 13.1693 15.7453 13.0387 15.8013 13.0013C15.8853 12.992 15.932 12.9173 15.9227 12.8333C15.9133 12.796 15.8947 12.768 15.8667 12.74C15.764 12.6653 15.6613 12.5907 15.5493 12.5347C15.6053 12.432 15.6893 12.32 15.7733 12.32C15.8573 12.32 15.9227 12.2547 15.9227 12.1707C15.9227 12.1147 15.8947 12.068 15.848 12.04C15.6613 11.956 15.456 11.9093 15.2507 11.9187C15.4093 11.5547 15.456 11.1627 15.3813 10.7707C15.3627 10.6773 15.3533 10.584 15.3347 10.5C15.2973 10.3227 15.2693 10.1453 15.2507 9.97733C15.232 9.78133 15.2227 9.576 15.2227 9.37067V9.28667C15.2133 9.16533 15.2227 9.05333 15.232 8.932C15.2787 8.86667 15.2693 8.78267 15.2133 8.72667C15.1573 8.68 15.0733 8.68 15.0173 8.736L14.784 8.94133L14.5227 8.372L14.1867 8.83867C14.1493 8.77333 14.1213 8.736 14.112 8.71733C14.1027 8.69867 14.084 8.68 14.0653 8.66133C14.0467 8.64267 14.0187 8.64267 13.9907 8.64267C13.9627 8.64267 13.9347 8.652 13.9067 8.66133C13.888 8.67067 13.8693 8.68933 13.86 8.71733L13.804 8.81067L13.4867 8.372L13.216 8.96L12.964 8.736C12.908 8.68 12.8147 8.68 12.7587 8.74533C12.712 8.80133 12.7027 8.876 12.7493 8.94133C12.768 9.06267 12.768 9.17467 12.7587 9.296V9.38C12.7587 9.58533 12.7493 9.78133 12.7307 9.98667C12.712 10.164 12.684 10.332 12.6467 10.5093C12.628 10.6027 12.6093 10.696 12.6 10.7893C12.5347 11.172 12.5813 11.5733 12.7307 11.9373C12.5253 11.928 12.32 11.9653 12.1333 12.0587C12.0587 12.096 12.0307 12.18 12.068 12.2547C12.096 12.3013 12.1427 12.3293 12.1987 12.3293C12.2827 12.3293 12.376 12.4507 12.432 12.5533C12.3293 12.6093 12.2267 12.6747 12.1333 12.7493C12.068 12.796 12.0587 12.8893 12.1053 12.9547C12.124 12.9827 12.1613 13.0013 12.1987 13.0107C12.2547 13.048 12.4227 13.1787 12.4787 13.2253C12.516 13.2533 12.544 13.2813 12.5533 13.2813C12.74 13.4213 12.9733 13.5053 13.2067 13.5053H13.272C13.3093 13.7667 13.4773 13.9627 13.6547 14.14L13.7387 14.224V16.0907L13.7107 16.1C13.6733 16.1093 13.636 16.128 13.5893 16.1373L13.5053 16.1653C13.468 16.1747 13.4307 16.1933 13.3933 16.2027L13.2907 16.2307L13.2067 16.2493C12.768 15.6613 12.2827 14.98 11.9373 14.2333L11.9093 14.1773C11.8907 14.14 11.872 14.0933 11.8533 14.056C11.6853 13.664 11.5547 13.244 11.4613 12.824C11.1533 11.144 11.5827 9.30533 12.712 7.616ZM13.2813 13.1973C13.0853 13.216 12.8893 13.1507 12.7307 13.0293L12.6747 12.9827C12.6093 12.9267 12.5533 12.88 12.4973 12.8427C12.5627 12.8053 12.628 12.768 12.7027 12.74H12.712C12.9733 12.6373 13.2627 12.6467 13.5147 12.7587C13.4587 12.8147 13.412 12.8707 13.3747 12.936C13.356 12.964 13.3373 13.0013 13.328 13.0387V13.048C13.3187 13.0853 13.3 13.1227 13.2907 13.16C13.2813 13.1693 13.2813 13.188 13.2813 13.1973ZM12.572 12.2173C12.6933 12.208 12.8147 12.208 12.936 12.236C12.9547 12.2547 12.9733 12.2827 12.992 12.3013C13.0107 12.3293 13.0387 12.348 13.0573 12.3667H12.964L12.8893 12.376C12.824 12.3853 12.768 12.3947 12.712 12.4133C12.6747 12.348 12.628 12.2827 12.572 12.2173ZM13.4493 9.16533L13.5427 8.96L13.6453 9.1C13.6173 9.156 13.5893 9.212 13.5613 9.268L13.4773 9.19333L13.4493 9.16533ZM14.1027 9.27733C14.1027 9.28667 14.112 9.296 14.112 9.296C14.2987 9.66 14.4573 10.0333 14.5693 10.4253C14.5693 10.4253 14.5693 10.4347 14.5787 10.444L14.6067 10.5467L14.6253 10.64C14.6253 10.6493 14.6253 10.6587 14.6347 10.6587C14.644 10.6867 14.644 10.724 14.6533 10.752V10.7613C14.728 11.172 14.728 11.6013 14.5787 11.9653C14.5693 11.9933 14.5507 12.0213 14.5413 12.0587C14.4947 12.1427 14.448 12.2267 14.392 12.3013L14.3733 12.32C14.3547 12.3387 14.3453 12.3573 14.3267 12.376L14.2987 12.4133L14.252 12.46C14.2427 12.4693 14.224 12.4787 14.2147 12.4973L14.1773 12.5253H13.8507L13.7947 12.4787L13.776 12.4693L13.692 12.3853C13.6733 12.3667 13.6547 12.3387 13.636 12.3107V12.32C13.552 12.2173 13.4867 12.096 13.4307 11.9747C13.4213 11.9467 13.4027 11.9093 13.3933 11.8813C13.3467 11.7227 13.3187 11.564 13.3093 11.396V11.1533C13.3093 11.116 13.3093 11.0787 13.3187 11.0413L13.328 10.9573V10.9293C13.328 10.9013 13.3373 10.864 13.3373 10.836V10.8173C13.4213 10.3787 13.5613 9.95867 13.7573 9.55733L13.804 9.47333L13.7947 9.464C13.8693 9.30533 13.944 9.17467 14 9.08133C14.0187 9.13733 14.056 9.20267 14.1027 9.27733ZM14.9707 10.0147C14.9893 10.2013 15.0267 10.388 15.0547 10.5653C15.0733 10.6587 15.0827 10.7427 15.1013 10.836C15.176 11.228 15.1013 11.6293 14.9053 11.9747L14.896 11.9933C15.1667 11.1907 14.868 10.2293 14.5693 9.55733L14.952 9.22133V9.38933C14.9333 9.58533 14.9427 9.8 14.9707 10.0147ZM14.7747 13.1973C14.7747 13.188 14.7653 13.1693 14.7653 13.16C14.756 13.1227 14.7467 13.0853 14.728 13.048V13.0387C14.7187 13.0107 14.7 12.9733 14.6813 12.9453L14.672 12.936C14.6533 12.908 14.6347 12.88 14.616 12.852L14.6067 12.8333C14.588 12.8053 14.56 12.7867 14.5413 12.7587L14.532 12.7493C14.5507 12.74 14.56 12.74 14.5787 12.7307L14.6067 12.7213L14.6253 12.712C14.84 12.6467 15.064 12.656 15.2787 12.7307L15.2973 12.74C15.3813 12.768 15.456 12.8053 15.5307 12.852C15.484 12.8893 15.428 12.936 15.3533 12.992C15.3253 13.0107 15.3067 13.0293 15.2973 13.0387C15.1387 13.1507 14.952 13.2067 14.7747 13.1973ZM15.2787 12.432C15.2507 12.4227 15.2227 12.4133 15.1947 12.4133L15.148 12.404H15.1293C15.064 12.3947 15.008 12.3853 14.9427 12.3853C14.9613 12.3667 14.98 12.3387 15.008 12.32C15.0267 12.3013 15.0453 12.2733 15.064 12.2547C15.176 12.2267 15.2973 12.2173 15.4093 12.236C15.3533 12.292 15.316 12.3573 15.2787 12.432ZM14.4293 9.27733C14.4013 9.22133 14.3733 9.17467 14.3547 9.128L14.476 8.96L14.5693 9.156L14.4293 9.27733ZM13.4307 9.53867C13.132 10.2013 12.8333 11.1627 13.0947 11.956C12.8427 11.564 12.852 11.1253 12.8987 10.8173C12.908 10.724 12.9267 10.64 12.9453 10.5467C12.9733 10.3693 13.0107 10.192 13.0293 10.0053C13.048 9.79067 13.0573 9.58533 13.0573 9.37067V9.20267L13.132 9.268L13.4307 9.53867ZM13.5613 13.3093V13.3C13.5613 13.272 13.5707 13.2533 13.5707 13.2253C13.58 13.2067 13.58 13.1787 13.5893 13.16C13.5893 13.1507 13.5987 13.1507 13.5987 13.1413C13.608 13.1227 13.6173 13.104 13.6267 13.0853L13.636 13.0667C13.6453 13.0573 13.6547 13.0387 13.664 13.0293C13.6733 13.02 13.6827 13.0107 13.6827 13.0013C13.6827 12.992 13.692 12.992 13.7013 12.9827C13.7293 12.9547 13.7667 12.9267 13.8133 12.8987C13.8693 12.8707 13.9347 12.852 14 12.852H14.056C14.1307 12.852 14.2053 12.8707 14.2613 12.908C14.28 12.9173 14.2987 12.936 14.3173 12.9453C14.3547 12.9733 14.3827 13.0107 14.4107 13.0573V13.0667C14.42 13.0853 14.4293 13.104 14.4387 13.1227C14.4387 13.132 14.448 13.132 14.448 13.1413C14.4573 13.16 14.4667 13.188 14.4667 13.216C14.476 13.2533 14.476 13.2907 14.4853 13.3373C14.4853 13.5147 14.4107 13.6827 14.28 13.804V13.7947L14.028 14.0467L14.0187 14.0653L13.7387 13.7853V13.7947C13.6173 13.664 13.5427 13.496 13.5613 13.3093ZM11.7227 14.4293C12.0493 15.1013 12.4693 15.708 12.9173 16.3053L12.8987 16.3147C12.796 16.3427 12.6933 16.3613 12.5813 16.38C12.4787 16.3987 12.3667 16.4173 12.2547 16.436H12.236C12.1333 16.4547 12.0307 16.4733 11.928 16.4827L11.8907 16.492C11.788 16.5013 11.6853 16.52 11.592 16.5293H11.5547C11.4613 16.5387 11.3587 16.548 11.2653 16.548H11.2093C11.116 16.5573 11.0227 16.5573 10.9293 16.5573H10.5933C10.5 16.5573 10.4067 16.548 10.3133 16.548C9.34266 16.5013 8.38133 16.3613 7.43866 16.1373L7.39199 16.128C7.34533 16.1187 7.29866 16.1093 7.25199 16.0907H7.23333C6.79466 15.9693 6.60799 15.8573 6.53333 15.7827L6.52399 15.7733C6.51466 15.7547 6.49599 15.7453 6.48666 15.7267C6.47733 15.7173 6.47733 15.6987 6.47733 15.6893C6.47733 15.3627 8.23199 14.672 11.7227 14.4293ZM14.0093 20.3467C10.5933 20.3467 7.59733 18.6293 6.65466 16.2027L6.68266 16.212C6.88799 16.296 7.10266 16.3707 7.31733 16.4173L7.36399 16.4267C8.19466 16.6413 9.11866 16.772 10.2853 16.856C10.3507 16.856 10.416 16.8653 10.4813 16.8653H11.06C11.1533 16.8653 11.2373 16.856 11.3307 16.8467L11.6107 16.8187H11.6573C11.7507 16.8093 11.844 16.8 11.9373 16.7813L11.984 16.772C12.1707 16.744 12.3667 16.716 12.5533 16.6787L12.6 16.6693C12.6933 16.6507 12.7773 16.632 12.8707 16.6133L12.9267 16.604C13.02 16.5853 13.1133 16.5573 13.2067 16.5387L13.2253 16.5293H13.244L13.4213 16.4827C13.6267 16.4267 13.8227 16.3613 14.0187 16.2867H14.028L14.0373 16.2773H14.056C14.2427 16.352 14.4293 16.408 14.6253 16.464L14.8307 16.52L14.924 16.548C14.98 16.5667 15.0453 16.576 15.1107 16.5947L15.1667 16.604C15.26 16.6227 15.344 16.6413 15.4373 16.66L15.484 16.6693C15.5773 16.688 15.6707 16.7067 15.764 16.716C15.8573 16.7347 15.9507 16.744 16.044 16.7533L16.0907 16.7627C16.184 16.772 16.268 16.7813 16.3613 16.8H16.408C16.5013 16.8093 16.5947 16.8187 16.6787 16.8187H16.688C16.7813 16.828 16.8653 16.828 16.9587 16.828H17.0053C17.0893 16.828 17.1733 16.8373 17.2573 16.8373H17.5187C17.584 16.8373 17.6493 16.828 17.7147 16.828C18.704 16.772 19.6747 16.632 20.636 16.3987L20.6827 16.3893C20.9067 16.3427 21.1213 16.268 21.336 16.184L21.364 16.1747C20.4307 18.62 17.4253 20.3467 14.0093 20.3467Z" fill="#1F1917"/>
<path d="M45.3398 24L45.2852 22.9609L46.9531 22.5781C46.9896 22.487 47.0078 22.2773 47.0078 21.9492C47.026 21.6211 47.0352 21.1745 47.0352 20.6094C47.0534 20.0443 47.0625 19.3607 47.0625 18.5586V13.418C47.0625 12.5977 47.0534 11.9049 47.0352 11.3398C47.0352 10.7565 47.026 10.3008 47.0078 9.97266C47.0078 9.64453 46.9896 9.44401 46.9531 9.37109L45.2852 8.98828L45.3398 7.94922H51.1641L51.2188 8.98828L49.5508 9.37109C49.5143 9.42578 49.4779 9.60807 49.4414 9.91797C49.4232 10.2096 49.4049 10.6471 49.3867 11.2305C49.3867 11.7956 49.3867 12.5247 49.3867 13.418V18.5586C49.3867 19.4336 49.3867 20.1536 49.3867 20.7188C49.4049 21.2839 49.4232 21.7214 49.4414 22.0312C49.4779 22.3229 49.5143 22.5052 49.5508 22.5781L51.2188 22.9609L51.1641 24H45.3398Z" fill="white"/>
<path d="M53.3242 24L53.2695 23.0156L54.9648 22.6055C54.9831 22.4779 54.9922 22.3047 54.9922 22.0859C55.0104 21.8672 55.0286 21.5664 55.0469 21.1836C55.0651 20.8008 55.0742 20.2995 55.0742 19.6797L55.1016 17.5742C55.1016 16.9727 55.0742 16.3802 55.0195 15.7969C54.9831 15.1953 54.9375 14.7214 54.8828 14.375L53.1328 13.9922V13.0898L56.7969 12.0781L57.2617 12.5156L57.125 13.9648L57.207 13.9922C57.8451 13.2995 58.474 12.7982 59.0938 12.4883C59.7135 12.1784 60.388 12.0234 61.1172 12.0234C61.7917 12.0234 62.4206 12.1966 63.0039 12.543C63.6055 12.8711 64.0885 13.3815 64.4531 14.0742C64.8359 14.7669 65.0273 15.651 65.0273 16.7266V19.7617C65.0273 20.418 65.0365 21.0104 65.0547 21.5391C65.0911 22.0677 65.1367 22.4232 65.1914 22.6055L66.8867 23.0156L66.8047 24H61.3086L61.2539 23.0156L62.8398 22.6055C62.8581 22.4596 62.8763 22.2773 62.8945 22.0586C62.9128 21.8398 62.9219 21.5664 62.9219 21.2383C62.9401 20.8919 62.9492 20.4635 62.9492 19.9531V17C62.9492 16.1797 62.8034 15.5326 62.5117 15.0586C62.2383 14.5664 61.8919 14.2201 61.4727 14.0195C61.0534 13.8008 60.625 13.6914 60.1875 13.6914C59.5859 13.6914 59.0208 13.8464 58.4922 14.1562C57.9818 14.4479 57.5443 14.8581 57.1797 15.3867V19.4883C57.1797 20.3268 57.1888 21.0104 57.207 21.5391C57.2435 22.0495 57.2799 22.4049 57.3164 22.6055L59.0117 23.0156L58.9297 24H53.3242Z" fill="white"/>
<path d="M77.9883 24.3008L77.5781 23.9453L77.6055 22.168L77.5234 22.1406C76.9766 22.9062 76.4115 23.444 75.8281 23.7539C75.263 24.0638 74.6615 24.2188 74.0234 24.2188C72.9844 24.2188 72.0547 23.9818 71.2344 23.5078C70.4323 23.0156 69.7943 22.3411 69.3203 21.4844C68.8464 20.6276 68.6094 19.6432 68.6094 18.5312C68.6094 17.5651 68.7734 16.681 69.1016 15.8789C69.4297 15.0768 69.8763 14.3932 70.4414 13.8281C71.0247 13.2448 71.681 12.7982 72.4102 12.4883C73.1393 12.1784 73.8958 12.0234 74.6797 12.0234C75.1901 12.0234 75.7096 12.0872 76.2383 12.2148C76.7669 12.3424 77.2135 12.543 77.5781 12.8164C77.5781 12.4883 77.569 12.0599 77.5508 11.5312C77.5508 11.0026 77.5417 10.4557 77.5234 9.89062C77.5234 9.30729 77.5143 8.79688 77.4961 8.35938C77.4961 7.90365 77.487 7.59375 77.4688 7.42969L75.3359 7.04688L75.2812 6.14453L79.3008 5.02344L79.793 5.40625C79.7565 6.53646 79.7292 7.63021 79.7109 8.6875C79.6927 9.74479 79.6836 10.8477 79.6836 11.9961L79.6562 18.2852C79.6562 19.2148 79.6745 20.0169 79.7109 20.6914C79.7656 21.3477 79.8021 21.8125 79.8203 22.0859L81.5703 22.5234V23.4258L77.9883 24.3008ZM74.707 22.3867C75.2357 22.3867 75.7279 22.2773 76.1836 22.0586C76.6393 21.8216 77.1042 21.4115 77.5781 20.8281V14.9492C77.2318 14.3294 76.7943 13.8919 76.2656 13.6367C75.737 13.3815 75.2083 13.2539 74.6797 13.2539C73.5312 13.2539 72.6289 13.6823 71.9727 14.5391C71.3346 15.3776 71.0156 16.4714 71.0156 17.8203C71.0156 19.2604 71.3711 20.3815 72.082 21.1836C72.8112 21.9857 73.6862 22.3867 74.707 22.3867Z" fill="white"/>
<path d="M89.2812 24.2188C88.0964 24.2188 87.0573 23.9635 86.1641 23.4531C85.2891 22.9427 84.6055 22.2318 84.1133 21.3203C83.6211 20.3906 83.375 19.3333 83.375 18.1484C83.375 16.9089 83.6484 15.8333 84.1953 14.9219C84.7422 14.0104 85.4714 13.2995 86.3828 12.7891C87.2943 12.2786 88.2969 12.0234 89.3906 12.0234C90.5208 12.0234 91.5052 12.2786 92.3438 12.7891C93.2005 13.2812 93.8568 13.9831 94.3125 14.8945C94.7865 15.7878 95.0234 16.8359 95.0234 18.0391C95.0234 19.1875 94.7682 20.2266 94.2578 21.1562C93.7474 22.0859 93.0547 22.8333 92.1797 23.3984C91.3229 23.9453 90.3568 24.2188 89.2812 24.2188ZM89.5547 22.9336C90.1745 22.9336 90.7122 22.7513 91.168 22.3867C91.6237 22.0039 91.9792 21.4844 92.2344 20.8281C92.4896 20.1536 92.6172 19.388 92.6172 18.5312C92.6172 16.9635 92.2891 15.6966 91.6328 14.7305C90.9948 13.7461 90.1471 13.2539 89.0898 13.2539C88.1055 13.2539 87.3125 13.6641 86.7109 14.4844C86.1276 15.3047 85.8359 16.3893 85.8359 17.7383C85.8359 18.7591 85.9909 19.6615 86.3008 20.4453C86.6289 21.2292 87.0755 21.8398 87.6406 22.2773C88.2057 22.7148 88.8438 22.9336 89.5547 22.9336Z" fill="white"/>
<path d="M109.953 20.0898V13.9648C109.953 12.8893 109.944 12.0326 109.926 11.3945C109.908 10.7383 109.889 10.2552 109.871 9.94531C109.853 9.61719 109.835 9.42578 109.816 9.37109L107.957 8.98828L108.039 7.94922H113.234L113.316 8.98828L111.621 9.37109C111.621 9.42578 111.603 9.61719 111.566 9.94531C111.548 10.2552 111.53 10.7383 111.512 11.3945C111.493 12.0326 111.484 12.8893 111.484 13.9648V20.4727C111.484 21.0378 111.484 21.6302 111.484 22.25C111.484 22.8516 111.493 23.4714 111.512 24.1094H110.281L100.219 10.5742H100.82V17.9023C100.82 18.9961 100.829 19.8802 100.848 20.5547C100.866 21.2109 100.884 21.694 100.902 22.0039C100.939 22.3138 100.966 22.5052 100.984 22.5781L102.844 22.9609L102.762 24H97.5117L97.4297 22.9609L99.0977 22.5781C99.1159 22.5052 99.1341 22.3138 99.1523 22.0039C99.1888 21.694 99.2161 21.2109 99.2344 20.5547C99.2526 19.8802 99.2617 18.9961 99.2617 17.9023V13.2266C99.2617 12.4062 99.2526 11.7318 99.2344 11.2031C99.2161 10.6745 99.1979 10.2643 99.1797 9.97266C99.1615 9.68099 99.1341 9.48047 99.0977 9.37109L97.4297 8.98828L97.5117 7.94922H101.258L110.445 20.0898H109.953Z" fill="white"/>
<path d="M121.41 24.2188C120.225 24.2188 119.186 23.9635 118.293 23.4531C117.418 22.9427 116.734 22.2318 116.242 21.3203C115.75 20.3906 115.504 19.3333 115.504 18.1484C115.504 16.9089 115.777 15.8333 116.324 14.9219C116.871 14.0104 117.6 13.2995 118.512 12.7891C119.423 12.2786 120.426 12.0234 121.52 12.0234C122.65 12.0234 123.634 12.2786 124.473 12.7891C125.329 13.2812 125.986 13.9831 126.441 14.8945C126.915 15.7878 127.152 16.8359 127.152 18.0391C127.152 19.1875 126.897 20.2266 126.387 21.1562C125.876 22.0859 125.184 22.8333 124.309 23.3984C123.452 23.9453 122.486 24.2188 121.41 24.2188ZM121.684 22.9336C122.303 22.9336 122.841 22.7513 123.297 22.3867C123.753 22.0039 124.108 21.4844 124.363 20.8281C124.618 20.1536 124.746 19.388 124.746 18.5312C124.746 16.9635 124.418 15.6966 123.762 14.7305C123.124 13.7461 122.276 13.2539 121.219 13.2539C120.234 13.2539 119.441 13.6641 118.84 14.4844C118.257 15.3047 117.965 16.3893 117.965 17.7383C117.965 18.7591 118.12 19.6615 118.43 20.4453C118.758 21.2292 119.204 21.8398 119.77 22.2773C120.335 22.7148 120.973 22.9336 121.684 22.9336Z" fill="white"/>
<path d="M129.176 24L129.094 23.0156L130.789 22.6055C130.807 22.5143 130.826 22.3503 130.844 22.1133C130.862 21.8763 130.871 21.5573 130.871 21.1562C130.889 20.7552 130.898 20.263 130.898 19.6797L130.926 17.5469C130.926 16.9453 130.898 16.3529 130.844 15.7695C130.807 15.1862 130.762 14.7214 130.707 14.375L128.957 13.9922V13.0898L132.621 12.0781L133.004 12.4609L132.895 14.7578L132.977 14.7852C133.523 13.7279 134.079 13.0169 134.645 12.6523C135.21 12.2695 135.738 12.0781 136.23 12.0781C136.65 12.0781 136.996 12.1875 137.27 12.4062C137.561 12.6068 137.707 12.9167 137.707 13.3359C137.707 13.7734 137.552 14.1107 137.242 14.3477C136.951 14.5664 136.577 14.6758 136.121 14.6758C135.793 14.6758 135.474 14.6029 135.164 14.457C134.872 14.3112 134.59 14.1107 134.316 13.8555L134.809 14.0195C134.462 14.2383 134.134 14.5482 133.824 14.9492C133.514 15.332 133.232 15.8151 132.977 16.3984L133.004 18.9414C133.022 19.3971 133.04 19.8711 133.059 20.3633C133.077 20.8555 133.095 21.3021 133.113 21.7031C133.132 22.0859 133.15 22.3867 133.168 22.6055L135.547 22.9609L135.492 24H129.176Z" fill="white"/>
<path d="M152.062 24.1094L147.879 13.6367L146.484 13.2266L146.539 12.2422H151.57L151.625 13.2266L150.203 13.6367L153.375 21.9492L152.691 21.9766L155.945 13.6367L154.523 13.2266L154.578 12.2422H158.816L158.871 13.2266L157.586 13.6367L152.91 24.1094H152.062ZM144.105 24.1094L139.676 13.6367L138.391 13.2266L138.445 12.2422H143.504L143.559 13.2266L142.164 13.6367L145.555 21.9492L144.734 21.9766L148.344 13.3906L149.082 15.0859L144.953 24.1094H144.105Z" fill="white"/>
<path d="M164.039 24.2188C163.31 24.2188 162.663 24.0729 162.098 23.7812C161.533 23.4896 161.086 23.1159 160.758 22.6602C160.448 22.2044 160.293 21.7305 160.293 21.2383C160.293 20.6185 160.493 20.1081 160.895 19.707C161.296 19.306 161.952 18.9596 162.863 18.668L167.02 17.2734V15.8789C167.02 15.4232 166.883 15.013 166.609 14.6484C166.336 14.2656 165.971 13.9648 165.516 13.7461C165.06 13.5273 164.549 13.418 163.984 13.418C163.529 13.418 163.219 13.5182 163.055 13.7188C162.891 13.901 162.79 14.2747 162.754 14.8398L162.699 15.9883C162.043 16.1341 161.487 16.1159 161.031 15.9336C160.576 15.7331 160.348 15.4141 160.348 14.9766C160.348 14.6667 160.475 14.3568 160.73 14.0469C161.004 13.737 161.359 13.4453 161.797 13.1719C162.234 12.8802 162.708 12.6341 163.219 12.4336C163.729 12.2331 164.23 12.0964 164.723 12.0234C166.072 12.0234 167.147 12.3789 167.949 13.0898C168.77 13.8008 169.189 14.7305 169.207 15.8789L169.152 20.4727C169.152 20.819 169.161 21.1562 169.18 21.4844C169.216 21.8125 169.262 22.0586 169.316 22.2227L171.066 22.5508V23.3984L169.727 23.8906C169.471 23.9818 169.234 24.0547 169.016 24.1094C168.797 24.1823 168.615 24.2188 168.469 24.2188C167.904 24.2188 167.539 23.8997 167.375 23.2617L167.074 22.1953H167.484C166.883 22.8698 166.299 23.3802 165.734 23.7266C165.188 24.0547 164.622 24.2188 164.039 24.2188ZM164.777 22.6055C165.197 22.6055 165.589 22.5143 165.953 22.332C166.318 22.1315 166.673 21.8307 167.02 21.4297V18.5586L163.957 19.3789C163.52 19.4883 163.201 19.6615 163 19.8984C162.818 20.1354 162.727 20.4362 162.727 20.8008C162.727 21.2565 162.927 21.6758 163.328 22.0586C163.747 22.4232 164.23 22.6055 164.777 22.6055Z" fill="white"/>
<path d="M177.492 24.1094L172.68 13.6367L171.395 13.2266L171.477 12.2422H176.781L176.836 13.2266L175.141 13.6367L178.859 21.9492L177.492 24.1094ZM184.492 12.2422L184.574 13.2266L183.289 13.6367L178.641 23.3984L176.453 27.9375C176.052 28.776 175.624 29.3685 175.168 29.7148C174.73 30.0612 174.22 30.2344 173.637 30.2344C173.181 30.2344 172.807 30.125 172.516 29.9062C172.242 29.6875 172.105 29.4049 172.105 29.0586C172.105 28.7852 172.215 28.5208 172.434 28.2656C172.652 28.0286 172.99 27.8464 173.445 27.7188L175.988 26.9531L174.73 28.3203L177.766 22.4688L178.066 21.9766L181.621 13.6367L179.926 13.2266L179.98 12.2422H184.492Z" fill="white"/>
<path d="M199.723 24.2461C198.137 24.2461 196.688 23.9453 195.375 23.3438C194.081 22.724 193.042 21.8125 192.258 20.6094C191.474 19.388 191.082 17.8841 191.082 16.0977C191.082 14.9492 191.283 13.8737 191.684 12.8711C192.085 11.8503 192.668 10.957 193.434 10.1914C194.217 9.40755 195.165 8.79688 196.277 8.35938C197.389 7.92188 198.656 7.70312 200.078 7.70312C200.826 7.70312 201.618 7.77604 202.457 7.92188C203.296 8.06771 204.043 8.27734 204.699 8.55078L204.891 12.2969L203.66 12.4062L202.84 9.80859C202.493 9.57161 202.038 9.39844 201.473 9.28906C200.908 9.16146 200.361 9.09766 199.832 9.09766C198.465 9.09766 197.344 9.39844 196.469 10C195.612 10.5833 194.974 11.3672 194.555 12.3516C194.154 13.3359 193.953 14.4206 193.953 15.6055C193.953 17.1549 194.217 18.4674 194.746 19.543C195.293 20.6185 196.022 21.4297 196.934 21.9766C197.863 22.5234 198.884 22.7969 199.996 22.7969C200.579 22.7969 201.108 22.7331 201.582 22.6055C202.056 22.4779 202.512 22.2865 202.949 22.0312L204.152 19.4609L205.41 19.5977L204.645 23.043C204.025 23.3711 203.286 23.6536 202.43 23.8906C201.573 24.1276 200.671 24.2461 199.723 24.2461Z" fill="white"/>
<path d="M213.066 24.2188C211.882 24.2188 210.842 23.9635 209.949 23.4531C209.074 22.9427 208.391 22.2318 207.898 21.3203C207.406 20.3906 207.16 19.3333 207.16 18.1484C207.16 16.9089 207.434 15.8333 207.98 14.9219C208.527 14.0104 209.257 13.2995 210.168 12.7891C211.079 12.2786 212.082 12.0234 213.176 12.0234C214.306 12.0234 215.29 12.2786 216.129 12.7891C216.986 13.2812 217.642 13.9831 218.098 14.8945C218.572 15.7878 218.809 16.8359 218.809 18.0391C218.809 19.1875 218.553 20.2266 218.043 21.1562C217.533 22.0859 216.84 22.8333 215.965 23.3984C215.108 23.9453 214.142 24.2188 213.066 24.2188ZM213.34 22.9336C213.96 22.9336 214.497 22.7513 214.953 22.3867C215.409 22.0039 215.764 21.4844 216.02 20.8281C216.275 20.1536 216.402 19.388 216.402 18.5312C216.402 16.9635 216.074 15.6966 215.418 14.7305C214.78 13.7461 213.932 13.2539 212.875 13.2539C211.891 13.2539 211.098 13.6641 210.496 14.4844C209.913 15.3047 209.621 16.3893 209.621 17.7383C209.621 18.7591 209.776 19.6615 210.086 20.4453C210.414 21.2292 210.861 21.8398 211.426 22.2773C211.991 22.7148 212.629 22.9336 213.34 22.9336Z" fill="white"/>
<path d="M220.777 24L220.723 23.0156L222.418 22.6055C222.436 22.4779 222.445 22.3047 222.445 22.0859C222.464 21.8672 222.482 21.5664 222.5 21.1836C222.518 20.8008 222.527 20.2995 222.527 19.6797L222.555 17.5742C222.555 16.9727 222.527 16.3802 222.473 15.7969C222.436 15.1953 222.391 14.7214 222.336 14.375L220.586 13.9922V13.0898L224.25 12.0781L224.715 12.5156L224.578 13.9648L224.66 13.9922C225.298 13.2995 225.927 12.7982 226.547 12.4883C227.167 12.1784 227.841 12.0234 228.57 12.0234C229.245 12.0234 229.874 12.1966 230.457 12.543C231.059 12.8711 231.542 13.3815 231.906 14.0742C232.289 14.7669 232.48 15.651 232.48 16.7266V19.7617C232.48 20.418 232.49 21.0104 232.508 21.5391C232.544 22.0677 232.59 22.4232 232.645 22.6055L234.34 23.0156L234.258 24H228.762L228.707 23.0156L230.293 22.6055C230.311 22.4596 230.329 22.2773 230.348 22.0586C230.366 21.8398 230.375 21.5664 230.375 21.2383C230.393 20.8919 230.402 20.4635 230.402 19.9531V17C230.402 16.1797 230.257 15.5326 229.965 15.0586C229.691 14.5664 229.345 14.2201 228.926 14.0195C228.507 13.8008 228.078 13.6914 227.641 13.6914C227.039 13.6914 226.474 13.8464 225.945 14.1562C225.435 14.4479 224.997 14.8581 224.633 15.3867V19.4883C224.633 20.3268 224.642 21.0104 224.66 21.5391C224.697 22.0495 224.733 22.4049 224.77 22.6055L226.465 23.0156L226.383 24H220.777Z" fill="white"/>
<path d="M235.816 24L235.762 23.0156L237.457 22.6055C237.475 22.4779 237.484 22.3047 237.484 22.0859C237.503 21.8672 237.521 21.5664 237.539 21.1836C237.557 20.8008 237.566 20.2995 237.566 19.6797L237.594 17.5742C237.594 16.9727 237.566 16.3802 237.512 15.7969C237.475 15.1953 237.43 14.7214 237.375 14.375L235.625 13.9922V13.0898L239.289 12.0781L239.754 12.5156L239.617 13.9648L239.699 13.9922C240.337 13.2995 240.966 12.7982 241.586 12.4883C242.206 12.1784 242.88 12.0234 243.609 12.0234C244.284 12.0234 244.913 12.1966 245.496 12.543C246.098 12.8711 246.581 13.3815 246.945 14.0742C247.328 14.7669 247.52 15.651 247.52 16.7266V19.7617C247.52 20.418 247.529 21.0104 247.547 21.5391C247.583 22.0677 247.629 22.4232 247.684 22.6055L249.379 23.0156L249.297 24H243.801L243.746 23.0156L245.332 22.6055C245.35 22.4596 245.368 22.2773 245.387 22.0586C245.405 21.8398 245.414 21.5664 245.414 21.2383C245.432 20.8919 245.441 20.4635 245.441 19.9531V17C245.441 16.1797 245.296 15.5326 245.004 15.0586C244.73 14.5664 244.384 14.2201 243.965 14.0195C243.546 13.8008 243.117 13.6914 242.68 13.6914C242.078 13.6914 241.513 13.8464 240.984 14.1562C240.474 14.4479 240.036 14.8581 239.672 15.3867V19.4883C239.672 20.3268 239.681 21.0104 239.699 21.5391C239.736 22.0495 239.772 22.4049 239.809 22.6055L241.504 23.0156L241.422 24H235.816Z" fill="white"/>
<path d="M256.789 24.2188C255.732 24.2188 254.775 23.9818 253.918 23.5078C253.079 23.0339 252.405 22.3594 251.895 21.4844C251.402 20.5911 251.156 19.543 251.156 18.3398C251.156 17.0456 251.421 15.9245 251.949 14.9766C252.478 14.0286 253.171 13.2995 254.027 12.7891C254.884 12.2604 255.805 12.0052 256.789 12.0234C258.211 12.0417 259.323 12.5156 260.125 13.4453C260.927 14.375 261.328 15.6875 261.328 17.3828V17.875H252.934V16.6719H259.523L259.223 17.0273V16.4531C259.223 15.3958 258.986 14.5846 258.512 14.0195C258.038 13.4544 257.391 13.1719 256.57 13.1719C256.06 13.1719 255.568 13.3268 255.094 13.6367C254.62 13.9284 254.237 14.3841 253.945 15.0039C253.654 15.6055 253.508 16.3711 253.508 17.3008V17.6289C253.508 19.1237 253.872 20.2904 254.602 21.1289C255.349 21.9674 256.306 22.3867 257.473 22.3867C258.111 22.3867 258.685 22.2591 259.195 22.0039C259.706 21.7487 260.198 21.3385 260.672 20.7734L261.355 21.4023C260.845 22.3503 260.198 23.0612 259.414 23.5352C258.63 23.9909 257.755 24.2188 256.789 24.2188Z" fill="white"/>
<path d="M269.066 24.2188C268.046 24.2188 267.107 23.9909 266.25 23.5352C265.393 23.0612 264.71 22.3867 264.199 21.5117C263.689 20.6185 263.434 19.5612 263.434 18.3398C263.434 17.1549 263.698 16.0885 264.227 15.1406C264.773 14.1745 265.512 13.418 266.441 12.8711C267.389 12.306 268.447 12.0234 269.613 12.0234C270.415 12.0234 271.09 12.1237 271.637 12.3242C272.184 12.5247 272.594 12.7891 272.867 13.1172C273.159 13.4453 273.305 13.7917 273.305 14.1562C273.305 14.4479 273.214 14.694 273.031 14.8945C272.849 15.0768 272.594 15.168 272.266 15.168C271.974 15.168 271.719 15.1133 271.5 15.0039C271.281 14.8945 271.017 14.6758 270.707 14.3477L269.312 12.9531L270.297 13.2266C269.568 13.0625 268.866 13.1354 268.191 13.4453C267.517 13.737 266.961 14.2565 266.523 15.0039C266.086 15.7331 265.867 16.681 265.867 17.8477C265.867 19.306 266.232 20.4271 266.961 21.2109C267.708 21.9948 268.638 22.3867 269.75 22.3867C270.443 22.3867 271.035 22.2591 271.527 22.0039C272.038 21.7487 272.521 21.3385 272.977 20.7734L273.715 21.4023C273.204 22.3503 272.557 23.0612 271.773 23.5352C270.99 23.9909 270.087 24.2188 269.066 24.2188Z" fill="white"/>
<path d="M283.367 22.3047C283.021 22.9062 282.547 23.3802 281.945 23.7266C281.344 24.0547 280.715 24.2188 280.059 24.2188C278.947 24.2188 278.035 23.8815 277.324 23.207C276.613 22.5326 276.258 21.5208 276.258 20.1719L276.34 13.6367H274.426V13.0625L277.953 9.86328H278.473L278.418 13.0078L278.391 19.7344C278.391 20.6823 278.591 21.3841 278.992 21.8398C279.411 22.2956 279.995 22.5234 280.742 22.5234C281.161 22.5234 281.544 22.4414 281.891 22.2773C282.255 22.1133 282.583 21.8945 282.875 21.6211L283.367 22.3047ZM277.434 13.6367V12.2695H282.547V13.6367H277.434Z" fill="white"/>
</svg>
