<svg width="205" height="48" viewBox="0 0 205 48" fill="none" xmlns="http://www.w3.org/2000/svg">
<path d="M48 24C48 37.248 37.248 48 24 48C10.752 48 0 37.248 0 24C0 10.752 10.752 0 24 0H24.016C37.264 0 48.016 10.752 48 24Z" fill="#670C09"/>
<path d="M42.528 24C42.528 34.224 34.224 42.512 24 42.512C13.776 42.512 5.48801 34.208 5.48801 23.984C5.50401 13.76 13.792 5.472 24.016 5.472C34.24 5.472 42.528 13.776 42.528 24Z" fill="#D19E42"/>
<path d="M24.016 42.768C13.648 42.768 5.24801 34.368 5.24801 24.016C5.24801 13.664 13.648 5.248 24 5.248C34.352 5.248 42.768 13.648 42.768 24V24.016C42.768 34.352 34.368 42.752 24.016 42.768ZM24.016 5.728C13.92 5.728 5.74401 13.904 5.74401 23.984C5.74401 34.064 13.92 42.256 24 42.256C34.08 42.256 42.272 34.096 42.272 24C42.272 13.904 34.096 5.744 24.016 5.728Z" fill="white"/>
<path d="M7.968 39.936L9.952 37.904L10.416 38.352L8.432 40.384L7.968 39.936Z" fill="white"/>
<path d="M9.376 37.328L7.168 39.12L6.688 38.544L7.12 37.424C7.248 37.088 7.408 36.768 7.584 36.448C7.296 36.72 7.008 36.992 6.688 37.232L6.048 37.76L5.68 37.296L7.888 35.504L8.32 36.032L7.84 37.2C7.696 37.552 7.552 37.888 7.376 38.208L7.392 38.224C7.68 37.968 7.984 37.712 8.336 37.408L9.008 36.864L9.376 37.328Z" fill="white"/>
<path d="M6.70401 34.512C6.67201 34.448 6.64001 34.368 6.60801 34.32C6.32001 33.808 5.85601 33.632 5.26401 33.968C4.73601 34.272 4.65601 34.72 4.92801 35.2C4.97601 35.28 5.02401 35.36 5.08801 35.44L6.70401 34.512ZM5.00801 36.224C4.83201 36 4.67201 35.76 4.52801 35.504C4.25601 35.024 4.16001 34.672 4.20801 34.336C4.25601 33.968 4.46401 33.632 4.91201 33.376C5.28001 33.136 5.72801 33.088 6.14401 33.216C6.51201 33.36 6.84801 33.696 7.12001 34.176C7.24801 34.384 7.34401 34.608 7.44001 34.832L5.00801 36.224Z" fill="white"/>
<path d="M3.05599 32.528L5.67999 31.408L5.93599 32L3.31199 33.12L3.05599 32.528Z" fill="white"/>
<path d="M3.80801 29.68L3.28001 30.016C3.13601 30.112 2.94401 30.224 2.80001 30.304V30.32C2.97601 30.304 3.20001 30.288 3.36001 30.288H3.98401L3.80801 29.68ZM4.48001 30.224L5.23201 30.208L5.42401 30.848L2.44801 30.816L2.20801 30.016L4.68801 28.352L4.88001 29.024L4.24001 29.44L4.48001 30.224Z" fill="white"/>
<path d="M4.57599 27.744L1.75999 28.112L1.66399 27.36L2.62399 26.64C2.91199 26.432 3.21599 26.224 3.53599 26.048V26.032C3.15199 26.128 2.75199 26.192 2.36799 26.24L1.55199 26.352L1.47199 25.76L4.30399 25.392L4.38399 26.064L3.37599 26.816C3.07199 27.04 2.76799 27.248 2.44799 27.424V27.44C2.81599 27.376 3.21599 27.312 3.67999 27.248L4.52799 27.136L4.57599 27.744Z" fill="white"/>
<path d="M1.44001 22.72L4.28801 22.832L4.25601 23.472L1.40801 23.36L1.44001 22.72Z" fill="white"/>
<path d="M4.32 22.016L1.504 21.568L1.616 20.832L2.736 20.416C3.072 20.288 3.424 20.192 3.776 20.112C3.392 20.096 3.008 20.048 2.592 19.968L1.776 19.824L1.872 19.232L4.688 19.68L4.576 20.352L3.392 20.784C3.04 20.912 2.688 21.024 2.32 21.12V21.136C2.704 21.168 3.104 21.232 3.552 21.312L4.4 21.456L4.32 22.016Z" fill="white"/>
<path d="M4.272 18.688C4.448 18.512 4.576 18.288 4.656 18.064C4.736 17.776 4.672 17.6 4.496 17.536C4.32 17.472 4.192 17.584 3.968 17.872C3.664 18.272 3.328 18.496 2.928 18.368C2.464 18.224 2.24 17.728 2.432 17.088C2.496 16.848 2.624 16.624 2.784 16.432L3.232 16.72C3.088 16.864 2.992 17.04 2.928 17.248C2.848 17.52 2.928 17.68 3.072 17.728C3.248 17.776 3.376 17.664 3.616 17.344C3.936 16.912 4.256 16.768 4.656 16.896C5.12 17.04 5.392 17.504 5.152 18.256C5.072 18.528 4.928 18.768 4.736 18.976L4.272 18.688Z" fill="white"/>
<path d="M3.84 15.04L3.52 15.744L3.024 15.504L3.952 13.52L4.448 13.744L4.128 14.448L6.224 15.408L5.936 16L3.84 15.04Z" fill="white"/>
<path d="M4.72 12.192L7.168 13.648L6.848 14.192L4.384 12.736L4.72 12.192Z" fill="white"/>
<path d="M6.08 11.136L5.616 11.744L5.184 11.424L6.48 9.664L6.912 9.984L6.448 10.608L8.304 11.984L7.92 12.496L6.08 11.136Z" fill="white"/>
<path d="M7.58399 8.448L8.75199 9.6C9.10399 9.952 9.40799 9.984 9.64799 9.76C9.88799 9.536 9.83999 9.216 9.48799 8.864L8.31999 7.712L8.76799 7.248L9.90399 8.368C10.528 8.992 10.512 9.6 9.98399 10.128C9.45599 10.656 8.89599 10.656 8.25599 10.016L7.13599 8.896L7.58399 8.448Z" fill="white"/>
<path d="M10.48 6.56L9.87199 7.024L9.55199 6.592L11.28 5.28L11.6 5.712L10.976 6.176L12.368 8.016L11.856 8.4L10.48 6.56Z" fill="white"/>
<path d="M14.384 5.344L13.472 5.856L13.808 6.448L14.832 5.872L15.088 6.336L13.52 7.232L12.112 4.752L13.632 3.888L13.888 4.352L12.928 4.896L13.216 5.408L14.128 4.896L14.384 5.344Z" fill="white"/>
<path d="M17.76 4.752C18.176 4.624 18.288 4.144 18.112 3.616C17.952 3.136 17.584 2.784 17.168 2.928C16.752 3.072 16.64 3.552 16.8 4.064C16.96 4.576 17.344 4.896 17.76 4.752ZM17.888 5.248C17.088 5.504 16.416 5.056 16.16 4.288C15.888 3.472 16.224 2.704 17.024 2.432C17.856 2.16 18.512 2.64 18.752 3.392C19.04 4.288 18.688 5.008 17.888 5.248Z" fill="white"/>
<path d="M19.408 1.84L21.12 1.552L21.216 2.064L20.128 2.24L20.24 2.88L21.248 2.704L21.328 3.216L20.32 3.392L20.512 4.528L19.872 4.64L19.408 1.84Z" fill="white"/>
<path d="M24.032 1.92H23.264L23.28 1.376L25.456 1.408L25.44 1.952L24.656 1.936L24.624 4.24L23.984 4.224L24.032 1.92Z" fill="white"/>
<path d="M27.856 3.36L26.816 3.216L26.72 3.888L27.872 4.048L27.792 4.576L26 4.32L26.416 1.504L28.16 1.76L28.08 2.288L26.976 2.128L26.896 2.72L27.936 2.864L27.856 3.36Z" fill="white"/>
<path d="M30.512 5.216C30.272 5.232 30.016 5.216 29.776 5.136C28.832 4.864 28.512 4.128 28.736 3.344C29.008 2.4 29.808 2.08 30.64 2.32C30.88 2.384 31.088 2.496 31.28 2.64L31.008 3.088C30.864 2.976 30.704 2.88 30.512 2.832C30.032 2.688 29.552 2.88 29.392 3.488C29.232 4.032 29.456 4.48 30.016 4.624C30.192 4.672 30.384 4.688 30.56 4.688L30.512 5.216Z" fill="white"/>
<path d="M32.896 3.2L32.432 4.192L33.392 4.64L33.856 3.648L34.448 3.92L33.264 6.512L32.688 6.24L33.184 5.152L32.224 4.704L31.728 5.792L31.136 5.52L32.32 2.928L32.896 3.2Z" fill="white"/>
<path d="M33.984 6.896L35.568 4.528L36.192 4.944L36.096 6.144C36.064 6.496 36.016 6.864 35.936 7.216C36.128 6.88 36.32 6.56 36.56 6.208L37.024 5.52L37.52 5.84L35.936 8.208L35.376 7.84L35.472 6.592C35.504 6.224 35.552 5.856 35.616 5.488L35.6 5.472C35.408 5.792 35.184 6.144 34.928 6.528L34.448 7.248L33.984 6.896Z" fill="white"/>
<path d="M37.808 9.216C38.128 9.504 38.592 9.376 38.96 8.976C39.312 8.608 39.44 8.112 39.104 7.808C38.768 7.504 38.304 7.648 37.936 8.048C37.568 8.448 37.488 8.912 37.808 9.216ZM37.44 9.568C36.832 8.992 36.896 8.192 37.456 7.6C38.032 6.976 38.88 6.88 39.488 7.456C40.128 8.048 40.032 8.864 39.488 9.44C38.848 10.112 38.048 10.128 37.44 9.568Z" fill="white"/>
<path d="M41.152 9.232L41.552 9.728L39.76 11.168L40.464 12.048L40.048 12.384L38.944 10.992L41.152 9.232Z" fill="white"/>
<path d="M41.36 13.6C41.584 13.968 42.064 13.968 42.544 13.696C42.976 13.424 43.232 13.008 43.008 12.624C42.784 12.24 42.288 12.256 41.824 12.528C41.36 12.8 41.136 13.232 41.36 13.6ZM40.912 13.84C40.48 13.12 40.768 12.368 41.472 11.952C42.208 11.504 43.04 11.648 43.472 12.368C43.92 13.12 43.6 13.856 42.928 14.272C42.112 14.752 41.344 14.56 40.912 13.84Z" fill="white"/>
<path d="M42.96 17.792C42.752 17.536 42.576 17.264 42.464 16.96C42.272 16.48 42.256 16.08 42.384 15.744C42.544 15.392 42.832 15.12 43.2 14.992C44.08 14.64 44.832 15.088 45.184 15.952C45.28 16.208 45.344 16.464 45.344 16.736L44.816 16.8C44.816 16.576 44.784 16.352 44.688 16.144C44.496 15.648 44.064 15.376 43.488 15.6C42.944 15.824 42.752 16.288 42.944 16.784C42.976 16.88 43.024 16.976 43.088 17.056L43.648 16.832L43.488 16.416L43.952 16.224L44.336 17.216L42.96 17.792Z" fill="white"/>
<path d="M43.184 19.216L44.32 18.96L45.76 17.712L45.92 18.432L45.312 18.864C45.136 18.992 44.992 19.088 44.832 19.2V19.216C45.024 19.232 45.2 19.264 45.408 19.296L46.144 19.424L46.304 20.128L44.48 19.584L43.312 19.856L43.184 19.216Z" fill="white"/>
<path d="M44.88 24.8C45.216 24.784 45.632 24.768 46.048 24.752V24.736C45.68 24.64 45.28 24.544 44.944 24.432L43.824 24.096V23.6L44.912 23.28C45.248 23.184 45.648 23.088 46.032 23.008V22.992C45.648 22.992 45.216 22.976 44.848 22.96L43.76 22.928L43.744 22.336L46.592 22.48L46.608 23.344L45.664 23.632C45.344 23.728 44.992 23.824 44.656 23.888V23.904C44.992 23.968 45.36 24.064 45.68 24.16L46.64 24.448L46.656 25.296L43.808 25.488L43.792 24.864L44.88 24.8Z" fill="white"/>
<path d="M44.64 27.808L45.264 27.728C45.44 27.712 45.664 27.696 45.824 27.68C45.664 27.616 45.456 27.536 45.312 27.456L44.752 27.184L44.64 27.808ZM44.288 27.008L43.6 26.688L43.712 26.032L46.368 27.376L46.224 28.208L43.264 28.608L43.376 27.92L44.128 27.824L44.288 27.008Z" fill="white"/>
<path d="M43.36 29.984C43.328 30.048 43.296 30.128 43.28 30.192C43.088 30.752 43.264 31.216 43.92 31.44C44.496 31.632 44.88 31.408 45.072 30.88C45.104 30.784 45.136 30.688 45.136 30.592L43.36 29.984ZM45.76 30.112C45.712 30.4 45.632 30.672 45.536 30.96C45.36 31.472 45.168 31.776 44.88 31.968C44.592 32.16 44.176 32.24 43.696 32.08C43.28 31.968 42.928 31.664 42.752 31.264C42.608 30.896 42.656 30.432 42.832 29.904C42.912 29.664 43.008 29.44 43.104 29.232L45.76 30.112Z" fill="white"/>
<path d="M43.12 33.52L43.008 33.744C42.864 34.032 42.912 34.272 43.136 34.384C43.36 34.496 43.568 34.4 43.696 34.144C43.744 34.064 43.776 33.968 43.808 33.872L43.12 33.52ZM44.496 33.52C44.4 33.792 44.288 34.064 44.16 34.304C43.968 34.688 43.776 34.912 43.536 35.024C43.328 35.12 43.088 35.104 42.88 34.992C42.608 34.848 42.448 34.528 42.496 34.224H42.48C42.32 34.368 42.096 34.368 41.84 34.32C41.504 34.256 41.136 34.16 41.024 34.16L41.328 33.568C41.552 33.584 41.792 33.632 42 33.696C42.352 33.792 42.496 33.728 42.624 33.488L42.704 33.312L41.712 32.8L42 32.24L44.496 33.52Z" fill="white"/>
<path d="M40.848 36.512L41.44 36.72C41.6 36.784 41.808 36.864 41.968 36.928V36.912C41.856 36.784 41.712 36.624 41.6 36.496L41.216 36L40.848 36.512ZM40.88 35.632L40.4 35.04L40.784 34.496L42.576 36.88L42.08 37.552L39.248 36.608L39.648 36.048L40.368 36.304L40.88 35.632Z" fill="white"/>
<path d="M39.296 37.552C39.056 37.632 38.848 37.76 38.672 37.936C38.464 38.144 38.448 38.352 38.576 38.48C38.704 38.608 38.864 38.576 39.2 38.416C39.648 38.192 40.064 38.144 40.352 38.432C40.704 38.768 40.688 39.328 40.224 39.808C40.064 40 39.856 40.144 39.616 40.224L39.344 39.76C39.536 39.696 39.712 39.584 39.856 39.424C40.048 39.216 40.048 39.04 39.952 38.928C39.824 38.8 39.648 38.864 39.296 39.024C38.816 39.264 38.464 39.248 38.176 38.96C37.84 38.624 37.792 38.08 38.336 37.52C38.528 37.312 38.768 37.168 39.024 37.056L39.296 37.552Z" fill="white"/>
<path d="M37.424 40.96C37.424 41.2 37.232 41.376 37.008 41.376C36.784 41.376 36.592 41.184 36.592 40.96C36.592 40.72 36.784 40.544 37.008 40.544C37.232 40.544 37.424 40.72 37.424 40.96Z" fill="white"/>
<path d="M11.44 40.96C11.44 41.2 11.248 41.376 11.024 41.376C10.8 41.376 10.608 41.184 10.608 40.96C10.608 40.72 10.8 40.544 11.024 40.544C11.248 40.544 11.44 40.72 11.44 40.96Z" fill="white"/>
<path d="M13.936 35.328L20.656 36.528L19.936 37.36L26.544 37.936L25.888 38.48L32.4 38.768L23.776 39.616L24.864 38.656L18.016 37.952L19.152 37.104L13.936 35.328Z" fill="white"/>
<path d="M13.168 41.184L13.76 41.536C13.76 41.424 13.776 41.328 13.808 41.216C13.84 41.12 13.872 41.008 13.936 40.928C14.016 40.784 14.16 40.688 14.32 40.656C14.496 40.624 14.672 40.656 14.816 40.752C15.04 40.896 15.2 41.12 15.296 41.376C15.44 41.712 15.52 42.08 15.536 42.432L15.408 42.448C15.392 42.176 15.312 41.904 15.184 41.648C15.072 41.424 14.912 41.248 14.704 41.12C14.592 41.056 14.448 41.04 14.336 41.104C14.192 41.152 14.08 41.264 14 41.392C13.952 41.456 13.92 41.536 13.904 41.616L14.128 41.76L14.176 42.128L13.856 41.936L12.768 43.792L12.56 43.376L13.52 41.728L13.216 41.552L13.168 41.184Z" fill="white"/>
<path d="M14.704 42.72C14.672 42.848 14.624 42.976 14.576 43.088C14.608 43.168 14.656 43.248 14.72 43.312C14.768 43.376 14.816 43.424 14.896 43.456C14.96 43.488 15.04 43.504 15.104 43.504C15.184 43.504 15.264 43.488 15.328 43.456L15.632 42.832L14.736 42.4C14.736 42.512 14.736 42.608 14.704 42.72ZM14.784 44.544L15.12 43.84C15.088 43.84 15.056 43.84 15.008 43.824C14.96 43.808 14.896 43.792 14.848 43.76C14.752 43.712 14.672 43.632 14.608 43.536C14.528 43.424 14.48 43.312 14.448 43.184C14.368 43.264 14.272 43.328 14.176 43.36C14.096 43.392 14 43.408 13.904 43.408C13.968 43.776 14.112 44.128 14.304 44.448L14.064 44.544C13.712 43.536 13.584 42.928 13.696 42.72C13.712 42.672 13.76 42.624 13.808 42.608C13.856 42.592 13.904 42.592 13.936 42.608C13.984 42.64 14.016 42.672 14.048 42.72C14.08 42.784 14.08 42.848 14.08 42.912C14.256 42.912 14.4 42.816 14.48 42.672C14.512 42.608 14.528 42.544 14.544 42.48C14.56 42.416 14.56 42.368 14.544 42.304L13.888 41.984L13.824 41.616L16.224 42.784L16.288 43.152L15.952 42.992L15.008 44.928L14.784 44.544Z" fill="white"/>
<path d="M15.984 42.672L16.624 42.928C16.608 42.816 16.608 42.72 16.608 42.608C16.624 42.496 16.64 42.4 16.672 42.304C16.736 42.16 16.848 42.032 17.008 41.984C17.168 41.92 17.344 41.936 17.504 42C17.744 42.112 17.952 42.304 18.08 42.528C18.272 42.832 18.4 43.184 18.48 43.536L18.368 43.568C18.304 43.296 18.192 43.04 18.016 42.816C17.872 42.624 17.68 42.464 17.456 42.368C17.328 42.32 17.2 42.336 17.088 42.4C16.96 42.48 16.864 42.592 16.816 42.736C16.784 42.816 16.752 42.896 16.752 42.976L17.008 43.072L17.104 43.424L16.768 43.296L15.984 45.312L15.712 44.928L16.4 43.152L16.08 43.024L15.984 42.672Z" fill="white"/>
<path d="M17.248 45.568C17.28 45.616 17.312 45.648 17.36 45.664C17.472 45.696 17.584 45.696 17.696 45.648C17.824 45.6 17.936 45.52 18.016 45.424C17.856 45.392 17.712 45.328 17.584 45.216C17.504 45.216 17.424 45.232 17.344 45.28C17.28 45.312 17.232 45.376 17.216 45.44C17.216 45.472 17.232 45.52 17.248 45.568ZM19.28 43.808L19.408 44.16L18.992 44.032L18.8 44.688L17.888 44.416C17.824 44.4 17.744 44.4 17.68 44.448C17.616 44.48 17.568 44.544 17.552 44.624C17.52 44.704 17.536 44.8 17.6 44.88C17.664 44.96 17.744 45.024 17.84 45.056L18.128 45.12V45.008C18.144 44.944 18.192 44.896 18.256 44.88C18.336 44.848 18.416 44.848 18.48 44.88C18.56 44.896 18.624 44.96 18.672 45.04C18.704 45.12 18.72 45.216 18.688 45.296C18.672 45.36 18.624 45.408 18.576 45.44C18.512 45.488 18.448 45.504 18.368 45.504L18.736 46.224L18.512 46.304L18.32 45.76C18.208 45.856 18.08 45.92 17.936 45.952C17.808 45.984 17.68 45.984 17.552 45.936C17.392 45.888 17.248 45.792 17.152 45.648C17.024 45.504 16.992 45.376 17.008 45.28C17.024 45.248 17.024 45.216 17.056 45.184C17.072 45.152 17.088 45.136 17.12 45.104C16.976 45.056 16.848 44.96 16.768 44.832C16.688 44.736 16.656 44.608 16.704 44.48C16.72 44.432 16.752 44.384 16.8 44.336C16.864 44.272 16.928 44.224 16.992 44.176L17.232 44.56C17.184 44.576 17.136 44.608 17.088 44.64C17.056 44.656 17.04 44.688 17.024 44.72C17.008 44.768 17.024 44.816 17.056 44.864C17.088 44.912 17.152 44.944 17.216 44.96L17.44 44.88C17.376 44.8 17.344 44.704 17.328 44.608C17.312 44.512 17.312 44.416 17.344 44.32C17.376 44.208 17.472 44.112 17.584 44.08C17.712 44.032 17.872 44.032 18 44.08L18.544 44.24L18.64 43.92L16.864 43.392L16.736 43.04L19.28 43.808Z" fill="white"/>
<path d="M19.488 44.304C19.552 44.384 19.632 44.432 19.728 44.448L19.808 44.032C19.824 43.984 19.824 43.952 19.808 43.904C19.792 43.872 19.776 43.84 19.744 43.84C19.6 43.808 19.456 43.904 19.424 44.048V44.064C19.408 44.16 19.44 44.24 19.488 44.304ZM20.272 43.984L21.456 44.192L21.616 44.528L21.248 44.464L20.864 46.592L20.528 46.272L20.64 45.648L19.936 45.52L19.888 45.76C19.888 45.808 19.856 45.856 19.824 45.888C19.792 45.92 19.76 45.936 19.712 45.92C19.568 45.872 19.44 45.76 19.36 45.616C19.264 45.488 19.216 45.328 19.216 45.152C19.232 45.12 19.248 45.088 19.28 45.072C19.312 45.056 19.36 45.056 19.408 45.056L19.6 45.088L19.68 44.624C19.504 44.544 19.36 44.432 19.264 44.272C19.168 44.144 19.136 43.984 19.152 43.824C19.168 43.728 19.232 43.648 19.312 43.6C19.392 43.552 19.504 43.536 19.6 43.552C19.776 43.6 19.92 43.712 19.984 43.872C20.096 44.016 20.144 44.192 20.112 44.368L19.968 45.136L20.672 45.264L20.832 44.352L20.384 44.272L20.272 43.984Z" fill="white"/>
<path d="M20.864 42.992C20.96 42.912 21.088 42.88 21.2 42.896C21.328 42.912 21.44 42.96 21.552 43.04C21.648 43.12 21.728 43.232 21.76 43.36L21.68 43.424C21.648 43.36 21.6 43.312 21.552 43.28C21.504 43.248 21.456 43.216 21.392 43.216C21.28 43.2 21.168 43.232 21.088 43.296C20.992 43.36 20.944 43.456 20.928 43.568C20.928 43.632 20.928 43.712 20.96 43.776C20.992 43.856 21.04 43.936 21.088 44.016L20.976 44.08C20.864 43.968 20.784 43.84 20.736 43.68C20.688 43.552 20.672 43.408 20.688 43.264C20.704 43.168 20.768 43.056 20.864 42.992Z" fill="white"/>
<path d="M21.792 45.808C21.856 45.872 21.936 45.904 22.016 45.904C22.144 45.904 22.288 45.888 22.4 45.84C22.544 45.792 22.688 45.712 22.816 45.616C22.752 45.52 22.656 45.424 22.56 45.36C22.48 45.296 22.384 45.264 22.272 45.248C22.128 45.232 22 45.264 21.888 45.328C21.792 45.376 21.728 45.472 21.712 45.584C21.696 45.68 21.728 45.76 21.792 45.808ZM23.456 44.336L23.648 44.64L23.28 44.608L23.12 46.768L22.752 46.496L22.784 46C22.688 46.064 22.592 46.128 22.48 46.16C22.384 46.192 22.288 46.208 22.176 46.208C21.968 46.176 21.776 46.08 21.648 45.92C21.504 45.792 21.408 45.6 21.408 45.392C21.424 45.248 21.488 45.12 21.616 45.04C21.744 44.944 21.904 44.896 22.064 44.912C22.224 44.928 22.368 44.976 22.496 45.072C22.64 45.168 22.752 45.296 22.832 45.44L22.896 44.576L21.328 44.464L21.136 44.16L23.456 44.336Z" fill="white"/>
<path d="M23.216 44.32L23.904 44.336C23.856 44.24 23.808 44.144 23.776 44.032C23.744 43.92 23.728 43.824 23.744 43.712C23.744 43.552 23.824 43.392 23.952 43.296C24.08 43.184 24.256 43.136 24.416 43.136C24.688 43.152 24.944 43.264 25.136 43.44C25.424 43.664 25.664 43.936 25.872 44.24L25.776 44.32C25.616 44.08 25.424 43.888 25.184 43.728C24.976 43.6 24.752 43.52 24.512 43.504C24.384 43.504 24.256 43.568 24.176 43.664C24.08 43.776 24.032 43.92 24.032 44.08C24.032 44.16 24.032 44.24 24.048 44.32H24.32L24.544 44.624H24.176L24.144 46.784L23.76 46.528L23.792 44.608H23.44L23.216 44.32Z" fill="white"/>
<path d="M26.32 44.224L26.56 44.512L26.192 44.544L26.336 46.704L25.936 46.48L25.872 45.408L25.104 45.456C25.04 45.456 24.976 45.504 24.928 45.568C24.88 45.632 24.864 45.712 24.88 45.792C24.896 45.936 24.944 46.08 25.04 46.208C25.152 46.352 25.28 46.496 25.424 46.592L25.28 46.72C25.072 46.544 24.88 46.336 24.704 46.112C24.592 45.968 24.512 45.792 24.48 45.616C24.464 45.488 24.512 45.344 24.592 45.248C24.656 45.152 24.768 45.088 24.896 45.072L25.824 45.008L25.792 44.56L24.256 44.656L24.016 44.368L26.32 44.224Z" fill="white"/>
<path d="M27.856 45.472C27.904 45.504 27.984 45.52 28.032 45.504C28.144 45.488 28.24 45.44 28.32 45.36C28.416 45.28 28.496 45.184 28.544 45.072C28.496 45.008 28.416 44.96 28.352 44.928C28.288 44.896 28.208 44.896 28.144 44.912C28.032 44.928 27.92 44.992 27.84 45.072C27.776 45.136 27.728 45.232 27.744 45.312C27.76 45.376 27.808 45.44 27.856 45.472ZM29.632 43.6L29.904 43.84L28.752 44.08L28.88 44.736C28.912 44.672 28.96 44.624 29.024 44.576C29.088 44.528 29.152 44.512 29.216 44.496C29.344 44.464 29.504 44.544 29.68 44.704C29.84 44.848 29.952 45.024 30 45.232C30.016 45.328 30.016 45.424 30 45.52C29.984 45.632 29.952 45.744 29.904 45.856L29.536 45.632C29.6 45.536 29.664 45.424 29.696 45.312C29.728 45.216 29.728 45.12 29.712 45.024C29.696 44.944 29.648 44.88 29.6 44.832C29.536 44.784 29.472 44.768 29.392 44.784C29.312 44.8 29.248 44.848 29.184 44.912C29.104 44.992 29.04 45.072 28.992 45.168L29.2 46.208L28.768 46.048L28.656 45.52C28.608 45.584 28.56 45.632 28.496 45.68C28.432 45.728 28.352 45.76 28.288 45.76C28.112 45.776 27.936 45.728 27.808 45.6C27.648 45.488 27.536 45.328 27.488 45.152C27.472 45.04 27.488 44.912 27.568 44.832C27.648 44.736 27.76 44.672 27.888 44.64C28 44.624 28.112 44.64 28.208 44.672C28.32 44.72 28.432 44.8 28.528 44.88L28.384 44.16L27.184 44.4L26.912 44.16L29.632 43.6Z" fill="white"/>
<path d="M30.688 44.496L31.392 44.256L31.088 43.376L30.384 43.616L30.688 44.496ZM31.504 42.928L31.808 43.136L31.456 43.248L32.16 45.296L31.712 45.184L31.52 44.64L30.816 44.88L30.896 45.12C30.912 45.168 30.912 45.216 30.896 45.264C30.88 45.296 30.848 45.328 30.816 45.344C30.656 45.376 30.48 45.344 30.352 45.248C30.192 45.184 30.064 45.056 30 44.912C29.984 44.88 30 44.832 30.016 44.8C30.032 44.768 30.08 44.736 30.112 44.72L30.32 44.64L30.016 43.76L29.52 43.92L29.216 43.712L31.504 42.928Z" fill="white"/>
<path d="M30.416 42.16C30.464 42.048 30.56 41.968 30.672 41.92C30.784 41.872 30.928 41.856 31.056 41.888C31.184 41.904 31.296 41.968 31.392 42.064L31.36 42.16C31.296 42.128 31.232 42.112 31.168 42.096C31.104 42.096 31.056 42.096 30.992 42.112C30.896 42.144 30.8 42.24 30.768 42.336C30.72 42.432 30.72 42.56 30.768 42.656C30.8 42.72 30.848 42.768 30.896 42.816C30.96 42.88 31.04 42.928 31.136 42.96L31.072 43.072C30.928 43.024 30.784 42.944 30.672 42.848C30.56 42.752 30.48 42.64 30.432 42.512C30.368 42.384 30.368 42.256 30.416 42.16Z" fill="white"/>
<path d="M33.696 41.92L34.016 42.096L33.68 42.256L34.608 44.208L34.144 44.16L33.712 43.216L33.088 43.504C33.216 43.536 33.344 43.6 33.44 43.664C33.536 43.728 33.616 43.824 33.664 43.92C33.712 44.032 33.712 44.144 33.68 44.256C33.632 44.368 33.552 44.464 33.44 44.512C33.248 44.608 33.008 44.576 32.72 44.448C32.4 44.288 32.128 44.064 31.904 43.776L32.016 43.664C32.176 43.856 32.384 44.016 32.608 44.128C32.768 44.224 32.96 44.24 33.136 44.176C33.2 44.144 33.248 44.096 33.264 44.032C33.28 43.968 33.28 43.888 33.248 43.824C33.184 43.696 33.072 43.6 32.944 43.552C32.768 43.472 32.592 43.408 32.4 43.376L33.552 42.832L33.344 42.384L31.52 43.248L31.2 43.072L33.696 41.92Z" fill="white"/>
<path d="M34.384 41.472L34.72 41.616L34.4 41.792L35.472 43.664L35.008 43.648L34.048 41.984L33.744 42.16L33.408 42.016L34.384 41.472Z" fill="white"/>
<path d="M10.864 26.896C10.864 27.52 12.304 27.84 12.688 27.936C14.32 28.336 15.984 28.576 17.664 28.672C19.2 28.784 21.088 28.528 22.56 28.144C21.696 26.992 20.848 25.824 20.24 24.512C14.752 24.848 10.864 25.952 10.864 26.896ZM27.776 24.48C27.168 25.792 26.336 26.96 25.456 28.112C26.928 28.496 28.816 28.752 30.352 28.64C32.016 28.544 33.68 28.304 35.312 27.904C35.696 27.808 37.136 27.488 37.136 26.864C37.152 25.952 33.264 24.848 27.776 24.48Z" fill="white"/>
<path d="M22.56 28.112C21.696 26.96 20.864 25.776 20.256 24.464C20.208 24.368 20.16 24.272 20.112 24.16C19.808 23.456 19.584 22.736 19.424 22C18.784 18.8 19.792 15.568 21.568 12.912C22.592 11.36 23.696 9.776 23.984 7.904H24.048C24.336 9.792 25.424 11.36 26.464 12.912C28.224 15.568 29.232 18.8 28.608 22C28.448 22.736 28.224 23.472 27.92 24.16C27.872 24.256 27.824 24.352 27.776 24.464C27.168 25.776 26.336 26.944 25.456 28.096C24.96 27.968 24.48 27.808 24.016 27.632C23.552 27.824 23.072 27.984 22.576 28.096C22.592 28.112 22.544 28.128 22.56 28.112Z" fill="white"/>
<path d="M22.56 28.128C21.088 28.512 19.2 28.768 17.664 28.656C16 28.56 14.336 28.32 12.704 27.92C12.368 27.824 11.136 27.568 10.912 27.056C12.16 31.664 17.568 35.12 24.032 35.12C30.496 35.12 35.888 31.664 37.152 27.056H37.136C36.896 27.552 35.696 27.824 35.36 27.904C33.728 28.304 32.064 28.544 30.4 28.64C28.864 28.752 26.976 28.496 25.504 28.112C25.008 27.984 24.528 27.824 24.064 27.648C23.6 27.84 23.12 28 22.624 28.112C22.624 28.112 22.592 28.128 22.576 28.112L22.56 28.128Z" fill="#670C09"/>
<path d="M24.256 24.256C24.16 24.336 24.08 24.448 24.064 24.576H24.048C24.016 24.448 23.936 24.336 23.824 24.24V27.68H23.952L24.032 27.648L24.128 27.68H24.256V24.256Z" fill="#D19E42"/>
<path d="M24.096 21.792H24C23.52 21.808 23.12 22.144 23.024 22.608C22.88 23.232 23.168 23.616 23.584 24.016C23.696 24.128 24.032 24.384 24.032 24.56H24.048C24.048 24.384 24.384 24.112 24.496 24.016C24.912 23.616 25.2 23.216 25.056 22.608C24.976 22.144 24.576 21.808 24.096 21.792Z" fill="#D4140C"/>
<path d="M23.024 22.608C23.088 22.304 23.28 22.032 23.568 21.888L23.6 21.824C23.6 21.824 22.416 20.864 20.944 22.016C21.008 21.984 21.584 22.48 21.664 22.528C22.032 22.8 22.496 22.912 22.944 22.832L22.976 22.768C22.992 22.736 23.008 22.672 23.024 22.608Z" fill="#D4140C"/>
<path d="M24.416 21.824L24.432 21.84C24.752 21.968 25.008 22.256 25.072 22.592C25.088 22.672 25.104 22.752 25.104 22.832C25.536 22.896 25.984 22.784 26.336 22.512C26.416 22.464 26.976 21.968 27.056 22C25.584 20.88 24.416 21.824 24.416 21.824Z" fill="#D4140C"/>
<path d="M23.984 15.088C23.984 15.088 20.96 19.712 23.616 21.744H24.352C27.008 19.696 23.984 15.088 23.984 15.088Z" fill="#D4140C"/>
<path d="M23.328 16.288L22.064 15.168C22.176 15.264 22.128 15.92 22.128 16.064C22.128 16.416 22.112 16.768 22.08 17.12C22.032 17.584 21.936 18.048 21.856 18.496C21.712 19.232 21.856 19.984 22.224 20.624C22.56 21.104 23.04 21.472 23.584 21.696C21.824 20.336 22.624 17.792 23.328 16.288Z" fill="#D4140C"/>
<path d="M26.128 18.512C26.048 18.048 25.952 17.6 25.904 17.136C25.872 16.784 25.856 16.432 25.856 16.08C25.856 15.936 25.808 15.28 25.92 15.184L24.64 16.32C25.344 17.824 26.128 20.368 24.352 21.744C24.912 21.52 25.392 21.136 25.744 20.656C26.128 20 26.272 19.248 26.128 18.512Z" fill="#D4140C"/>
<path d="M24.544 21.648L24.608 21.696C25.12 21.424 25.744 21.376 26.288 21.6L26.336 21.584C26.336 21.584 26.592 20.864 27.04 20.864C26.608 20.672 26.112 20.624 25.664 20.768C25.36 21.136 24.976 21.44 24.544 21.648Z" fill="#D4140C"/>
<path d="M23.376 21.696L23.408 21.68L23.392 21.632C22.976 21.424 22.608 21.136 22.32 20.768C21.856 20.64 21.36 20.672 20.928 20.864C21.376 20.864 21.632 21.584 21.632 21.584L21.696 21.616C22.24 21.392 22.864 21.424 23.376 21.696Z" fill="#D4140C"/>
<path d="M23.312 16.304C23.44 16.016 23.568 15.776 23.68 15.568L23.152 14.848L22.736 15.744V15.776L23.312 16.304Z" fill="#D4140C"/>
<path d="M24.64 16.304L25.264 15.76L24.864 14.864L24.336 15.6V15.68C24.432 15.856 24.544 16.08 24.64 16.304Z" fill="#D4140C"/>
<path d="M37.392 27.008L37.44 26.8H37.392C37.232 25.536 32.72 24.576 28.144 24.24C28.448 23.536 28.672 22.8 28.832 22.048C29.424 19.072 28.656 15.776 26.656 12.768L26.512 12.56C25.536 11.104 24.544 9.6 24.288 7.856L24.256 7.648H23.76L23.728 7.856C23.472 9.6 22.464 11.104 21.504 12.56L21.36 12.768C19.36 15.76 18.592 19.056 19.184 22.048C19.344 22.8 19.568 23.536 19.872 24.256C15.2 24.592 10.592 25.584 10.592 26.88C10.592 26.96 10.608 27.04 10.64 27.12C11.952 31.904 17.568 35.376 24 35.376C30.432 35.376 36.048 31.904 37.36 27.12L37.392 27.008ZM36.912 26.88C36.912 26.896 36.912 26.912 36.896 26.944V26.96C36.864 27.008 36.832 27.056 36.784 27.088C36.64 27.216 36.304 27.392 35.632 27.584L35.584 27.6L35.376 27.648L35.28 27.664C33.888 28.016 32.32 28.256 30.352 28.384C30.208 28.4 30.048 28.4 29.888 28.4H29.296C29.136 28.4 28.976 28.384 28.816 28.384H28.736C28.576 28.368 28.416 28.368 28.24 28.352H28.176C28 28.336 27.84 28.32 27.664 28.288L27.6 28.272C27.424 28.256 27.248 28.224 27.072 28.192H27.04C26.848 28.16 26.672 28.128 26.48 28.096C26.304 28.064 26.112 28.016 25.936 27.984H25.904L25.952 27.92L26.08 27.76C26.144 27.68 26.208 27.584 26.272 27.504C26.32 27.44 26.352 27.392 26.4 27.328L26.576 27.072L26.704 26.896L26.88 26.624L26.992 26.464C27.056 26.352 27.136 26.24 27.2 26.128C27.216 26.096 27.248 26.064 27.264 26.032C27.36 25.888 27.44 25.744 27.52 25.584C27.536 25.552 27.552 25.52 27.584 25.488C27.648 25.376 27.712 25.264 27.776 25.136C27.808 25.088 27.824 25.024 27.856 24.976C27.888 24.928 27.936 24.832 27.968 24.752C33.904 25.152 36.912 26.32 36.912 26.88ZM21.792 13.056L21.936 12.848C22.752 11.616 23.6 10.352 24.032 8.912C24.464 10.352 25.296 11.616 26.128 12.848L26.272 13.056C28.192 15.936 28.944 19.104 28.384 21.952C28.24 22.672 28.016 23.392 27.728 24.064C27.712 24.128 27.68 24.176 27.648 24.24L27.584 24.368C27.504 24.528 27.44 24.688 27.36 24.832L27.28 24.992C27.232 25.088 27.168 25.184 27.12 25.296L27.008 25.488C26.96 25.584 26.912 25.664 26.848 25.744L26.72 25.936C26.672 26.016 26.624 26.096 26.56 26.176C26.496 26.256 26.464 26.32 26.416 26.384C26.368 26.448 26.32 26.544 26.256 26.608C26.192 26.672 26.16 26.752 26.112 26.816C26.064 26.88 26.016 26.96 25.952 27.04L25.792 27.264L25.632 27.472L25.472 27.696L25.376 27.824H25.36L25.056 27.744L25.008 27.728C24.912 27.696 24.816 27.664 24.72 27.632L24.672 27.616L24.512 27.552V24.368C24.544 24.336 24.592 24.304 24.608 24.272L24.672 24.208C24.976 23.904 25.264 23.584 25.328 23.136H25.36C25.76 23.136 26.16 23.008 26.48 22.752C26.496 22.736 26.544 22.704 26.608 22.656C26.704 22.576 26.992 22.352 27.088 22.288C27.232 22.272 27.312 22.144 27.296 22C27.28 21.936 27.248 21.888 27.2 21.84C27.024 21.712 26.848 21.584 26.656 21.488C26.752 21.312 26.896 21.12 27.04 21.12C27.184 21.12 27.296 21.008 27.296 20.864C27.296 20.768 27.248 20.688 27.168 20.64C26.848 20.496 26.496 20.416 26.144 20.432C26.416 19.808 26.496 19.136 26.368 18.464C26.336 18.304 26.32 18.144 26.288 18C26.224 17.696 26.176 17.392 26.144 17.104C26.112 16.768 26.096 16.416 26.096 16.064V15.92C26.08 15.712 26.096 15.52 26.112 15.312C26.192 15.2 26.176 15.056 26.08 14.96C25.984 14.88 25.84 14.88 25.744 14.976L25.344 15.328L24.896 14.352L24.32 15.152C24.256 15.04 24.208 14.976 24.192 14.944C24.176 14.912 24.144 14.88 24.112 14.848C24.08 14.816 24.032 14.816 23.984 14.816C23.936 14.816 23.888 14.832 23.84 14.848C23.808 14.864 23.776 14.896 23.76 14.944L23.664 15.104L23.12 14.352L22.656 15.36L22.224 14.976C22.128 14.88 21.968 14.88 21.872 14.992C21.792 15.088 21.776 15.216 21.856 15.328C21.888 15.536 21.888 15.728 21.872 15.936V16.08C21.872 16.432 21.856 16.768 21.824 17.12C21.792 17.424 21.744 17.712 21.68 18.016C21.648 18.176 21.616 18.336 21.6 18.496C21.488 19.152 21.568 19.84 21.824 20.464C21.472 20.448 21.12 20.512 20.8 20.672C20.672 20.736 20.624 20.88 20.688 21.008C20.736 21.088 20.816 21.136 20.912 21.136C21.056 21.136 21.216 21.344 21.312 21.52C21.136 21.616 20.96 21.728 20.8 21.856C20.688 21.936 20.672 22.096 20.752 22.208C20.784 22.256 20.848 22.288 20.912 22.304C21.008 22.368 21.296 22.592 21.392 22.672C21.456 22.72 21.504 22.768 21.52 22.768C21.84 23.008 22.24 23.152 22.64 23.152H22.752C22.816 23.6 23.104 23.936 23.408 24.24L23.552 24.384V27.584L23.504 27.6C23.44 27.616 23.376 27.648 23.296 27.664L23.152 27.712C23.088 27.728 23.024 27.76 22.96 27.776L22.784 27.824L22.64 27.856C21.888 26.848 21.056 25.68 20.464 24.4L20.416 24.304C20.384 24.24 20.352 24.16 20.32 24.096C20.032 23.424 19.808 22.704 19.648 21.984C19.12 19.104 19.856 15.952 21.792 13.056ZM22.768 22.624C22.432 22.656 22.096 22.544 21.824 22.336L21.728 22.256C21.616 22.16 21.52 22.08 21.424 22.016C21.536 21.952 21.648 21.888 21.776 21.84H21.792C22.24 21.664 22.736 21.68 23.168 21.872C23.072 21.968 22.992 22.064 22.928 22.176C22.896 22.224 22.864 22.288 22.848 22.352V22.368C22.832 22.432 22.8 22.496 22.784 22.56C22.768 22.576 22.768 22.608 22.768 22.624ZM21.552 20.944C21.76 20.928 21.968 20.928 22.176 20.976C22.208 21.008 22.24 21.056 22.272 21.088C22.304 21.136 22.352 21.168 22.384 21.2H22.224L22.096 21.216C21.984 21.232 21.888 21.248 21.792 21.28C21.728 21.168 21.648 21.056 21.552 20.944ZM23.056 15.712L23.216 15.36L23.392 15.6C23.344 15.696 23.296 15.792 23.248 15.888L23.104 15.76L23.056 15.712ZM24.176 15.904C24.176 15.92 24.192 15.936 24.192 15.936C24.512 16.56 24.784 17.2 24.976 17.872C24.976 17.872 24.976 17.888 24.992 17.904L25.04 18.08L25.072 18.24C25.072 18.256 25.072 18.272 25.088 18.272C25.104 18.32 25.104 18.384 25.12 18.432V18.448C25.248 19.152 25.248 19.888 24.992 20.512C24.976 20.56 24.944 20.608 24.928 20.672C24.848 20.816 24.768 20.96 24.672 21.088L24.64 21.12C24.608 21.152 24.592 21.184 24.56 21.216L24.512 21.28L24.432 21.36C24.416 21.376 24.384 21.392 24.368 21.424L24.304 21.472H23.744L23.648 21.392L23.616 21.376L23.472 21.232C23.44 21.2 23.408 21.152 23.376 21.104V21.12C23.232 20.944 23.12 20.736 23.024 20.528C23.008 20.48 22.976 20.416 22.96 20.368C22.88 20.096 22.832 19.824 22.816 19.536V19.12C22.816 19.056 22.816 18.992 22.832 18.928L22.848 18.784V18.736C22.848 18.688 22.864 18.624 22.864 18.576V18.544C23.008 17.792 23.248 17.072 23.584 16.384L23.664 16.24L23.648 16.224C23.776 15.952 23.904 15.728 24 15.568C24.032 15.664 24.096 15.776 24.176 15.904ZM25.664 17.168C25.696 17.488 25.76 17.808 25.808 18.112C25.84 18.272 25.856 18.416 25.888 18.576C26.016 19.248 25.888 19.936 25.552 20.528L25.536 20.56C26 19.184 25.488 17.536 24.976 16.384L25.632 15.808V16.096C25.6 16.432 25.616 16.8 25.664 17.168ZM25.328 22.624C25.328 22.608 25.312 22.576 25.312 22.56C25.296 22.496 25.28 22.432 25.248 22.368V22.352C25.232 22.304 25.2 22.24 25.168 22.192L25.152 22.176C25.12 22.128 25.088 22.08 25.056 22.032L25.04 22C25.008 21.952 24.96 21.92 24.928 21.872L24.912 21.856C24.944 21.84 24.96 21.84 24.992 21.824L25.04 21.808L25.072 21.792C25.44 21.68 25.824 21.696 26.192 21.824L26.224 21.84C26.368 21.888 26.496 21.952 26.624 22.032C26.544 22.096 26.448 22.176 26.32 22.272C26.272 22.304 26.24 22.336 26.224 22.352C25.952 22.544 25.632 22.64 25.328 22.624ZM26.192 21.312C26.144 21.296 26.096 21.28 26.048 21.28L25.968 21.264H25.936C25.824 21.248 25.728 21.232 25.616 21.232C25.648 21.2 25.68 21.152 25.728 21.12C25.76 21.088 25.792 21.04 25.824 21.008C26.016 20.96 26.224 20.944 26.416 20.976C26.32 21.072 26.256 21.184 26.192 21.312ZM24.736 15.904C24.688 15.808 24.64 15.728 24.608 15.648L24.816 15.36L24.976 15.696L24.736 15.904ZM23.024 16.352C22.512 17.488 22 19.136 22.448 20.496C22.016 19.824 22.032 19.072 22.112 18.544C22.128 18.384 22.16 18.24 22.192 18.08C22.24 17.776 22.304 17.472 22.336 17.152C22.368 16.784 22.384 16.432 22.384 16.064V15.776L22.512 15.888L23.024 16.352ZM23.248 22.816V22.8C23.248 22.752 23.264 22.72 23.264 22.672C23.28 22.64 23.28 22.592 23.296 22.56C23.296 22.544 23.312 22.544 23.312 22.528C23.328 22.496 23.344 22.464 23.36 22.432L23.376 22.4C23.392 22.384 23.408 22.352 23.424 22.336C23.44 22.32 23.456 22.304 23.456 22.288C23.456 22.272 23.472 22.272 23.488 22.256C23.536 22.208 23.6 22.16 23.68 22.112C23.776 22.064 23.888 22.032 24 22.032H24.096C24.224 22.032 24.352 22.064 24.448 22.128C24.48 22.144 24.512 22.176 24.544 22.192C24.608 22.24 24.656 22.304 24.704 22.384V22.4C24.72 22.432 24.736 22.464 24.752 22.496C24.752 22.512 24.768 22.512 24.768 22.528C24.784 22.56 24.8 22.608 24.8 22.656C24.816 22.72 24.816 22.784 24.832 22.864C24.832 23.168 24.704 23.456 24.48 23.664V23.648L24.048 24.08L24.032 24.112L23.552 23.632V23.648C23.344 23.424 23.216 23.136 23.248 22.816ZM20.096 24.736C20.656 25.888 21.376 26.928 22.144 27.952L22.112 27.968C21.936 28.016 21.76 28.048 21.568 28.08C21.392 28.112 21.2 28.144 21.008 28.176H20.976C20.8 28.208 20.624 28.24 20.448 28.256L20.384 28.272C20.208 28.288 20.032 28.32 19.872 28.336H19.808C19.648 28.352 19.472 28.368 19.312 28.368H19.216C19.056 28.384 18.896 28.384 18.736 28.384H18.16C18 28.384 17.84 28.368 17.68 28.368C16.016 28.288 14.368 28.048 12.752 27.664L12.672 27.648C12.592 27.632 12.512 27.616 12.432 27.584H12.4C11.648 27.376 11.328 27.184 11.2 27.056L11.184 27.04C11.168 27.008 11.136 26.992 11.12 26.96C11.104 26.944 11.104 26.912 11.104 26.896C11.104 26.336 14.112 25.152 20.096 24.736ZM24.016 34.88C18.16 34.88 13.024 31.936 11.408 27.776L11.456 27.792C11.808 27.936 12.176 28.064 12.544 28.144L12.624 28.16C14.048 28.528 15.632 28.752 17.632 28.896C17.744 28.896 17.856 28.912 17.968 28.912H18.96C19.12 28.912 19.264 28.896 19.424 28.88L19.904 28.832H19.984C20.144 28.816 20.304 28.8 20.464 28.768L20.544 28.752C20.864 28.704 21.2 28.656 21.52 28.592L21.6 28.576C21.76 28.544 21.904 28.512 22.064 28.48L22.16 28.464C22.32 28.432 22.48 28.384 22.64 28.352L22.672 28.336H22.704L23.008 28.256C23.36 28.16 23.696 28.048 24.032 27.92H24.048L24.064 27.904H24.096C24.416 28.032 24.736 28.128 25.072 28.224L25.424 28.32L25.584 28.368C25.68 28.4 25.792 28.416 25.904 28.448L26 28.464C26.16 28.496 26.304 28.528 26.464 28.56L26.544 28.576C26.704 28.608 26.864 28.64 27.024 28.656C27.184 28.688 27.344 28.704 27.504 28.72L27.584 28.736C27.744 28.752 27.888 28.768 28.048 28.8H28.128C28.288 28.816 28.448 28.832 28.592 28.832H28.608C28.768 28.848 28.912 28.848 29.072 28.848H29.152C29.296 28.848 29.44 28.864 29.584 28.864H30.032C30.144 28.864 30.256 28.848 30.368 28.848C32.064 28.752 33.728 28.512 35.376 28.112L35.456 28.096C35.84 28.016 36.208 27.888 36.576 27.744L36.624 27.728C35.024 31.92 29.872 34.88 24.016 34.88Z" fill="#1F1917"/>
<path d="M65.3398 24L65.2852 22.9609L66.9531 22.5781C66.9896 22.487 67.0078 22.2773 67.0078 21.9492C67.026 21.6211 67.0352 21.1745 67.0352 20.6094C67.0534 20.0443 67.0625 19.3607 67.0625 18.5586V13.418C67.0625 12.5977 67.0534 11.9049 67.0352 11.3398C67.0352 10.7565 67.026 10.3008 67.0078 9.97266C67.0078 9.64453 66.9896 9.44401 66.9531 9.37109L65.2852 8.98828L65.3398 7.94922H71.1641L71.2188 8.98828L69.5508 9.37109C69.5143 9.42578 69.4779 9.60807 69.4414 9.91797C69.4232 10.2096 69.4049 10.6471 69.3867 11.2305C69.3867 11.7956 69.3867 12.5247 69.3867 13.418V18.5586C69.3867 19.4336 69.3867 20.1536 69.3867 20.7188C69.4049 21.2839 69.4232 21.7214 69.4414 22.0312C69.4779 22.3229 69.5143 22.5052 69.5508 22.5781L71.2188 22.9609L71.1641 24H65.3398Z" fill="black"/>
<path d="M73.3242 24L73.2695 23.0156L74.9648 22.6055C74.9831 22.4779 74.9922 22.3047 74.9922 22.0859C75.0104 21.8672 75.0286 21.5664 75.0469 21.1836C75.0651 20.8008 75.0742 20.2995 75.0742 19.6797L75.1016 17.5742C75.1016 16.9727 75.0742 16.3802 75.0195 15.7969C74.9831 15.1953 74.9375 14.7214 74.8828 14.375L73.1328 13.9922V13.0898L76.7969 12.0781L77.2617 12.5156L77.125 13.9648L77.207 13.9922C77.8451 13.2995 78.474 12.7982 79.0938 12.4883C79.7135 12.1784 80.388 12.0234 81.1172 12.0234C81.7917 12.0234 82.4206 12.1966 83.0039 12.543C83.6055 12.8711 84.0885 13.3815 84.4531 14.0742C84.8359 14.7669 85.0273 15.651 85.0273 16.7266V19.7617C85.0273 20.418 85.0365 21.0104 85.0547 21.5391C85.0911 22.0677 85.1367 22.4232 85.1914 22.6055L86.8867 23.0156L86.8047 24H81.3086L81.2539 23.0156L82.8398 22.6055C82.8581 22.4596 82.8763 22.2773 82.8945 22.0586C82.9128 21.8398 82.9219 21.5664 82.9219 21.2383C82.9401 20.8919 82.9492 20.4635 82.9492 19.9531V17C82.9492 16.1797 82.8034 15.5326 82.5117 15.0586C82.2383 14.5664 81.8919 14.2201 81.4727 14.0195C81.0534 13.8008 80.625 13.6914 80.1875 13.6914C79.5859 13.6914 79.0208 13.8464 78.4922 14.1562C77.9818 14.4479 77.5443 14.8581 77.1797 15.3867V19.4883C77.1797 20.3268 77.1888 21.0104 77.207 21.5391C77.2435 22.0495 77.2799 22.4049 77.3164 22.6055L79.0117 23.0156L78.9297 24H73.3242Z" fill="black"/>
<path d="M97.9883 24.3008L97.5781 23.9453L97.6055 22.168L97.5234 22.1406C96.9766 22.9062 96.4115 23.444 95.8281 23.7539C95.263 24.0638 94.6615 24.2188 94.0234 24.2188C92.9844 24.2188 92.0547 23.9818 91.2344 23.5078C90.4323 23.0156 89.7943 22.3411 89.3203 21.4844C88.8464 20.6276 88.6094 19.6432 88.6094 18.5312C88.6094 17.5651 88.7734 16.681 89.1016 15.8789C89.4297 15.0768 89.8763 14.3932 90.4414 13.8281C91.0247 13.2448 91.681 12.7982 92.4102 12.4883C93.1393 12.1784 93.8958 12.0234 94.6797 12.0234C95.1901 12.0234 95.7096 12.0872 96.2383 12.2148C96.7669 12.3424 97.2135 12.543 97.5781 12.8164C97.5781 12.4883 97.569 12.0599 97.5508 11.5312C97.5508 11.0026 97.5417 10.4557 97.5234 9.89062C97.5234 9.30729 97.5143 8.79688 97.4961 8.35938C97.4961 7.90365 97.487 7.59375 97.4688 7.42969L95.3359 7.04688L95.2812 6.14453L99.3008 5.02344L99.793 5.40625C99.7565 6.53646 99.7292 7.63021 99.7109 8.6875C99.6927 9.74479 99.6836 10.8477 99.6836 11.9961L99.6562 18.2852C99.6562 19.2148 99.6745 20.0169 99.7109 20.6914C99.7656 21.3477 99.8021 21.8125 99.8203 22.0859L101.57 22.5234V23.4258L97.9883 24.3008ZM94.707 22.3867C95.2357 22.3867 95.7279 22.2773 96.1836 22.0586C96.6393 21.8216 97.1042 21.4115 97.5781 20.8281V14.9492C97.2318 14.3294 96.7943 13.8919 96.2656 13.6367C95.737 13.3815 95.2083 13.2539 94.6797 13.2539C93.5312 13.2539 92.6289 13.6823 91.9727 14.5391C91.3346 15.3776 91.0156 16.4714 91.0156 17.8203C91.0156 19.2604 91.3711 20.3815 92.082 21.1836C92.8112 21.9857 93.6862 22.3867 94.707 22.3867Z" fill="black"/>
<path d="M109.281 24.2188C108.096 24.2188 107.057 23.9635 106.164 23.4531C105.289 22.9427 104.605 22.2318 104.113 21.3203C103.621 20.3906 103.375 19.3333 103.375 18.1484C103.375 16.9089 103.648 15.8333 104.195 14.9219C104.742 14.0104 105.471 13.2995 106.383 12.7891C107.294 12.2786 108.297 12.0234 109.391 12.0234C110.521 12.0234 111.505 12.2786 112.344 12.7891C113.201 13.2812 113.857 13.9831 114.312 14.8945C114.786 15.7878 115.023 16.8359 115.023 18.0391C115.023 19.1875 114.768 20.2266 114.258 21.1562C113.747 22.0859 113.055 22.8333 112.18 23.3984C111.323 23.9453 110.357 24.2188 109.281 24.2188ZM109.555 22.9336C110.174 22.9336 110.712 22.7513 111.168 22.3867C111.624 22.0039 111.979 21.4844 112.234 20.8281C112.49 20.1536 112.617 19.388 112.617 18.5312C112.617 16.9635 112.289 15.6966 111.633 14.7305C110.995 13.7461 110.147 13.2539 109.09 13.2539C108.105 13.2539 107.312 13.6641 106.711 14.4844C106.128 15.3047 105.836 16.3893 105.836 17.7383C105.836 18.7591 105.991 19.6615 106.301 20.4453C106.629 21.2292 107.076 21.8398 107.641 22.2773C108.206 22.7148 108.844 22.9336 109.555 22.9336Z" fill="black"/>
<path d="M129.953 20.0898V13.9648C129.953 12.8893 129.944 12.0326 129.926 11.3945C129.908 10.7383 129.889 10.2552 129.871 9.94531C129.853 9.61719 129.835 9.42578 129.816 9.37109L127.957 8.98828L128.039 7.94922H133.234L133.316 8.98828L131.621 9.37109C131.621 9.42578 131.603 9.61719 131.566 9.94531C131.548 10.2552 131.53 10.7383 131.512 11.3945C131.493 12.0326 131.484 12.8893 131.484 13.9648V20.4727C131.484 21.0378 131.484 21.6302 131.484 22.25C131.484 22.8516 131.493 23.4714 131.512 24.1094H130.281L120.219 10.5742H120.82V17.9023C120.82 18.9961 120.829 19.8802 120.848 20.5547C120.866 21.2109 120.884 21.694 120.902 22.0039C120.939 22.3138 120.966 22.5052 120.984 22.5781L122.844 22.9609L122.762 24H117.512L117.43 22.9609L119.098 22.5781C119.116 22.5052 119.134 22.3138 119.152 22.0039C119.189 21.694 119.216 21.2109 119.234 20.5547C119.253 19.8802 119.262 18.9961 119.262 17.9023V13.2266C119.262 12.4062 119.253 11.7318 119.234 11.2031C119.216 10.6745 119.198 10.2643 119.18 9.97266C119.161 9.68099 119.134 9.48047 119.098 9.37109L117.43 8.98828L117.512 7.94922H121.258L130.445 20.0898H129.953Z" fill="black"/>
<path d="M141.41 24.2188C140.225 24.2188 139.186 23.9635 138.293 23.4531C137.418 22.9427 136.734 22.2318 136.242 21.3203C135.75 20.3906 135.504 19.3333 135.504 18.1484C135.504 16.9089 135.777 15.8333 136.324 14.9219C136.871 14.0104 137.6 13.2995 138.512 12.7891C139.423 12.2786 140.426 12.0234 141.52 12.0234C142.65 12.0234 143.634 12.2786 144.473 12.7891C145.329 13.2812 145.986 13.9831 146.441 14.8945C146.915 15.7878 147.152 16.8359 147.152 18.0391C147.152 19.1875 146.897 20.2266 146.387 21.1562C145.876 22.0859 145.184 22.8333 144.309 23.3984C143.452 23.9453 142.486 24.2188 141.41 24.2188ZM141.684 22.9336C142.303 22.9336 142.841 22.7513 143.297 22.3867C143.753 22.0039 144.108 21.4844 144.363 20.8281C144.618 20.1536 144.746 19.388 144.746 18.5312C144.746 16.9635 144.418 15.6966 143.762 14.7305C143.124 13.7461 142.276 13.2539 141.219 13.2539C140.234 13.2539 139.441 13.6641 138.84 14.4844C138.257 15.3047 137.965 16.3893 137.965 17.7383C137.965 18.7591 138.12 19.6615 138.43 20.4453C138.758 21.2292 139.204 21.8398 139.77 22.2773C140.335 22.7148 140.973 22.9336 141.684 22.9336Z" fill="black"/>
<path d="M149.176 24L149.094 23.0156L150.789 22.6055C150.807 22.5143 150.826 22.3503 150.844 22.1133C150.862 21.8763 150.871 21.5573 150.871 21.1562C150.889 20.7552 150.898 20.263 150.898 19.6797L150.926 17.5469C150.926 16.9453 150.898 16.3529 150.844 15.7695C150.807 15.1862 150.762 14.7214 150.707 14.375L148.957 13.9922V13.0898L152.621 12.0781L153.004 12.4609L152.895 14.7578L152.977 14.7852C153.523 13.7279 154.079 13.0169 154.645 12.6523C155.21 12.2695 155.738 12.0781 156.23 12.0781C156.65 12.0781 156.996 12.1875 157.27 12.4062C157.561 12.6068 157.707 12.9167 157.707 13.3359C157.707 13.7734 157.552 14.1107 157.242 14.3477C156.951 14.5664 156.577 14.6758 156.121 14.6758C155.793 14.6758 155.474 14.6029 155.164 14.457C154.872 14.3112 154.59 14.1107 154.316 13.8555L154.809 14.0195C154.462 14.2383 154.134 14.5482 153.824 14.9492C153.514 15.332 153.232 15.8151 152.977 16.3984L153.004 18.9414C153.022 19.3971 153.04 19.8711 153.059 20.3633C153.077 20.8555 153.095 21.3021 153.113 21.7031C153.132 22.0859 153.15 22.3867 153.168 22.6055L155.547 22.9609L155.492 24H149.176Z" fill="black"/>
<path d="M172.062 24.1094L167.879 13.6367L166.484 13.2266L166.539 12.2422H171.57L171.625 13.2266L170.203 13.6367L173.375 21.9492L172.691 21.9766L175.945 13.6367L174.523 13.2266L174.578 12.2422H178.816L178.871 13.2266L177.586 13.6367L172.91 24.1094H172.062ZM164.105 24.1094L159.676 13.6367L158.391 13.2266L158.445 12.2422H163.504L163.559 13.2266L162.164 13.6367L165.555 21.9492L164.734 21.9766L168.344 13.3906L169.082 15.0859L164.953 24.1094H164.105Z" fill="black"/>
<path d="M184.039 24.2188C183.31 24.2188 182.663 24.0729 182.098 23.7812C181.533 23.4896 181.086 23.1159 180.758 22.6602C180.448 22.2044 180.293 21.7305 180.293 21.2383C180.293 20.6185 180.493 20.1081 180.895 19.707C181.296 19.306 181.952 18.9596 182.863 18.668L187.02 17.2734V15.8789C187.02 15.4232 186.883 15.013 186.609 14.6484C186.336 14.2656 185.971 13.9648 185.516 13.7461C185.06 13.5273 184.549 13.418 183.984 13.418C183.529 13.418 183.219 13.5182 183.055 13.7188C182.891 13.901 182.79 14.2747 182.754 14.8398L182.699 15.9883C182.043 16.1341 181.487 16.1159 181.031 15.9336C180.576 15.7331 180.348 15.4141 180.348 14.9766C180.348 14.6667 180.475 14.3568 180.73 14.0469C181.004 13.737 181.359 13.4453 181.797 13.1719C182.234 12.8802 182.708 12.6341 183.219 12.4336C183.729 12.2331 184.23 12.0964 184.723 12.0234C186.072 12.0234 187.147 12.3789 187.949 13.0898C188.77 13.8008 189.189 14.7305 189.207 15.8789L189.152 20.4727C189.152 20.819 189.161 21.1562 189.18 21.4844C189.216 21.8125 189.262 22.0586 189.316 22.2227L191.066 22.5508V23.3984L189.727 23.8906C189.471 23.9818 189.234 24.0547 189.016 24.1094C188.797 24.1823 188.615 24.2188 188.469 24.2188C187.904 24.2188 187.539 23.8997 187.375 23.2617L187.074 22.1953H187.484C186.883 22.8698 186.299 23.3802 185.734 23.7266C185.188 24.0547 184.622 24.2188 184.039 24.2188ZM184.777 22.6055C185.197 22.6055 185.589 22.5143 185.953 22.332C186.318 22.1315 186.673 21.8307 187.02 21.4297V18.5586L183.957 19.3789C183.52 19.4883 183.201 19.6615 183 19.8984C182.818 20.1354 182.727 20.4362 182.727 20.8008C182.727 21.2565 182.927 21.6758 183.328 22.0586C183.747 22.4232 184.23 22.6055 184.777 22.6055Z" fill="black"/>
<path d="M197.492 24.1094L192.68 13.6367L191.395 13.2266L191.477 12.2422H196.781L196.836 13.2266L195.141 13.6367L198.859 21.9492L197.492 24.1094ZM204.492 12.2422L204.574 13.2266L203.289 13.6367L198.641 23.3984L196.453 27.9375C196.052 28.776 195.624 29.3685 195.168 29.7148C194.73 30.0612 194.22 30.2344 193.637 30.2344C193.181 30.2344 192.807 30.125 192.516 29.9062C192.242 29.6875 192.105 29.4049 192.105 29.0586C192.105 28.7852 192.215 28.5208 192.434 28.2656C192.652 28.0286 192.99 27.8464 193.445 27.7188L195.988 26.9531L194.73 28.3203L197.766 22.4688L198.066 21.9766L201.621 13.6367L199.926 13.2266L199.98 12.2422H204.492Z" fill="black"/>
<path d="M74.0625 44.2461C72.4766 44.2461 71.0273 43.9453 69.7148 43.3438C68.4206 42.724 67.3815 41.8125 66.5977 40.6094C65.8138 39.388 65.4219 37.8841 65.4219 36.0977C65.4219 34.9492 65.6224 33.8737 66.0234 32.8711C66.4245 31.8503 67.0078 30.957 67.7734 30.1914C68.5573 29.4076 69.5052 28.7969 70.6172 28.3594C71.7292 27.9219 72.9961 27.7031 74.418 27.7031C75.1654 27.7031 75.9583 27.776 76.7969 27.9219C77.6354 28.0677 78.3828 28.2773 79.0391 28.5508L79.2305 32.2969L78 32.4062L77.1797 29.8086C76.8333 29.5716 76.3776 29.3984 75.8125 29.2891C75.2474 29.1615 74.7005 29.0977 74.1719 29.0977C72.8047 29.0977 71.6836 29.3984 70.8086 30C69.9518 30.5833 69.3138 31.3672 68.8945 32.3516C68.4935 33.3359 68.293 34.4206 68.293 35.6055C68.293 37.1549 68.5573 38.4674 69.0859 39.543C69.6328 40.6185 70.362 41.4297 71.2734 41.9766C72.2031 42.5234 73.224 42.7969 74.3359 42.7969C74.9193 42.7969 75.4479 42.7331 75.9219 42.6055C76.3958 42.4779 76.8516 42.2865 77.2891 42.0312L78.4922 39.4609L79.75 39.5977L78.9844 43.043C78.3646 43.3711 77.6263 43.6536 76.7695 43.8906C75.9128 44.1276 75.0104 44.2461 74.0625 44.2461Z" fill="black"/>
<path d="M87.4062 44.2188C86.2214 44.2188 85.1823 43.9635 84.2891 43.4531C83.4141 42.9427 82.7305 42.2318 82.2383 41.3203C81.7461 40.3906 81.5 39.3333 81.5 38.1484C81.5 36.9089 81.7734 35.8333 82.3203 34.9219C82.8672 34.0104 83.5964 33.2995 84.5078 32.7891C85.4193 32.2786 86.4219 32.0234 87.5156 32.0234C88.6458 32.0234 89.6302 32.2786 90.4688 32.7891C91.3255 33.2812 91.9818 33.9831 92.4375 34.8945C92.9115 35.7878 93.1484 36.8359 93.1484 38.0391C93.1484 39.1875 92.8932 40.2266 92.3828 41.1562C91.8724 42.0859 91.1797 42.8333 90.3047 43.3984C89.4479 43.9453 88.4818 44.2188 87.4062 44.2188ZM87.6797 42.9336C88.2995 42.9336 88.8372 42.7513 89.293 42.3867C89.7487 42.0039 90.1042 41.4844 90.3594 40.8281C90.6146 40.1536 90.7422 39.388 90.7422 38.5312C90.7422 36.9635 90.4141 35.6966 89.7578 34.7305C89.1198 33.7461 88.2721 33.2539 87.2148 33.2539C86.2305 33.2539 85.4375 33.6641 84.8359 34.4844C84.2526 35.3047 83.9609 36.3893 83.9609 37.7383C83.9609 38.7591 84.1159 39.6615 84.4258 40.4453C84.7539 41.2292 85.2005 41.8398 85.7656 42.2773C86.3307 42.7148 86.9688 42.9336 87.6797 42.9336Z" fill="black"/>
<path d="M95.1172 44L95.0625 43.0156L96.7578 42.6055C96.776 42.4779 96.7852 42.3047 96.7852 42.0859C96.8034 41.8672 96.8216 41.5664 96.8398 41.1836C96.8581 40.8008 96.8672 40.2995 96.8672 39.6797L96.8945 37.5742C96.8945 36.9727 96.8672 36.3802 96.8125 35.7969C96.776 35.1953 96.7305 34.7214 96.6758 34.375L94.9258 33.9922V33.0898L98.5898 32.0781L99.0547 32.5156L98.918 33.9648L99 33.9922C99.638 33.2995 100.267 32.7982 100.887 32.4883C101.507 32.1784 102.181 32.0234 102.91 32.0234C103.585 32.0234 104.214 32.1966 104.797 32.543C105.398 32.8711 105.882 33.3815 106.246 34.0742C106.629 34.7669 106.82 35.651 106.82 36.7266V39.7617C106.82 40.418 106.829 41.0104 106.848 41.5391C106.884 42.0677 106.93 42.4232 106.984 42.6055L108.68 43.0156L108.598 44H103.102L103.047 43.0156L104.633 42.6055C104.651 42.4596 104.669 42.2773 104.688 42.0586C104.706 41.8398 104.715 41.5664 104.715 41.2383C104.733 40.8919 104.742 40.4635 104.742 39.9531V37C104.742 36.1797 104.596 35.5326 104.305 35.0586C104.031 34.5664 103.685 34.2201 103.266 34.0195C102.846 33.8008 102.418 33.6914 101.98 33.6914C101.379 33.6914 100.814 33.8464 100.285 34.1562C99.7747 34.4479 99.3372 34.8581 98.9727 35.3867V39.4883C98.9727 40.3268 98.9818 41.0104 99 41.5391C99.0365 42.0495 99.0729 42.4049 99.1094 42.6055L100.805 43.0156L100.723 44H95.1172Z" fill="black"/>
<path d="M110.156 44L110.102 43.0156L111.797 42.6055C111.815 42.4779 111.824 42.3047 111.824 42.0859C111.842 41.8672 111.861 41.5664 111.879 41.1836C111.897 40.8008 111.906 40.2995 111.906 39.6797L111.934 37.5742C111.934 36.9727 111.906 36.3802 111.852 35.7969C111.815 35.1953 111.77 34.7214 111.715 34.375L109.965 33.9922V33.0898L113.629 32.0781L114.094 32.5156L113.957 33.9648L114.039 33.9922C114.677 33.2995 115.306 32.7982 115.926 32.4883C116.546 32.1784 117.22 32.0234 117.949 32.0234C118.624 32.0234 119.253 32.1966 119.836 32.543C120.438 32.8711 120.921 33.3815 121.285 34.0742C121.668 34.7669 121.859 35.651 121.859 36.7266V39.7617C121.859 40.418 121.868 41.0104 121.887 41.5391C121.923 42.0677 121.969 42.4232 122.023 42.6055L123.719 43.0156L123.637 44H118.141L118.086 43.0156L119.672 42.6055C119.69 42.4596 119.708 42.2773 119.727 42.0586C119.745 41.8398 119.754 41.5664 119.754 41.2383C119.772 40.8919 119.781 40.4635 119.781 39.9531V37C119.781 36.1797 119.635 35.5326 119.344 35.0586C119.07 34.5664 118.724 34.2201 118.305 34.0195C117.885 33.8008 117.457 33.6914 117.02 33.6914C116.418 33.6914 115.853 33.8464 115.324 34.1562C114.814 34.4479 114.376 34.8581 114.012 35.3867V39.4883C114.012 40.3268 114.021 41.0104 114.039 41.5391C114.076 42.0495 114.112 42.4049 114.148 42.6055L115.844 43.0156L115.762 44H110.156Z" fill="black"/>
<path d="M131.129 44.2188C130.072 44.2188 129.115 43.9818 128.258 43.5078C127.419 43.0339 126.745 42.3594 126.234 41.4844C125.742 40.5911 125.496 39.543 125.496 38.3398C125.496 37.0456 125.76 35.9245 126.289 34.9766C126.818 34.0286 127.51 33.2995 128.367 32.7891C129.224 32.2604 130.145 32.0052 131.129 32.0234C132.551 32.0417 133.663 32.5156 134.465 33.4453C135.267 34.375 135.668 35.6875 135.668 37.3828V37.875H127.273V36.6719H133.863L133.562 37.0273V36.4531C133.562 35.3958 133.326 34.5846 132.852 34.0195C132.378 33.4544 131.73 33.1719 130.91 33.1719C130.4 33.1719 129.908 33.3268 129.434 33.6367C128.96 33.9284 128.577 34.3841 128.285 35.0039C127.993 35.6055 127.848 36.3711 127.848 37.3008V37.6289C127.848 39.1237 128.212 40.2904 128.941 41.1289C129.689 41.9674 130.646 42.3867 131.812 42.3867C132.451 42.3867 133.025 42.2591 133.535 42.0039C134.046 41.7487 134.538 41.3385 135.012 40.7734L135.695 41.4023C135.185 42.3503 134.538 43.0612 133.754 43.5352C132.97 43.9909 132.095 44.2188 131.129 44.2188Z" fill="black"/>
<path d="M143.406 44.2188C142.385 44.2188 141.447 43.9909 140.59 43.5352C139.733 43.0612 139.049 42.3867 138.539 41.5117C138.029 40.6185 137.773 39.5612 137.773 38.3398C137.773 37.1549 138.038 36.0885 138.566 35.1406C139.113 34.1745 139.852 33.418 140.781 32.8711C141.729 32.306 142.786 32.0234 143.953 32.0234C144.755 32.0234 145.43 32.1237 145.977 32.3242C146.523 32.5247 146.934 32.7891 147.207 33.1172C147.499 33.4453 147.645 33.7917 147.645 34.1562C147.645 34.4479 147.553 34.694 147.371 34.8945C147.189 35.0768 146.934 35.168 146.605 35.168C146.314 35.168 146.059 35.1133 145.84 35.0039C145.621 34.8945 145.357 34.6758 145.047 34.3477L143.652 32.9531L144.637 33.2266C143.908 33.0625 143.206 33.1354 142.531 33.4453C141.857 33.737 141.301 34.2565 140.863 35.0039C140.426 35.7331 140.207 36.681 140.207 37.8477C140.207 39.306 140.572 40.4271 141.301 41.2109C142.048 41.9948 142.978 42.3867 144.09 42.3867C144.783 42.3867 145.375 42.2591 145.867 42.0039C146.378 41.7487 146.861 41.3385 147.316 40.7734L148.055 41.4023C147.544 42.3503 146.897 43.0612 146.113 43.5352C145.329 43.9909 144.427 44.2188 143.406 44.2188Z" fill="black"/>
<path d="M157.707 42.3047C157.361 42.9062 156.887 43.3802 156.285 43.7266C155.684 44.0547 155.055 44.2188 154.398 44.2188C153.286 44.2188 152.375 43.8815 151.664 43.207C150.953 42.5326 150.598 41.5208 150.598 40.1719L150.68 33.6367H148.766V33.0625L152.293 29.8633H152.812L152.758 33.0078L152.73 39.7344C152.73 40.6823 152.931 41.3841 153.332 41.8398C153.751 42.2956 154.335 42.5234 155.082 42.5234C155.501 42.5234 155.884 42.4414 156.23 42.2773C156.595 42.1133 156.923 41.8945 157.215 41.6211L157.707 42.3047ZM151.773 33.6367V32.2695H156.887V33.6367H151.773Z" fill="black"/>
</svg>
